<svg xmlns="http://www.w3.org/2000/svg" viewBox="0 0 282.9 434.1"><path d="M35.7 14.2c-.7-1-1.4-1.9-2.3-2.7-1-.8-2-1.3-3.2-1.8-1.2-.4-2.5-.7-3.8-.7-2.5 0-4.5.4-6.1 1.4-1.7.9-3 2.2-4.1 3.8-1 1.6-1.8 3.3-2.2 5.4-.4 2-.7 4-.7 6.2 0 2 .2 4 .7 6 .4 1.9 1.2 3.7 2.2 5.2 1 1.6 2.5 2.8 4.1 3.7 1.7.9 3.7 1.4 6.1 1.4 3.2 0 5.8-1 7.7-3s3-4.7 3.3-7.9h10.4c-.2 3-1 5.8-2.1 8.3s-2.7 4.6-4.5 6.2c-1.9 1.7-4 3-6.6 3.9-2.5.9-5.2 1.3-8.3 1.3-3.7 0-7.1-.7-10-1.9-3-1.3-5.5-3.1-7.6-5.4-2-2.2-3.6-4.9-4.7-8-1.1-3-1.7-6.4-1.7-9.9 0-3.7.6-7 1.7-10.1 1.1-3.1 2.7-5.8 4.7-8.1s4.6-4.1 7.6-5.5c3-1.3 6.4-2 10-2 2.7 0 5.2.3 7.6 1.1 2.3.8 4.6 1.9 6.4 3.3 1.9 1.4 3.5 3.3 4.7 5.5s2 4.7 2.3 7.5H36.9c-.2-1.1-.6-2.2-1.2-3.2m27.2 27.2c1.4 1.4 3.6 2.1 6.2 2.1 2 0 3.7-.4 5-1.4 1.4-1 2.2-2 2.6-3.1h8.5c-1.3 4.2-3.5 7.2-6.2 9s-6.2 2.7-10.3 2.7c-2.8 0-5.2-.4-7.5-1.3-2.2-.9-4.1-2.1-5.7-3.8-1.6-1.7-2.8-3.6-3.6-5.9-.9-2.2-1.2-4.8-1.2-7.5s.4-5.1 1.3-7.4 2.1-4.2 3.7-5.9c1.6-1.7 3.5-3 5.7-3.9 2.2-1 4.7-1.4 7.4-1.4 3 0 5.6.6 7.8 1.8 2.2 1.1 4 2.7 5.5 4.7 1.4 2 2.5 4.2 3.1 6.7.7 2.5.9 5.1.7 7.8H60.5c.2 3.1.9 5.3 2.4 6.8m11-18.6c-1.1-1.2-2.9-1.9-5.2-1.9-1.6 0-2.8.2-3.9.8-1 .6-1.8 1.2-2.5 1.9-.6.8-1 1.6-1.3 2.5-.2.9-.4 1.7-.4 2.3h15.7c-.5-2.4-1.3-4.3-2.4-5.6m25.7-8.2v6.6h.1c.4-1.1 1.1-2.1 1.8-3 .8-.9 1.7-1.7 2.7-2.3 1-.7 2.1-1.1 3.2-1.6 1.1-.3 2.3-.6 3.6-.6.7 0 1.3.1 2.1.3v9c-.4-.1-1-.2-1.7-.2-.7-.1-1.2-.1-1.8-.1-1.8 0-3.2.3-4.5.9-1.2.6-2.2 1.4-3 2.5-.8 1-1.3 2.2-1.6 3.6-.3 1.3-.4 2.8-.4 4.5v15.7h-9.7V14.7h9.2v-.1zm39.3 0v6.5h-7.1v17.5c0 1.7.2 2.7.8 3.2s1.7.8 3.2.8c.6 0 1.1 0 1.6-.1.4 0 1-.1 1.4-.2v7.5c-.8.1-1.8.2-2.7.2-1 0-2 .1-2.9.1-1.4 0-2.9-.1-4.2-.3-1.3-.2-2.6-.6-3.6-1.2s-1.8-1.4-2.5-2.6c-.6-1.1-.9-2.6-.9-4.2V20.9h-5.9v-6.5h5.9V3.8h9.7v10.6h7.1v.2h.1zm4.9-13.5h9.7v8h-9.7v-8zm9.7 48.7h-9.7V14.6h9.7v35.2zm4.1-28.7v-6.5h5.8v-2.7c0-3.1 1-5.7 2.9-7.7 2-2 4.9-3 8.9-3 .9 0 1.7 0 2.6.1s1.7.1 2.6.2v7.2c-1.1-.1-2.3-.2-3.6-.2-1.3 0-2.2.3-2.8.9s-.9 1.7-.9 3.1v2.1h6.7v6.5h-6.7v28.7h-9.7V21.1h-5.8zm27.9-20h9.7v8h-9.7v-8zm9.7 48.7h-9.7V14.6h9.7v35.2zm15.3-8.4c1.4 1.4 3.6 2.1 6.2 2.1 2 0 3.7-.4 5-1.4 1.4-1 2.2-2 2.6-3.1h8.5c-1.3 4.2-3.5 7.2-6.2 9s-6.2 2.7-10.3 2.7c-2.8 0-5.2-.4-7.5-1.3-2.2-.9-4.1-2.1-5.7-3.8s-2.8-3.6-3.6-5.9c-.9-2.2-1.2-4.8-1.2-7.5s.4-5.1 1.3-7.4 2.1-4.2 3.7-5.9c1.6-1.7 3.5-3 5.7-3.9 2.2-1 4.7-1.4 7.4-1.4 3 0 5.6.6 7.8 1.8 2.2 1.1 4 2.7 5.5 4.7 1.4 2 2.5 4.2 3.1 6.7.7 2.5.9 5.1.7 7.8h-25.4c.2 3.1 1 5.3 2.4 6.8m11-18.6c-1.1-1.2-2.9-1.9-5.2-1.9-1.6 0-2.8.2-3.9.8-1 .6-1.9 1.2-2.5 1.9-.7.8-1 1.6-1.3 2.5-.2.9-.4 1.7-.4 2.3h15.7c-.4-2.4-1.3-4.3-2.4-5.6m41.4 22.5c-1.1 1.9-2.7 3.2-4.5 4.1-1.9.9-3.9 1.2-6.2 1.2-2.7 0-4.9-.6-6.9-1.6s-3.7-2.5-4.9-4.1c-1.3-1.8-2.2-3.8-2.9-6-.7-2.2-1-4.7-1-7.1 0-2.3.3-4.7 1-6.8.7-2.2 1.7-4.1 2.9-5.8 1.3-1.7 2.9-3 4.9-4s4.2-1.6 6.8-1.6c2.1 0 4.1.4 5.9 1.3 1.9.9 3.3 2.2 4.5 3.9h.1V1.1h9.7v48.7H263v-4.5h-.1zm-.4-17.4c-.2-1.3-.8-2.6-1.4-3.6-.7-1-1.6-1.9-2.6-2.5-1-.7-2.3-1-3.9-1s-2.9.3-4 1-2 1.4-2.7 2.6c-.7 1-1.1 2.2-1.4 3.6-.3 1.3-.4 2.8-.4 4.2 0 1.3.1 2.7.4 4.1.3 1.3.9 2.6 1.6 3.7s1.6 1.9 2.7 2.6c1.1.7 2.3 1 3.9 1s2.9-.3 4-1 1.9-1.4 2.6-2.6c.7-1.1 1.1-2.2 1.3-3.7.2-1.3.4-2.8.4-4.2s-.2-2.9-.5-4.2M79.3 129h56.4c13.7 0 31.8 0 41.1 5.7 10.3 6.1 18.3 17.2 18.3 32.4 0 16.5-8.7 29-23.1 34.9v.4c19.2 3.9 29.7 18.3 29.7 37.5 0 22.9-16.4 44.7-47.3 44.7H79.2l.1-155.6zm20.7 66.9h41.5c23.5 0 33.1-8.5 33.1-24.9 0-21.6-15.3-24.6-33.1-24.6H100v49.5zm0 71.3h51.9c17.8 0 29.2-10.9 29.2-27.9 0-20.3-16.4-26-33.8-26H100v53.9z"/><path d="M254.7 206.8c0 65.3-53 118.3-118.4 118.3C71 325.1 18 272.1 18 206.8S71 88.5 136.3 88.5c65.4 0 118.4 53 118.4 118.3M136.4 70.5C61.1 70.5 0 131.5 0 206.9c0 75.3 61 136.4 136.4 136.4 75.3 0 136.4-61 136.4-136.4S211.6 70.5 136.4 70.5m-111.2 302c-.4-3.5-3.8-6-7.6-6-6.8 0-9.4 5.8-9.4 11.8 0 5.7 2.6 11.5 9.4 11.5 4.7 0 7.2-3.2 7.8-7.7h7.4c-.8 8.6-6.7 14.1-15.2 14.1-10.7 0-16.9-7.9-16.9-18 0-10.3 6.2-18.2 16.9-18.2 7.6 0 13.9 4.5 14.8 12.4h-7.2v.1zm23.4-2.6c7.9 0 12.9 5.2 12.9 13.2 0 7.9-5 13.2-12.9 13.2-7.8 0-12.9-5.2-12.9-13.2.1-8.1 5.1-13.2 12.9-13.2m0 21c4.7 0 6.1-4 6.1-7.9 0-4-1.4-8-6.1-8-4.7 0-6 4-6 8 0 3.9 1.4 7.9 6 7.9m17-20.4h6.5v4.7h.1c1.2-3.1 4.7-5.4 7.9-5.4.4 0 1 .1 1.4.2v6.4c-.7-.1-1.7-.2-2.5-.2-5 0-6.8 3.6-6.8 8v11.3h-6.8v-25h.2zm19.7 0h6.5v3.2h.1c1.7-2.7 4.3-3.9 7.5-3.9 7.8 0 11.4 6.4 11.4 13.4 0 6.7-3.7 12.9-10.9 12.9-3 0-5.8-1.3-7.5-3.8h-.2v11.9h-6.8v-33.7h-.1zm18.5 12.5c0-4-1.6-8-6-8-4.5 0-5.9 4-5.9 8s1.6 7.9 6 7.9c4.5 0 5.9-3.7 5.9-7.9m23.1-13.1c7.9 0 12.9 5.2 12.9 13.2 0 7.9-5.1 13.2-12.9 13.2s-12.9-5.2-12.9-13.2c0-8.1 5.1-13.2 12.9-13.2m0 21c4.7 0 6.1-4 6.1-7.9 0-4-1.4-8-6.1-8s-6 4-6 8c0 3.9 1.3 7.9 6 7.9m17.5-20.4h6.5v4.7h.1c1.2-3.1 4.7-5.4 7.9-5.4.4 0 1.1.1 1.4.2v6.4c-.7-.1-1.7-.2-2.5-.2-5 0-6.8 3.6-6.8 8v11.3h-6.8v-25h.2zm18.5 7.7c.4-6.5 6.1-8.4 11.7-8.4 5 0 10.9 1.1 10.9 7.1v12.9c0 2.2.2 4.6.9 5.6h-6.9c-.2-.8-.4-1.6-.4-2.5-2.1 2.2-5.4 3.1-8.4 3.1-4.7 0-8.5-2.3-8.5-7.5 0-5.7 4.2-7 8.5-7.6 4.2-.7 8.1-.4 8.1-3.2 0-2.9-2-3.3-4.5-3.3-2.6 0-4.3 1-4.6 3.8h-6.8zm15.8 5.1c-1.1 1-3.6 1.1-5.7 1.4-2.1.4-4 1.1-4 3.7s2 3.2 4.2 3.2c5.4 0 5.6-4.2 5.6-5.7v-2.7h-.1v.1zm20.9-12.8h5v4.6h-5v12.4c0 2.3.6 2.9 2.9 2.9.8 0 1.4 0 2.1-.2v5.4c-1.1.2-2.7.2-4 .2-4.2 0-7.8-1-7.8-5.9v-14.8h-4.1v-4.6h4.1v-7.4h6.8v7.4zm15.3-3.9h-6.8v-5.7h6.8v5.7zm-6.8 3.9h6.8v25h-6.8v-25zm23.4-.6c7.9 0 12.9 5.2 12.9 13.2 0 7.9-5.1 13.2-12.9 13.2s-12.8-5.2-12.8-13.2c-.1-8.1 5-13.2 12.8-13.2m0 21c4.7 0 6.1-4 6.1-7.9 0-4-1.3-8-6.1-8-4.7 0-6 4-6 8 0 3.9 1.3 7.9 6 7.9m17.3-20.4h6.5v3.5h.1c1.8-2.8 4.7-4.1 7.6-4.1 7.2 0 9.1 4.1 9.1 10.3v15.4h-6.8v-14.1c0-4.1-1.2-6.1-4.3-6.1-3.7 0-5.4 2.1-5.4 7.1v13h-6.8v-25zM.6 416.7h271.8v17.4H.6zm275.6-56.8h-1.6v4.3h-.8v-4.3h-1.6v-.7h4v.7zm6.7 4.4h-.8v-4.2l-1.7 4.2h-.6l-1.7-4.2v4.2h-.9v-5h1.3l1.6 3.8 1.4-3.8h1.3v5h.1z"/></svg>