<svg id="layer" xmlns="http://www.w3.org/2000/svg" viewBox="0 0 642 375.3"><style>.st0{fill:#fff}</style><g id="layer1" transform="translate(-137.5 -22.39)"><path id="path2998" d="M137.5 27v162h84.8c33.4 0 64.2-11.7 64.2-46.1 0-23.3-16.8-33.9-35.2-39.4 11.2-4.5 24-14 24-33.8 0-25.4-25.2-42.6-59.1-42.6l-78.7-.1zm52 37.7h19.1c7.8 0 13.7 6.1 13.7 12.3 0 5.7-6.2 11.9-13.7 11.9h-19.1V64.7zm0 57.8h25.2c8.8 0 16.2 6.7 16.2 14.3 0 8.1-6.9 14.9-17.7 14.9h-23.7v-29.2z"/><path id="path3005" d="M179.5 206.7v162h84.8c33.4 0 64.2-11.7 64.2-46.1 0-23.3-16.8-33.9-35.2-39.4 11.2-4.5 24-14 24-33.8 0-25.4-25.2-42.6-59.1-42.6h-78.7v-.1zm52 37.7h19.1c7.8 0 13.7 6.1 13.7 12.3 0 5.7-6.2 11.9-13.7 11.9h-19.1v-24.2zm0 57.8h25.2c8.8 0 16.2 6.7 16.2 14.3 0 8.1-6.9 14.9-17.7 14.9h-23.7v-29.2z"/><path id="path3007" d="M290.6 189V27h130.7v39.1h-78.9v21.2h64V124h-64v26h78.9v39H290.6z"/><path id="path3009" d="M492.1 193.6c36.8 0 66.2-21 66.2-55 0-54.9-71.4-46.4-71.4-63.5 0-6.6 6.9-10.1 14.1-10.1 12.3 0 21.1 8.1 21.1 8.1l30.7-29.2c-12.3-11.7-31.7-21.5-57.8-21.5-39.2 0-64.9 23.3-64.9 51.4 0 55.6 70.3 47.5 70.3 64.9 0 6.1-5.9 12.3-16.5 12.3-12.1 0-21.7-7.3-29.2-13.5l-30.9 29.4c12.4 12.1 32.4 26.7 68.3 26.7z"/><path id="path3011" d="M598.3 189V66h-42.8V27H693v39h-42.8v123h-51.9z"/><path id="path3013" d="M330.4 206.6h51.8v97c0 9.9 9.8 18.9 20 18.9 9.6 0 19.4-8.2 19.4-19.5v-96.4h51.7v95.9c0 38-31.6 68.4-72.4 68.4-41.1 0-70.5-33-70.5-70.5v-93.8z"/><path id="path3015" d="M537.1 368.6v-57.9l-60.9-104.1h52.4l34.5 55.8 34.6-55.8h52.5l-61.1 104.7v57.3h-52z"/><path id="path3017" d="M650.2 295.2l-30.6 30.6v41.3l30.6 30.6h129.3V295.2H650.2z"/><path id="path3024" class="st0" d="M645.2 346.4c0 3.8-3.1 6.9-6.9 6.9s-6.9-3.1-6.9-6.9 3.1-6.9 6.9-6.9 6.9 3.1 6.9 6.9z"/></g></svg>