<svg id="layer" xmlns="http://www.w3.org/2000/svg" viewBox="0 0 605.3 206.2"><style>.st0{fill:#fff}</style><g id="layer1" transform="translate(1568.826 -75.268)"><path id="path2641" class="st0" d="M-1481.8 141.4l-13.5 20.8c-1.2-.6-2.1-1.4-3-2.2-1-2.7-.7-7.5 1.8-11 2.7-3.8 7.8-6.4 14.7-7.6m-23.7 15.9c.5 5 2.9 8.4 6.3 10.8l-69.6 107.2 244.8-38.8 227.1 45c44.5-68.7 88.9-137.5 133.4-206.2l-324.6 63.1-153.5-58.9-35.3 54.3c-18.2.4-29.3 7.9-29.3 19.1 0 0 0 1.7.2 2.4.3.6.6 2 .5 2"/><path id="path2643" d="M-1498.4 160.1c-1-2.7-.7-7.5 1.8-11.1 3.7-5.1 11.7-8.2 22.8-8.2 1 0 1.9 0 2.8.1l-15.4 23.7c.9.1 1.9.1 2.8.1 16.8 0 26.4-8.9 30-12.9 0 0 7-9.7 7.1-9.8-6.6-2.5-16.4-5.2-28.2-5.2-16.5 0-26.5 6.7-26.5 16.2 0 2.7 1 5.2 2.8 7.1zm345.1-8.4c0-3.1-2.1-4.6-4.4-4.6-4.2 0-6.8 3.9-6.8 7.2 0 2.6 1.5 4.4 4.6 4.4 3.7 0 6.6-3.5 6.6-7m-352.2 5.6c2.2 6.3 9.4 10.4 21.5 10.4 10.2 0 18.2-3 24-6.6-9 12.9-21 30.7-25.4 37.8-2.1 3.5-3.6 6.4-3.6 9.1 0 4.5 4.5 7.1 9.6 7.1 6.2 0 11.2-4.4 17.5-12.4l2.2-3s-.3 1.6-.3 3c0 6.7 4.1 12.4 16.9 12.4 17.5 0 33.7-9.2 49.5-24.3l3.4-3.2c-5.1 6.9-7.1 11.7-7.1 14.7 0 3.7 2.6 5.9 6.7 5.9 6.3 0 13.2-5 18.7-10.6l2.5-2.6c-1.6 3.2-2.5 5.6-2.5 7.7 0 3 1.8 5.5 6.3 5.5 7.8 0 15.2-7 21.5-13.7-.9 2.2-1.8 4.9-1.8 6.9 0 4.2 2.8 6.7 7.3 6.7 5.8 0 11.7-3.2 18.5-10.8.9-1 2.2-2.5 3.4-3.9-1.2 2.4-2.6 5.5-2.6 8.7 0 3.7 2.3 6 6.7 6 9.5 0 18.1-10.2 23.2-15.8-2.5 4.1-4.1 7.1-4.1 9.9 0 4.2 3 5.9 6.7 5.9 8.4 0 16.1-7.5 21.9-14.9-1.4 2.8-2.9 5.7-2.9 8.7 0 4 2.7 6.1 7.3 6.1 4.1 0 9.3-1.6 15.1-6.8 5.4-4.8 9.4-10.1 12.7-15.1 1.5 2.5 3.9 4.1 6.7 4.9-1.2 2.7-1.9 5.6-1.9 8 0 5.4 3.4 8.9 10.6 8.9 12.3 0 22.5-10.5 28.8-17.3-3.1 5.3-4.2 8.5-4.2 11.1 0 3.9 2.5 6.2 7.1 6.2 8 0 16.5-8.2 23.8-15.3 2.6-2.5 8.5-8.5 16.9-17.5-.6 2.7-1.5 7-1.8 9.2-2.9 16.2-7.3 21.2-12.8 21.2-4.8 0-3.6-5.2-7.2-5.2-1.4 0-2.5 1.2-2.5 2.6 0 2.8 3.3 5.2 9 5.2 10.9 0 18.6-6.7 24.7-12.2 3.1-2.7 6.1-5.5 9.5-8.5-2.1 3.6-3.8 7.6-3.8 12 0 4.9 3.2 8.5 10.1 8.5 13.3 0 23.5-12.3 29-19.4 7.5-9.7 13.4-17 16.8-17 .8 0 1.2.4 1.2 1.2 0 1.5-1.1 3.3-3.1 6.8-6.4 11.2-15.7 25-17.1 27.4l10.9-.4c5.1-8.2 18.9-26.3 25.8-32.2-1.8 2.5-2.8 5.4-2.8 7.7 0 4.1 2.6 6.6 7.9 6.6 2.7 0 4.9-.6 6.9-1.7l-.9-2.1c-1.4.7-2.5 1.1-3.9 1.1-2.4 0-3.1-1.7-3.1-3.5 0-4.3 4-9.7 8.2-11 0-2-1.9-3.4-4.9-3.4-4.1 0-9.8 3.2-21.4 18.2 3.5-6.4 5.2-9.4 5.2-13.1 0-2.8-1.9-5-5.9-5-7.5 0-12.3 6.7-22.1 19.2-6.2 7.9-14.4 16.2-22.4 16.2-2.8 0-4.2-1.4-4.2-3.8 0-3 1.4-6.6 2.5-8.5 10.3-1.1 25-9.4 25-18.4 0-3.8-2.6-5.4-6.9-5.4-5.3 0-11.8 2.5-18.7 9-6.7 6.3-18 16.9-23.6 21.4 2.7-4 3.4-7.9 3.4-12.5 0-4.5-.5-7.9-.5-12.3 0-.5 0-1.4.2-1.9 2.2-.4 4.1-2 4.1-4.4 0-1.8-1.2-3.2-3.4-3.2-2.7 0-5.1 2-6.2 6.6-3.3 3.7-8.7 9.3-13.6 14.2-11.6 11.8-19.5 18.9-23.8 18.9-1.1 0-1.8-.5-1.8-1.8 0-2.4 3.4-8.3 6.3-13 0 0 3-4.8 12.1-19.3l-10.9.6c-.8 1.4-3.8 5.4-4.4 6.2-7.6 10-21.7 27.5-33.2 27.5-3.6 0-4.7-1.8-4.7-4.3 0-2.7 1.3-5.6 2.4-8.1 14.4-2 25.1-11.6 25.1-18.5 0-3.6-2.2-5.4-6.9-5.4-13.1 0-23.5 13-27.7 21.1-2.8-.8-5.1-2.4-6.3-5.1 4-6.7 6.3-12.5 6.3-14.5 0-1.1-1.3-1.9-3-1.9-2.2 0-3.5 1.1-4.3 2.3-1.7 2.4-2.8 7-2.6 12.2-2.6 7.6-13.7 21.9-21.6 21.9-1.5 0-2-.7-2-1.9 0-2.4 2.8-7.8 7.9-16.1.7-1.1 6.8-11.2 9.8-16.1l-10.8.6c-2.6 3.9-4.7 7.4-7.4 11.2-11.4 16.1-19.2 22.3-23.3 22.3-1.2 0-1.8-.6-1.8-1.6s.6-2.4 1.7-4.4c3.5-6.5 11.9-19 18-28.1l-10.9.5c-1.2 1.9-4.9 6.9-6.2 8.6-15.3 19.3-22.7 24.8-26.4 24.8-1.3 0-1.8-.8-1.8-1.9 0-3.1 3.4-9 10.2-20.5l26.3-43.2 2.8 3.5s-.7 1.2-1.9 3.1l289.9-56.4-62.7 97 2.8 1.8 1.5 3.4c-1.9 1.1-5.1 2.7-9 2.7h-.5l-50.9 78.8-222.7-44.2-226.6 35.9 59.7-92c-7.5-1.5-13.9-5.7-14.7-14.1l-.2.5zm63.4-21.3l13-.6c-1.2 1.7-3.4 4.6-5.9 8.1 2.3 1.1 4.7 2.3 7 3.6 8-10.2 15.5-14.8 25.2-14.8 10.5 0 14.5 6 14.5 12.1 0 5.6-3.3 11.9-7.1 15.8-5.2 5.2-12.3 7.6-18.1 8.9 3.2 1.7 9 4.3 9 13.5 0 7.8-4.2 14.9-9.2 20.4 9.5-5.5 23.4-18.6 29.5-26.1 1.4-1.7 3.9-5.2 5.2-7.1l11.3-.7s-14.5 21.9-17.6 27.2c-1.7 3-2.2 4.4-2.2 5.4 0 .7.4 1.4 1.7 1.4 4.4 0 12.7-7.4 18.6-15 2.7-3.5 12.4-18.2 12.4-18.2l11.5-.7c-9.3 14.3-12.4 19.1-12.4 19.1-3 4.9-5.5 9.2-6.2 11.5-.2.7-.3 1.3-.3 1.8 0 1.1.5 1.7 1.7 1.7 6.7 0 18.7-15.8 22.5-20.6 7-8.8 15.5-15 24.7-15 4.2 0 6.9 1.6 8.2 4.3 3.6-6 10.5-17.3 15.1-24.9l-142.7-54.8-5.5-2.1-3.2 4.9-25.3 38.9c8.8.9 16 3.1 22 5.3 1-1.2 1.8-2.2 2.6-3.3m8.2 44.3v2.9c-13.9.2-22.5 9.6-22.5 19.3 0 5.2 2.8 8.8 10.3 8.8 17.5 0 29.4-18.7 29.4-31 0-5.6-2-10.5-10.8-10.5h-4.2c-1.4 0-2.6.1-3.2.2l2.6-3.9c7.5 0 13.5-.2 17.8-2.2 9.5-4.5 14.5-15.1 14.5-20.7 0-3.8-1.5-6.8-6.4-6.8-7.4 0-14 7.1-18.2 12.5 3.7 2.2 6.2 4.1 8.1 5.5l-1.7 2.3c-2.3-1.8-5.1-3.7-8.1-5.5-4.6 6.2-15.1 22.4-22.4 33.1 4.6-3 10.8-4 14.8-4m238.6-8.2c0-1.1-.6-1.8-1.8-1.8-5.1 0-11.9 9.1-17 18.4 8.6-1.4 18.8-9.7 18.8-16.6m98.2 0c0-1.1-.5-1.9-1.7-1.9-4.4 0-10.6 6.7-17 18.4 8.6-1.3 18.7-10.1 18.7-16.5m-236.1 31.1c2.2 0 5.7-1.6 10.8-7.3 4.8-5.3 10.3-12.4 14.4-19.5.4-.6.6-1.5.6-2.1 0-2.2-1.4-3.4-3.9-3.4-4.3 0-8.5 2.9-14.3 10.2-5 6.3-10.1 15.7-10.1 19.7 0 1.2.3 2.4 2.5 2.4m-142-.1c2.3-3.9 36-53.4 38.6-57 2.4 1.1 4.7 2.2 7 3.4-5.5 7.4-13.4 19.9-21.3 31.6-8.9 13-15.3 22.2-20.4 26.5-2 1.7-3.4 2.6-4.7 2.6-1.1 0-1.5-.7-1.5-1.4-.1-1 .3-2.4 2.3-5.7"/><path id="path2645" class="st0" d="M-1434.9 170.1l2.6-3.9c7.5 0 13.5-.2 17.8-2.2 9.5-4.5 14.5-15.1 14.5-20.7 0-3.8-1.5-6.8-6.4-6.8-7.4 0-13.9 7.1-18.2 12.5 3.7 2.2 6.2 4.1 8.1 5.5l-1.7 2.3c-2.3-1.8-5.1-3.7-8.1-5.5-4.6 6.2-15.1 22.4-22.4 33.1 4.8-3.2 10.9-4.2 14.9-4.2v2.9c-13.9.2-22.6 9.6-22.6 19.3 0 5.2 2.8 8.8 10.3 8.8 17.5 0 29.4-18.7 29.4-31 0-5.6-2-10.5-10.8-10.5h-4.2c-1.4.1-2.5.2-3.2.4m-16 11c8-11.6 15.9-24.1 21.3-31.6-2.3-1.2-4.6-2.4-7-3.4-2.6 3.7-36.2 53.1-38.6 57-2 3.3-2.4 4.7-2.4 5.6 0 .8.4 1.4 1.5 1.4 1.3 0 2.7-.9 4.7-2.6 5.1-4.3 11.6-13.4 20.5-26.4m-2.6-29.3s7-9.7 7.1-9.8c-6.6-2.5-16.4-5.2-28.2-5.2-16.5 0-26.5 6.7-26.5 16.2 0 7.3 6.4 11.8 17.7 11.8 16.8-.2 26.4-9 29.9-13m109.4 42.7c-6.2 6.7-13.7 13.7-21.5 13.7-4.4 0-6.3-2.5-6.3-5.5 0-2.1.9-4.5 2.5-7.7l-2.5 2.6c-5.4 5.6-12.3 10.6-18.6 10.6-4.1 0-6.7-2.2-6.7-5.9 0-2.9 2-7.7 7.1-14.7l-3.3 3.2c-15.9 15.1-32.1 24.3-49.5 24.3-12.8 0-16.9-5.7-16.9-12.4 0-1.4.3-3 .3-3l-2.2 2.9c-6.3 8-11.3 12.5-17.5 12.5-5.1 0-9.6-2.5-9.6-7.1 0-2.7 1.5-5.5 3.6-9.1 4.4-7.2 16.3-24.9 25.3-37.8-5.8 3.6-13.8 6.6-24 6.6-14.8 0-22.2-6-22.2-14.9 0-11.5 11.8-19.1 31-19.1 12.7 0 22.8 2.8 30.6 5.7.9-1.3 1.7-2.4 2.6-3.4l13-.6c-1.2 1.7-3.4 4.6-5.9 8.1 2.4 1.1 4.7 2.3 7 3.6 8-10.2 15.5-14.8 25.2-14.8 10.5 0 14.5 6 14.5 12.1 0 5.6-3.3 11.9-7.1 15.8-5.2 5.2-12.3 7.6-18.1 8.9 3.2 1.7 9 4.3 9 13.6 0 7.8-4.2 14.9-9.2 20.4 9.5-5.5 23.4-18.6 29.5-26.1 1.4-1.7 3.9-5.2 5.2-7.1l11.3-.7s-14.5 21.9-17.6 27.2c-1.8 3-2.2 4.4-2.2 5.4 0 .7.4 1.4 1.7 1.4 4.4 0 12.7-7.4 18.5-15 2.7-3.5 12.4-18.2 12.4-18.2l11.5-.7c-9.3 14.3-12.4 19.1-12.4 19.1-3 4.9-5.5 9.2-6.2 11.5-.2.7-.3 1.3-.3 1.8 0 1.1.5 1.7 1.7 1.7 6.7 0 18.7-15.8 22.5-20.6 7-8.8 15.5-15 24.7-15 4.2 0 6.9 1.6 8.2 4.3 5.8-9.5 19.7-32.6 19.7-32.6l12.1-1.7c-8.6 14-25 41-26.3 43.2-6.8 11.5-10.2 17.4-10.2 20.5 0 1.1.5 1.9 1.8 1.9 3.7 0 11.1-5.6 26.4-24.8 1.4-1.8 5-6.8 6.2-8.6l10.9-.5c-6.1 9.1-14.5 21.5-18 28.1-1.1 2-1.7 3.4-1.7 4.4 0 1.1.6 1.6 1.8 1.6 4.2 0 11.9-6.3 23.3-22.3 2.7-3.8 4.9-7.3 7.4-11.2l10.8-.6c-3.1 4.9-9.2 15-9.8 16.1-5.1 8.3-7.9 13.8-7.9 16.1 0 1.2.6 1.9 2.1 1.9 7.9 0 18.9-14.3 21.6-21.9-.2-5.1 1-9.7 2.6-12.2.8-1.2 2.1-2.3 4.3-2.3 1.7 0 3 .8 3 1.9 0 2-2.3 7.8-6.3 14.5 1.2 2.7 3.5 4.3 6.3 5.1 4.2-8.2 14.6-21.1 27.7-21.1 4.7 0 6.9 1.7 6.9 5.3 0 6.9-10.6 16.5-25.1 18.5-1.2 2.4-2.4 5.4-2.4 8 0 2.5 1.1 4.3 4.7 4.3 11.6 0 25.6-17.5 33.2-27.5.6-.8 3.6-4.8 4.4-6.2l10.9-.6c-9.2 14.5-12.1 19.4-12.1 19.4-3 4.7-6.3 10.7-6.3 13 0 1.3.7 1.8 1.8 1.8 4.3 0 12.3-7.1 23.8-18.9 4.8-4.9 10.2-10.6 13.6-14.2 1.1-4.6 3.5-6.6 6.2-6.6 2.2 0 3.4 1.4 3.4 3.2 0 2.4-1.9 4-4.1 4.4 0 .5-.2 1.4-.2 1.9 0 4.4.5 7.8.5 12.3 0 4.6-.7 8.5-3.4 12.5 5.6-4.5 16.9-15.1 23.6-21.4 6.9-6.5 13.5-9 18.7-9 4.4 0 6.9 1.6 6.9 5.3 0 9-14.7 17.3-25 18.5-1.1 2-2.5 5.5-2.5 8.5 0 2.4 1.4 3.8 4.2 3.8 8 0 16.2-8.3 22.4-16.2 9.9-12.5 14.6-19.2 22.1-19.2 4 0 5.9 2.1 5.9 5 0 3.6-1.8 6.7-5.2 13.1 11.7-14.9 17.3-18.2 21.4-18.2 3 0 4.9 1.5 4.9 3.4-4.1 1.3-8.2 6.7-8.2 11 0 1.9.7 3.5 3.2 3.5 1.4 0 2.5-.4 3.9-1.1l.9 2.1c-2.1 1.1-4.2 1.7-6.9 1.7-5.2 0-7.8-2.5-7.8-6.6 0-2.3 1-5.2 2.8-7.7-6.9 5.9-20.7 24-25.8 32.2l-10.9.4c1.5-2.5 10.7-16.2 17.1-27.4 2-3.5 3.1-5.3 3.1-6.8 0-.8-.5-1.2-1.2-1.2-3.5 0-9.3 7.3-16.8 17-5.5 7.1-15.7 19.4-29 19.4-6.9 0-10.1-3.7-10.1-8.5 0-4.4 1.8-8.4 3.8-12-3.4 3-6.4 5.8-9.5 8.6-6.1 5.5-13.9 12.2-24.7 12.2-5.7 0-9-2.4-9-5.2 0-1.5 1.1-2.7 2.5-2.7 3.6 0 2.4 5.2 7.2 5.2 5.4 0 9.9-5 12.8-21.2.4-2.2 1.3-6.5 1.8-9.2-8.4 9-14.3 15-16.9 17.5-7.4 7.1-15.8 15.3-23.8 15.3-4.6 0-7.1-2.3-7.1-6.2 0-2.6 1-5.8 4.2-11.2-6.3 6.7-16.5 17.3-28.8 17.3-7.2 0-10.6-3.6-10.6-8.9 0-2.4.7-5.4 1.9-8-2.8-.9-5.2-2.4-6.7-4.9-3.3 5-7.3 10.3-12.7 15.1-5.8 5.2-11 6.8-15.1 6.8-4.6 0-7.3-2.1-7.3-6.1 0-3 1.5-5.9 2.9-8.7-5.9 7.4-13.6 14.9-21.9 14.9-3.7 0-6.7-1.8-6.7-5.9 0-2.9 1.6-5.8 4.1-9.9-5.1 5.7-13.7 15.8-23.2 15.8-4.4 0-6.7-2.3-6.7-6 0-3.1 1.4-6.2 2.6-8.7-1.2 1.5-2.5 3-3.4 3.9-6.8 7.6-12.6 10.8-18.5 10.8-4.5 0-7.3-2.5-7.3-6.7-.2-2.4.7-5 1.7-7.2m36.1-18c.4-.6.5-1.5.5-2.1 0-2.2-1.4-3.4-3.9-3.4-4.3 0-8.5 2.9-14.3 10.2-5 6.3-10.1 15.7-10.1 19.7 0 1 .3 2.3 2.5 2.3s5.7-1.6 10.8-7.3c4.9-5.3 10.4-12.4 14.5-19.4m93.9 12.2c8.6-1.4 18.8-9.7 18.8-16.6 0-1.1-.6-1.9-1.8-1.9-5.2.1-11.9 9.2-17 18.5m98.3 0c8.6-1.4 18.7-10.2 18.7-16.5 0-1.1-.5-1.9-1.7-1.9-4.5 0-10.7 6.7-17 18.4m-48.7-34.5c0-3.3 2.6-7.2 6.8-7.2 2.4 0 4.4 1.6 4.4 4.6 0 3.5-2.9 7-6.6 7-3.1.1-4.6-1.7-4.6-4.4"/></g></svg>