<svg xmlns="http://www.w3.org/2000/svg" viewBox="0 0 864 328.61"><title>ZeroHero_Illustrations_FINAL_ARTWORK_STROKES_JW_WEBSITE2</title><path d="M651.62 205.08v19.2h-45.7v-21.75a53.56 53.56 0 1 1 45.7 0zM443.09 123.2v22h-52.46v-25a61.5 61.5 0 1 1 52.47 0zM244.14 283.29V300h-39.78v-18.93a46.65 46.65 0 1 1 39.79 0z" fill="#ffd500" stroke="#000" stroke-miterlimit="10" stroke-width="6.3"/><path d="M0 325.46h206.17A10.49 10.49 0 0 0 216.66 315l.14-64.09a9.5 9.5 0 1 0-9.5 9.5h34.16a9.5 9.5 0 1 0-9.5-9.5v64.1a10.48 10.48 0 0 0 10.48 10.48l157.05-.63a8.63 8.63 0 0 0 8.58-8.63l.8-118.47c-8.27 19.81-44 27.13-64 19.35-44.8-17.42-49.4-63.37-49.4-63.37.73.06 66.74-2 83.91 1 16.43 2.83 27.93 17.57 29.53 22.62l.33-91.69a9.83 9.83 0 1 0-9.83 9.83h35.29a9.84 9.84 0 1 0-9.83-9.83l-.17 121a57 57 0 0 1 33.14-36.77 123 123 0 0 1 26-8.62 235 235 0 0 1 53.8-5.41l1.36.08c-.14.29-.29.57-.42.87-6.5 15.29-13.39 29.92-22.78 43.64-6.84 10-12.73 16.75-22.14 24.49a64.72 64.72 0 0 1-21 11.76c-20.19 6.79-38.56.69-48.51-9.85v89.34a8.64 8.64 0 0 0 8.57 8.64l178 .62A10.49 10.49 0 0 0 621.18 315v-40.84a16.57 16.57 0 0 1-11.75 4.34c-23.45 0-26.28-23.64-26.28-23.64h29.46a11.79 11.79 0 0 1 8.59 3.71l.08-87a9.5 9.5 0 1 0-9.5 9.5H646a9.5 9.5 0 1 0-9.5-9.5V274.4c.17-.2.34-.4.53-.59 11.55-11.55 36.55-17.33 36.55-17.33s-2.29 25.81-17.33 36.55c-6.1 4.36-13.91 5.3-19.22 0-.19-.2-.36-.4-.54-.6V315a10.48 10.48 0 0 0 10.48 10.48H864" fill="none" stroke="#000" stroke-linejoin="round" stroke-width="6.3"/></svg>