<?xml version="1.0" encoding="utf-8"?>
<!-- Generator: Adobe Illustrator 24.0.0, SVG Export Plug-In . SVG Version: 6.00 Build 0)  -->
<svg version="1.1" id="图层_1" xmlns="http://www.w3.org/2000/svg" xmlns:xlink="http://www.w3.org/1999/xlink" x="0px" y="0px"
	 viewBox="0 0 864 328.6" style="enable-background:new 0 0 864 328.6;" xml:space="preserve">
<style type="text/css">
	.st0{fill:#FFD500;stroke:#000000;stroke-width:6.3;stroke-miterlimit:10;}
	.st1{fill:none;stroke:#000000;stroke-width:6.3;stroke-linejoin:round;}
</style>
<title>ZeroHero_Illustrations_FINAL_ARTWORK_STROKES_JW_WEBSITE2</title>
<path id="XMLID_2_" class="st0" d="M651.6,205.1v19.2h-45.7v-21.8c-26.8-12.6-38.2-44.5-25.6-71.3c12.6-26.8,44.5-38.2,71.3-25.6
	s38.2,44.5,25.6,71.3c-5.3,11.2-14.3,20.3-25.6,25.6V205.1z M443.1,123.2v22h-52.5v-25c-30.7-14.5-43.9-51.1-29.4-81.9
	C375.7,7.6,412.4-5.5,443.1,9s43.9,51.1,29.4,81.9c-6.1,12.9-16.5,23.3-29.4,29.4L443.1,123.2z M244.1,283.3V300h-39.8v-18.9
	c-23.3-11-33.3-38.8-22.3-62.1s38.8-33.3,62.1-22.3s33.3,38.8,22.3,62.1c-4.6,9.8-12.5,17.7-22.3,22.3L244.1,283.3z"/>
<path id="XMLID_1_" class="st1" d="M0,325.5h206.2c5.8,0,10.5-4.7,10.5-10.5l0.1-64.1c0-5.3-4.4-9.6-9.8-9.5c-5,0.1-9.1,4.3-9.2,9.2
	c-0.1,5.4,4.2,9.8,9.5,9.8l0,0h33.8c5.1,0,9.5-3.8,9.8-8.9c0.4-5.5-4-10.1-9.5-10.1c-5.2,0-9.5,4.3-9.5,9.5l0,0V315
	c0,5.8,4.7,10.5,10.5,10.5l0,0l157-0.6c4.7,0,8.6-3.9,8.6-8.6l0.8-118.5c-8.3,19.8-44,27.1-64,19.4c-41.3-16.1-48.4-56.3-49.3-62.6
	c-0.1-0.4,0.3-0.8,0.7-0.8c7.6-0.2,67-1.8,83.1,1c16.4,2.8,27.9,17.6,29.5,22.6l0.3-91.7c0-5.5-4.6-10-10.1-9.8
	c-5.1,0.1-9.4,4.4-9.5,9.5c-0.2,5.6,4.3,10.1,9.8,10.1l0,0h35.3c5.5,0,10-4.5,9.8-10.1c-0.1-5.1-4.4-9.4-9.5-9.6
	c-5.6-0.2-10.1,4.3-10.1,9.8c0,0,0,0,0,0l-0.2,121c4.9-16.7,17.1-30.2,33.1-36.8c8.3-3.8,17-6.7,26-8.6c17.7-3.9,35.7-5.7,53.8-5.4
	l1.4,0.1c-0.1,0.3-0.3,0.6-0.4,0.9c-6.5,15.3-13.4,29.9-22.8,43.6c-6.8,10-12.7,16.8-22.1,24.5c-6.2,5.2-13.3,9.2-21,11.8
	c-20.2,6.8-38.6,0.7-48.5-9.9v89.3c0,4.7,3.8,8.6,8.6,8.6l178,0.6c5.8,0,10.4-4.7,10.5-10.5v-40.8c-3.2,2.9-7.4,4.5-11.8,4.3
	c-23.5,0-26.3-23.6-26.3-23.6h29.5c3.3,0,6.4,1.3,8.6,3.7l0.1-87c0-5.3-4.4-9.6-9.8-9.5c-5,0.1-9.1,4.3-9.2,9.2
	c-0.1,5.4,4.2,9.8,9.5,9.8h33.9c5,0,9.4-3.8,9.8-8.8c0.4-5.8-4.4-10.6-10.2-10.2c-5,0.3-8.8,4.7-8.8,9.8v102.5
	c0.2-0.2,0.3-0.4,0.5-0.6c11.5-11.5,36.5-17.3,36.5-17.3s-2.3,25.8-17.3,36.5c-6.1,4.4-13.9,5.3-19.2,0c-0.2-0.2-0.4-0.4-0.5-0.6
	V315c0,5.8,4.7,10.5,10.5,10.5h217"/>
</svg>
