<svg xmlns="http://www.w3.org/2000/svg" viewBox="0 0 473.5 180.6"><path d="M57.4 180.6c-2.9 0-5.7-.3-8.6-.8-13.6-2.5-24.5-9.7-31.7-20.8-9.3-14.4-12.2-35.1-8.8-60.8-1.9-.5-3.7-1.4-5.2-2.9C-1.1 91-1 84.2 3.2 80c4.2-4.1 8-8 11.5-11.8C27.8 24.3 52 3.4 53.1 2.5c2.5-2.1 5.8-3 9-2.3 3.2.6 5.9 2.6 7.5 5.5 9.6 18-16.5 52-35.4 73.1-.2.7-.4 1.4-.6 2.2-1.2 5-2.3 9.9-3 14.5 5.7-10.9 17.3-26.9 37.6-30.4 6.5-1.2 12.8-1 18.7.3 8.9-2.7 18.6-4.5 28.8-4.5 29.9 0 44.8 4.3 48.1 13.9.8 2.4.8 5-.1 7.4-6.2 16.2-25.1 65.4-8.1 74.9 3.4 1.9 7 2.1 11.3.8 12.7-3.9 26.6-19.8 34.4-32.4 0-1.3.1-2.4.2-3.4.7-13.1 7.9-42.5 17.6-51.1 5.3-4.7 11.4-3.9 15.2-1 6.6 5.1 5.7 13.7 1.3 28.8-3 10.6-7.3 21.8-11.4 30-.4.9-.9 1.8-1.4 2.7.2 16.5 4.2 23.1 14.1 24.4 8.1 1.1 19.5-7.6 30.9-21.2-2.1-14.5-1.2-33.9 5.5-59.4 9.8-36.4 30.4-75 49.4-75 4.9 0 9.2 2.4 12.1 6.6 10 14.9-2.3 54.9-11.1 76.2-6.8 16-18.4 38.2-32.5 57 2.8 8.9 6.9 13.3 9.1 15 5.1 4.2 11.5 4.9 17.4 2 10.7-5.7 25.3-17.3 38.9-31.6-2.5-16.9-.9-34.9 3-49.4.2-.8 21-75.9 49.4-75.9 4.7 0 8.9 2.2 11.7 6 2.5 3.4 9.9 13.7-6.8 66.6 5.6-3.2 12.4-5.4 20.4-5.4 13.2 0 24.2 5.2 31.2 14.7 8.8 11.9 10.4 29.7 4.4 48.9-8.1 26.1-34 51.7-63.5 49.1-15.6-1.3-28.6-8.7-37.5-21.4-2.1-3-4-6.3-5.5-9.7-12.7 12.1-25.6 21.7-35.8 27.2-13.7 6.8-29.3 5-40.9-4.5-3.6-2.9-7.7-7.3-11.2-13.6-13 12.7-27.2 20.8-41.3 18.9-16-2.1-24.4-11.1-28.6-21.6-9.2 10.2-20.4 19.2-32.3 22.9-9.9 3-19.7 2.1-28.2-2.6-29.7-16.6-15.8-63-5.1-91.9-4.5-.8-12.1-1.6-24.2-1.6-1.5 0-3 .1-4.5.1 6.6 10.7 8.6 24.9 5.5 41-3.5 19.4-14.2 36.7-29.3 47.2-9.5 6.8-19.8 10.1-30.1 10.1zm-28.9-64.3c-.2 13.2 2 23.8 6.7 31 4 6.2 9.7 9.9 17.5 11.3 9.3 1.7 17.3-2 22.3-5.5 10.3-7.1 17.9-19.6 20.4-33.4 2.5-12.9.7-23-5-28.8-1-1.1-2.2-2-3.5-2.7-24.8 9.6-42.3 27.9-42.5 28.1-3.4 3.7-9 4.4-13.3 1.9-1-.4-1.8-1.1-2.6-1.9zm351.3 15.6c1.5 5.4 3.7 10.4 6.7 14.6 5.3 7.5 12.3 11.5 21.6 12.3 17.9 1.5 35.6-16.4 41.1-34 3.9-12.4 3.4-23.4-1.1-29.7-2.9-3.9-7.5-5.9-13.8-5.9-15.1 0-23 17.6-23 17.8-2.4 5.4-8.7 8-14.2 5.6-.6-.3-1.2-.6-1.7-.9-4.8 7-10 13.8-15.6 20.2zM316.5 30.2c-6.8 9.6-15.9 26.8-22.3 50.7-2.2 8.2-3.6 15.6-4.5 22.2 5.3-9.1 10.1-18.8 14.1-28.2 7.8-18.9 11.5-34.6 12.7-44.7zm85.6.8c-6.7 10.2-15.5 28.1-21.7 50.8-1.5 5.5-2.6 11.7-3.1 18.1 6-9 11-18.4 14.1-27.7 6-18.2 9.2-31.9 10.7-41.2z"/></svg>