<svg xmlns="http://www.w3.org/2000/svg" viewBox="0 0 627.8 241.4"><path d="M102 241.4c-61 0-102-48.5-102-120.7S41 0 102 0s102 48.5 102 120.7-41.1 120.7-102 120.7zm0-206.5c-41.3 0-67 32.9-67 85.8s25.7 85.8 67 85.8 67-32.9 67-85.8-25.7-85.8-67-85.8z"/><ellipse cx="102.1" cy="120.7" rx="31.1" ry="40.8"/><path d="M256.8 143.9c-4.5 7.1-9.6 10.5-18 10.5-11.8 0-20.3-8.1-20.3-20.3s8.9-20.3 20.5-20.3c8.6 0 14.8 4.3 17.5 10.3l-7.5 5.2c-2.1-4.5-5.6-7.1-10.2-7.1-6.1 0-11.2 4.6-11.2 11.9 0 7.1 5.1 11.9 11.3 11.9 5 0 8.1-2.7 10.7-7.4l7.2 5.3zm31.2 9.8h-8.4v-14.8c0-3.5-1.8-5.7-5.2-5.7-3.5 0-6 2.8-6 7.2v13.3H260v-39h8.4v15.2c2.2-2.8 5.2-4.6 9.5-4.6 6 0 10 3.7 10 9.6v18.8h.1zm22 0c-.7-.7-1.2-2-1.3-3.6-1.7 2.5-4.6 4.3-8.5 4.3-6.2 0-9.8-3.7-9.8-8.9 0-5.6 4.8-8.2 10.8-9.1l7-1.1v-.5c0-2.5-1.2-4-4.3-4-2.5 0-4.2.9-4.2 2.5 0 .2 0 .3.1.5l-7.6 2.6c-.3-.9-.4-1.8-.4-2.7 0-5.1 5.4-8.5 12.2-8.5 8.8 0 12.7 3.7 12.7 10.5v11.1c0 3.2.5 4.9 1.8 6.9H310zm-1.8-12.5v-.5l-5.9 1c-2.1.3-3.8 1.4-3.8 3.3 0 1.5 1.2 2.9 3.3 2.9 4 .1 6.4-3.3 6.4-6.7zm12.5-15.2h8.4v3.2c2-2.3 5-4 9.1-4 6.2 0 12.7 4.9 12.7 14.6s-6.7 14.6-12.9 14.6c-4.1 0-6.9-1.4-9-3.7V165h-8.4l.1-39zm7.9 13.8c0 4.2 3.2 6.9 6.9 6.9s6.9-2.7 6.9-6.9-3.2-6.9-6.9-6.9-6.9 2.7-6.9 6.9zm22.1-13.8h4v-7.5h8.4v7.5h5.7v6.5h-5.7v10.9c0 2.2 1.2 3.6 3.1 3.6 1.1 0 1.9-.2 2.6-.4l.8 7c-1.4.6-3.1.9-5.6.9-4.5 0-9.3-2.3-9.3-9.4v-12.6h-4V126zm26.8 15.9c.4 3.5 3.3 5.4 6.6 5.4 3.2 0 5.2-1.3 7-4.3l6 3.4c-2.5 5-6.4 8.1-13.4 8.1-7.5 0-14.2-5.9-14.2-14.6s6.4-14.6 14.8-14.6c8.3 0 13.6 6.1 13.6 13.8v2.8h-20.4zm.4-5.8h12.6c-.7-2.8-3.1-4.3-6.2-4.3-3.1-.1-5.5 1.6-6.4 4.3zm40.1-2.6c-.8-.2-1.4-.3-2.3-.3-4.2 0-6.6 3.2-6.6 8v12.5h-8.4V126h8.4v3.5c1.7-2.8 4.3-4.3 7.7-4.3.9 0 1.9.2 2.6.4l-1.4 7.9zm-199.2 26.8h29.4v7.9L229 191.4h20.3v7.9H218v-7.8l19.5-23.3h-18.6v-7.9h-.1z"/><path d="M257 187.5c.4 3.5 3.3 5.4 6.6 5.4 3.2 0 5.2-1.3 7-4.3l6 3.4c-2.5 5-6.4 8.1-13.4 8.1-7.5 0-14.2-5.9-14.2-14.6s6.4-14.6 14.8-14.6c8.3 0 13.6 6.1 13.6 13.8v2.8H257zm.3-5.8h12.6c-.7-2.8-3.1-4.3-6.2-4.3-3.1-.1-5.4 1.6-6.4 4.3zm40.2-2.6c-.8-.2-1.4-.3-2.3-.3-4.2 0-6.6 3.2-6.6 8v12.5h-8.4v-27.7h8.4v3.5c1.7-2.8 4.3-4.3 7.7-4.3.9 0 1.9.2 2.6.4l-1.4 7.9zm15.7 21c-7.8 0-15.3-4.9-15.3-14.6 0-9.8 7.5-14.6 15.3-14.6s15.3 4.9 15.3 14.6c.1 9.7-7.4 14.6-15.3 14.6zm6.9-14.6c0-4.2-3.3-6.7-6.9-6.7s-6.9 2.5-6.9 6.7 3.3 6.7 6.9 6.7c3.6 0 6.9-2.5 6.9-6.7zM216 214h17.9v2.5h-7.5V238h-2.9v-21.5H216V214zm34.4 24.1h-2.7v-11c0-2.7-1.8-4.1-4.2-4.1-2.6 0-5.1 2.2-5.1 5.7v9.5h-2.7v-24.1h2.7v10c1.1-2.1 3.4-3.5 5.8-3.5 3.2 0 6.1 1.9 6.1 6v11.5h.1zm5-8.1c.2 3.6 2.3 6.3 5.9 6.3 3.1 0 4.6-1.7 5.7-3.9l2 1.2c-1.6 3.1-4 5-7.8 5-4.6 0-8.5-3.7-8.5-9s3.8-9 8.6-9c5.1 0 8.2 3.5 8.2 8.5v.9h-14.1zm.2-2.2h11.2c-.2-3.2-2.9-5-5.5-5-3.1 0-5.1 2.1-5.7 5zm25.1-13.8h6.6c7.1 0 12.2 4.4 12.2 12s-5.1 12-12.2 12h-6.6v-24zm16 12c0-6.5-3.9-9.5-9.5-9.5h-3.6v19h3.6c5.6 0 9.5-2.9 9.5-9.5zm5.8-11.3h3.2v3.4h-3.2v-3.4zm.3 6.3h2.7v17h-2.7v-17zm14.9 2.2c-.4-.1-.8-.2-1.3-.2-2.3 0-4.3 2.2-4.3 5.7v9.3h-2.7v-17h2.7v3.1c.9-2 2.5-3.6 4.9-3.6.3 0 .8.1 1.2.2l-.5 2.5zm2.9 6.8c.2 3.6 2.3 6.3 5.9 6.3 3.1 0 4.6-1.7 5.7-3.9l2 1.2c-1.6 3.1-4 5-7.8 5-4.6 0-8.5-3.7-8.5-9s3.8-9 8.6-9c5.1 0 8.2 3.5 8.2 8.5v.9h-14.1zm.2-2.2H332c-.2-3.2-2.9-5-5.5-5-3.1 0-5.1 2.1-5.7 5zm31.7 5.8c-1.6 3.1-4.2 4.9-7.7 4.9-4.9 0-8.7-3.7-8.7-9s4-9 8.7-9c3.7 0 6.4 1.8 7.6 4.7l-2 1.3c-1.3-2.7-3.3-3.6-5.5-3.6-3.4 0-6.1 2.5-6.1 6.6s2.6 6.6 6.1 6.6c2.9 0 4.5-1.4 5.7-3.7l1.9 1.2zm.6-12.6h2.9v-4.6h2.7v4.6h3.9v2.1h-3.9v10.3c0 1.8.3 2.7 2.3 2.7.4 0 .9-.1 1.3-.2l.2 2.2c-.6.2-1.2.3-2.3.3-2.2 0-4.3-1.1-4.3-4.6V223H353l.1-2zm19.1 17.5c-4.3 0-8.9-3.2-8.9-9s4.6-9 8.9-9 8.9 3.2 8.9 9-4.6 9-8.9 9zm6.2-9c0-3.8-2.7-6.6-6.2-6.6s-6.2 2.8-6.2 6.6 2.7 6.6 6.2 6.6 6.2-2.7 6.2-6.6zm13.8-6.3c-.4-.1-.8-.2-1.3-.2-2.3 0-4.3 2.2-4.3 5.7v9.3h-2.7v-17h2.7v3.1c.9-2 2.5-3.6 4.9-3.6.3 0 .8.1 1.2.2l-.5 2.5zm8.6 4.9c3.6.7 5.7 2.2 5.7 5 0 2.9-2.3 5.5-6.5 5.5-3.7 0-6.2-2.3-7.3-4.9l2.2-1.4c.9 2.3 2.5 4 5 4 2.3 0 3.8-1.1 3.8-3 0-1.7-1.4-2.5-4.4-3.1-3.1-.6-5.7-2.1-5.7-5s2.7-4.6 5.9-4.6c3.5 0 5.6 1.5 6.6 4.1l-2.1 1.2c-.9-2.3-2.6-3.1-4.5-3.1s-3.4.7-3.4 2.2c.2 1.8 2 2.5 4.7 3.1zm7.1-6.8l2.1-3.9h-1.3V214h3.2v3.4l-3.3 4.4-.7-.5zm36 11.1c-1.9 3.6-5 6.2-10.2 6.2-6.7 0-11.6-5.3-11.6-12.5s5.3-12.5 11.8-12.5c4.7 0 8.4 2.4 10 6.2l-2.2 1.6c-1.7-3.6-4.6-5.2-7.9-5.2-4.9 0-8.7 4.3-8.7 10 0 5.6 3.5 10 8.7 10 3.6 0 6-1.5 7.9-5.2l2.2 1.4zm3.2-18.4h2.7v24.1h-2.7V214zm6.3.7h3.2v3.4h-3.2v-3.4zm.3 6.3h2.7v17h-2.7v-17zm29.3 17.1h-2.7v-12c0-1.9-1.1-3.1-3.2-3.1-2.2 0-4.2 1.7-4.2 5.9v9.2h-2.7v-11.7c0-2.2-1.1-3.4-3.1-3.4-2.2 0-4.3 1.8-4.3 6v9.1h-2.7v-17h2.7v2.7c.8-1.6 2.7-3.2 5.1-3.2 2.1 0 4 1 4.6 3.2 1.2-2.1 3-3.2 5.4-3.2 3 0 5.1 1.8 5.1 4.6v12.9zm15.2 0c-.5-.6-1-1.4-1-3.4-1.1 2.5-3.2 3.8-5.8 3.8-3.5 0-5.7-2.2-5.7-5.2 0-3.3 2.6-5.1 5.9-5.6l5.7-.9v-.8c0-2.3-1.5-3.3-4-3.3-2.7 0-4 1.2-4 2.6 0 .2 0 .2.1.5l-2.3.8c-.2-.5-.3-.9-.3-1.4 0-2.6 2.5-4.8 6.6-4.8 4.5 0 6.7 2.1 6.7 5.6v7.7c0 2 .2 2.9 1 4.3l-2.9.1zm-1-8.6v-.5l-5.2.9c-2.4.4-3.6 1.6-3.6 3.3 0 1.8 1.3 2.9 3.3 2.9 3.6 0 5.5-3.2 5.5-6.6zm4.2-8.5h2.9v-4.6h2.7v4.6h3.9v2.1H507v10.3c0 1.8.3 2.7 2.3 2.7.4 0 .9-.1 1.3-.2l.2 2.2c-.6.2-1.2.3-2.3.3-2.2 0-4.3-1.1-4.3-4.6V223h-2.8v-2zm12.9 9c.2 3.6 2.3 6.3 5.9 6.3 3.1 0 4.6-1.7 5.7-3.9l2 1.2c-1.6 3.1-4 5-7.8 5-4.6 0-8.5-3.7-8.5-9s3.8-9 8.6-9c5.1 0 8.2 3.5 8.2 8.5v.9h-14.1zm.2-2.2h11.2c-.2-3.2-2.9-5-5.5-5-3.1 0-5.1 2.1-5.7 5zm25.2-13.8h15.4v2.5h-12.5v8.5h11.5v2.5h-11.5V238h-2.9v-24zm25 24.5c-4.3 0-8.9-3.2-8.9-9s4.6-9 8.9-9c4.3 0 8.9 3.2 8.9 9s-4.6 9-8.9 9zm6.2-9c0-3.8-2.7-6.6-6.2-6.6s-6.2 2.8-6.2 6.6 2.7 6.6 6.2 6.6 6.2-2.7 6.2-6.6zm13.8-6.3c-.4-.1-.8-.2-1.3-.2-2.3 0-4.3 2.2-4.3 5.7v9.3h-2.7v-17h2.7v3.1c.9-2 2.5-3.6 4.9-3.6.3 0 .8.1 1.2.2l-.5 2.5zm2.2-2.2h2.7v11.1c0 2.7 1.7 4 4 4 2.7 0 5-2.2 5-5.6v-9.6h2.7v17h-2.7v-3c-1.1 2.2-3.2 3.5-5.7 3.5-3.1 0-6-1.8-6-6.3V221zm40.9 17.1h-2.7v-12c0-1.9-1.1-3.1-3.2-3.1-2.2 0-4.2 1.7-4.2 5.9v9.2H615v-11.7c0-2.2-1.1-3.4-3.1-3.4-2.2 0-4.3 1.8-4.3 6v9.1h-2.7v-17h2.7v2.7c.8-1.6 2.7-3.2 5.1-3.2 2.1 0 4 1 4.6 3.2 1.2-2.1 3-3.2 5.4-3.2 3 0 5.1 1.8 5.1 4.6v12.9z"/></svg>