<svg xmlns="http://www.w3.org/2000/svg" viewBox="0 0 545 132.4"><path d="M30.2 129.9H0V1.6h31.9C74.7 1.6 99 30.9 99 65.3c.8 36.1-25.2 64.6-68.8 64.6zm1.7-113.2H17.6V114h10.9c36.9 0 52.8-24.3 52.8-48.6 0-26-19.3-48.7-49.4-48.7zm76.3 113.2V1.6h70.4v16.8h-52.8v41.1h31v16.8h-31V114H182v16.8h-73.8v-.9zm140.8 2.5c-31 0-62-26-62-66.2C187 29.3 213 0 249.9 0c22.6 0 36.1 7.5 47 20.1l-12.6 11.7c-8.4-9.2-19.3-14.3-33.5-14.3-24.3 0-45.3 19.3-45.3 48.6 0 33.5 25.2 49.5 44.4 49.5 11.7 0 26-5 36.9-17.6l12.6 10.9c-11 12.6-28.6 23.5-50.4 23.5zm57-2.5V1.6h17.6v129.1H306v-.8zm31.9 0V1.6h70.4v16.8h-52.8v41.1h30.2v16.8h-31V114h56.2v16.8H338v-.9h-.1zm189.5 0V30.2s0 2.5-.8 3.4l-39.4 54.5h-6.7l-40.3-52.9c-.8-.8-1.7-2.5-1.7-2.5v98.1h-17.6V1.6H436l47.8 62.9 46.1-62.9H545v129.1h-17.6v-.8z"/></svg>