<svg xmlns="http://www.w3.org/2000/svg" viewBox="0 0 609 156.6"><title>Layer 1</title><path d="M0 79c0-25.6 18.3-41.4 47.5-41.4h30.3V0h37.9v118H47.4C18.3 118 0 102.9 0 79zm40-1.3c0 9.8 6 15 17.4 15h20.2V62.6H57.5C46.1 62.5 40 67.7 40 77.7zm320.7-.1c0 25.6-18.3 41.4-47.5 41.4h-30.3v37.6H245v-118h68.3c29.1 0 47.4 15.1 47.4 39zm-40 1.3c0-9.8-6-15-17.4-15h-20.2V94h20.1c11.4.1 17.5-5.1 17.5-15.1zM609 77.6c0 25.6-18.3 41.4-47.5 41.4h-30.3v37.6h-37.9v-118h68.3c29.1 0 47.4 15.1 47.4 39zm-40 1.3c0-9.8-6-15-17.4-15h-20.2V94h20.1c11.4.1 17.5-5.1 17.5-15.1zm-197-.6c0-28.7 22.9-44 54.6-44s54.6 15.3 54.6 44-22.9 44.4-54.6 44.4S372 107 372 78.3zm71.9-.4c0-14-7-21-17.6-21s-17.6 7-17.6 21c0 13.8 7 21.3 17.6 21.3 10.7 0 17.6-7.5 17.6-21.3zm-211.6 2c0-28.7-18.4-46-51.8-46-32 0-52.6 17.4-52.6 44.5 0 27.5 20.4 43.9 54.5 43.9 21.4 0 38.7-8 47.8-21l-27.1-9.9c-4.7 5.1-11.8 8-19.2 8-11.2 0-19-4.5-21-12.2-.1-.5-.2-1-.3-1.6h69.9l-.2-5.7zm-69.6-12.2c.9-9.3 7.3-15 18.6-15 11.2 0 17.7 6.1 17.7 15h-36.3z"/></svg>