<svg xmlns="http://www.w3.org/2000/svg" viewBox="0 0 960 243.48"><title>ZeroHero_Illustrations_FINAL_ARTWORK_STROKES_JW_WEBSITE2</title><path d="M0 204.09h177.61c0-111 90-200.94 200.94-200.94s200.94 90 200.94 200.94H960" fill="none" stroke="#000" stroke-linejoin="round" stroke-width="6.3"/><path d="M368.12 239.07l-112.35-35 112.35-35c22.55-6 45.42 10.12 46.37 33.44v3.08c-.95 23.41-23.82 39.49-46.37 33.48z" fill="#ffd500" stroke="#000" stroke-linejoin="round" stroke-width="6.3"/><path fill="none" stroke="#000" stroke-linecap="round" stroke-linejoin="round" stroke-width="6.3" d="M177.61 204.09h41.35M378.55 3.15V44.5M237.49 62l29.24 29.23m271.39 112.86h41.35M519.7 62l-29.24 29.23"/><circle cx="380.19" cy="204.09" r="36.24" fill="#ffd500" stroke="#000" stroke-linejoin="round" stroke-width="6.3"/><path d="M355.28 179.06c.6 3.29 2.71 7.18 6.68 11.15 6.23 6.23 14.18 8 6.23 11.12s-11.41 4.3-9.88 9 16.49-2.53 18 2.07-3.45 9.59-4.79 10.93-.58 4.79 10.54 1.34 13.45-3.15 11.52 3 4.19 7.7 4.19 7.7M391 170.64c-2.3 5.37-5.51 13.86 5.07 13.86s1.76 7.55 1.76 10.46c0 8.3 13.87 6.95 18.14 15.17" fill="none" stroke="#000" stroke-miterlimit="10" stroke-width="6.3"/></svg>