<svg xmlns="http://www.w3.org/2000/svg" viewBox="0 0 960 330.94"><title>ZeroHero_Illustrations_FINAL_ARTWORK_STROKES_JW_WEBSITE2</title><path d="M334.66 134.67a85.67 85.67 0 0 1 133.56 69.81m-30.96 1.22a54.7 54.7 0 1 0-65.72 53.59 55.58 55.58 0 0 0 11 1.11A54.71 54.71 0 0 0 432 229.22" fill="none" stroke="#000" stroke-linecap="round" stroke-linejoin="round" stroke-width="6.3"/><path d="M289.7 90.88L350.63 30a15.71 15.71 0 0 0 0-22.21 15.71 15.71 0 0 0-22.21 0L203.35 132.82a88.33 88.33 0 0 0-25.87 62.45v131.6H0" fill="none" stroke="#000" stroke-miterlimit="10" stroke-width="6.3"/><path d="M350.63 30l13.77-13.81a15.71 15.71 0 0 1 22.21 0 15.71 15.71 0 0 1 0 22.21l-74.7 74.69" fill="none" stroke="#000" stroke-linecap="round" stroke-linejoin="round" stroke-width="6.3"/><path d="M387.06 37.94l10.41-10.41a15.71 15.71 0 0 1 22.21 0 15.71 15.71 0 0 1 0 22.21l-85.56 85.56" fill="none" stroke="#000" stroke-linecap="round" stroke-linejoin="round" stroke-width="6.3"/><circle cx="408.59" cy="38.62" r="15.69" fill="none" stroke="#000" stroke-linecap="round" stroke-linejoin="round" stroke-width="6.3"/><circle cx="375.52" cy="27.28" r="15.69" fill="none" stroke="#000" stroke-linecap="round" stroke-linejoin="round" stroke-width="6.3"/><circle cx="339.54" cy="18.84" r="15.69" fill="none" stroke="#000" stroke-linecap="round" stroke-linejoin="round" stroke-width="6.3"/><circle cx="452.67" cy="205.7" r="15.42" fill="none" stroke="#000" stroke-linecap="round" stroke-linejoin="round" stroke-width="6.3"/><circle cx="445.98" cy="235.84" r="15.42" fill="none" stroke="#000" stroke-linecap="round" stroke-linejoin="round" stroke-width="6.3"/><path fill="#ffd500" d="M549.71 220.42h20.71V330.9h-20.71zm45.66 0h20.75V330.9h-20.75zM513.88 330.9h-23.52l28.9-108.03 20.05 5.37-25.43 102.66zm-75.42 0h-28.73l83.62-87.39 14.99 14.35-69.88 73.04z"/><path d="M459.93 242.54a85.67 85.67 0 0 1-77.37 48.83h-54.69v7.86" fill="none" stroke="#000" stroke-miterlimit="10" stroke-width="6.3"/><path fill="#ffd500" d="M641.01 220.42h20.75V330.9h-20.75zm91.28 0h20.75V330.9h-20.75zm46.75 0h20.75V330.9h-20.75zm46.75 0h20.75V330.9h-20.75zm-139.14 0h20.75V330.9h-20.75z"/><path fill="none" stroke="#000" stroke-miterlimit="10" stroke-width="6.3" d="M327.87 299.23v28.56h84.84l80.64-84.28 14.99 14.35-66.9 69.93h49.75l28.07-104.92 20.05 5.37-24.68 99.55h35.08V220.42h20.75v107.37h24.91V220.42h20.76v107.37h24.88V220.42h20.76v107.37h24.88V220.42h20.76v107.37h24.88V220.42h20.76v107.37h25.99V220.42h20.76v107.37h25.99V220.42h20.76v107.37H960"/><path fill="none" stroke="#000" stroke-linecap="round" stroke-miterlimit="10" stroke-width="6.3" d="M289.7 90.88l60.93-60.92"/></svg>