<svg xmlns="http://www.w3.org/2000/svg" viewBox="0 0 600 56.4"><path d="M0 56.4V0h45.1v11.3H11.3v11.3h22.5v11.3H11.3v11.2h33.9v11.3H0zm94 0L71.4 0h12.1l16.3 40.1 16-40.1h12.1l-22.5 56.4H94zm63.1 0V0h45.1v11.3h-33.9v11.3h22.5v11.3h-22.5v11.2h33.9v11.3h-45.1zm119.7-24.7l8.1 24.7h-11.8l-7.4-22.5H246v22.5h-11.3V0h33.8c4.6 0 8.9 1.7 12.1 4.9 3.2 3.2 5 7.5 4.9 12.1.1 6.1-3.3 11.8-8.7 14.7zM246 22.5h22.5c1.5 0 2.9-.6 4-1.7s1.7-2.5 1.7-4c0-3.2-2.5-5.7-5.7-5.7H246v11.4zm72.9 33.9V0h11.3v45.1h28.2v11.3h-39.5zm107.2-11.3h-23.2l-4.6 11.3h-12.1L408.8 0h11.3l22.6 56.4h-12.1l-4.5-11.3zm-4.6-11.2l-7.1-17.6-7.1 17.6h14.2zM520.8 0v56.4h-11.3l-28.1-37.5v37.5h-11.3V0h11.3l28.2 37.5V0h11.2zm34.1 56.4V0H600v11.3h-33.9v11.3h22.5v11.3h-22.5v11.2H600v11.3h-45.1z"/></svg>