<svg xmlns="http://www.w3.org/2000/svg" viewBox="0 0 960 365.24"><title>ZeroHero_Illustrations_FINAL_ARTWORK_STROKES_JW_WEBSITE2</title><path fill="none" stroke="#000" stroke-miterlimit="10" stroke-width="6.3" d="M300.57 311.91v50.18H0m960 0H403.86v-65.11"/><path d="M430.32 32.83L177.85 279.65c-1.63 1 1 8.08 5.77 15.78s10 13.13 11.65 12.12l95.09-25.5 5.55 21a22.67 22.67 0 0 0 27.73 16.11l75.25-19.93a22.2 22.2 0 0 0 5.4-2.21A22.71 22.71 0 0 0 415 271.46L409.6 251l134.55-35.45" fill="none" stroke="#000" stroke-miterlimit="10" stroke-width="6.3"/><ellipse cx="486.99" cy="124.04" rx="22.74" ry="107.93" transform="rotate(-31.98 486.999 124.032)" fill="#ffd500" stroke="#000" stroke-miterlimit="10" stroke-width="6.3"/><path d="M539.48 57.73c-.74 2.53-1.54 5.05-2.42 7.54-.46 1.31-.95 2.61-1.45 3.91-.24.6-.47 1.21-.72 1.81l-.37.9-.07.17c.15-.36-.11.26-.14.32a118 118 0 0 1-7.7 15q-2.25 3.69-4.78 7.2c-.45.62-.9 1.24-1.36 1.85-.11.14-.58.75-.47.62l-.16.19-.44.57c-.93 1.17-1.89 2.33-2.87 3.46a113.08 113.08 0 0 1-13.63 13.35c-2.82 2.33-5.53 4.35-8.71 6.51-3.47 2.35-7.05 4.53-10.71 6.56a3.6 3.6 0 1 0 3.63 6.21 126.54 126.54 0 0 0 33.07-25.9 116.59 116.59 0 0 0 19.56-30.16 141.17 141.17 0 0 0 6.68-18.17 3.6 3.6 0 0 0-6.94-1.91z"/><path d="M354.15 282.32l.12.46a10.66 10.66 0 1 0 20.62-5.43l-.12-.46-4.24-16.1" fill="none" stroke="#000" stroke-miterlimit="10" stroke-width="6.3"/><path d="M333.53 287.75l.12.46a10.66 10.66 0 1 0 20.62-5.43l-.12-.46-4.23-16.05" fill="none" stroke="#000" stroke-miterlimit="10" stroke-width="6.3"/><path d="M374.77 276.89l.12.46a10.66 10.66 0 1 0 20.62-5.43l-.13-.46-.92-3.52-3.33-12.62-82.4 21.89 4.2 16 .12.46a10.66 10.66 0 0 0 20.62-5.43l-.12-.46-4.22-16" fill="none" stroke="#000" stroke-miterlimit="10" stroke-width="6.3"/><path d="M333.77 316.5a34.54 34.54 0 0 1 34.54 34.5" fill="none" stroke="#000" stroke-linecap="round" stroke-linejoin="round" stroke-width="6.3"/><path d="M550.25 29.09a29.28 29.28 0 0 0-4.3-13.3C539.81 5.56 529.41.52 522.72 4.53s-7.13 15.57-1 25.8a29.31 29.31 0 0 0 9.95 10.19m29.56 7.42A28.91 28.91 0 0 0 575 43.63c10.23-6.14 15.28-16.55 11.26-23.23s-15.57-7.13-25.8-1a29.35 29.35 0 0 0-10.05 9.72m-18.73 11.4a29.06 29.06 0 0 0-13.57 4.31c-10.23 6.17-15.27 16.54-11.26 23.23s15.57 7.13 25.8 1a28.94 28.94 0 0 0 10.41-10.34" fill="none" stroke="#000" stroke-miterlimit="10" stroke-width="6.3"/><path d="M542.84 58.64a28.86 28.86 0 0 0 4.31 14c6.14 10.23 16.55 15.27 23.23 11.26s7.13-15.57 1-25.8a29 29 0 0 0-10.12-10.28" fill="none" stroke="#000" stroke-miterlimit="10" stroke-width="6.3"/><circle cx="546.55" cy="43.87" r="15.25" fill="#ffd500" stroke="#000" stroke-miterlimit="10" stroke-width="6.3"/></svg>