<svg xmlns="http://www.w3.org/2000/svg" viewBox="0 0 960 284.67"><title>ZeroHero_Illustrations_FINAL_ARTWORK_STROKES_JW_WEBSITE2</title><circle cx="289.07" cy="106.02" r="60.56" fill="#ffd500" stroke="#000" stroke-linecap="round" stroke-linejoin="round" stroke-width="6.3"/><path d="M274.94 47.12s6.44 12.61 9.79 16-18 6.7-20.09 11.85.14 13.26 8.51 21.63 19.05 10.81 8.36 14.93-15.32 5.77-13.26 12.16 22.14-3.4 24.2 2.78-4.63 12.87-6.44 14.68-.77 6.43 14.17 1.8 18.06-4.24 15.47 4.06 5.63 10.34 5.63 10.34m6.08-98.25s-13.79 9.65-16.88 16.9-5.78 12.92 8.44 12.92 2.36 10.14 2.36 14.06 10.67-4.28 15 0 5.92-11.19 10.43-15.7M235.62 134.5s1.46-7.84 10.48-14.08c11.66-8.08-1.88-16.09-4-18.21S238 97 242.1 93c3.64-3.64-6.82-9-9-10" fill="none" stroke="#000" stroke-miterlimit="10" stroke-width="6.3"/><path d="M960 281.52H400.53c-123.11 0-222.92-75.24-222.92-157V3.15h222.92v121.38c0 81.75-99.8 157-222.92 157H0" fill="none" stroke="#000" stroke-miterlimit="10" stroke-width="6.3"/></svg>