<svg id="layer" xmlns="http://www.w3.org/2000/svg" viewBox="0 0 635.1 147.6"><style>.st0{fill:#fff}</style><path d="M14.4 0C6.5 0 0 6.4 0 14.4v118.8c0 7.9 6.4 14.4 14.4 14.4h606.3c7.9 0 14.4-6.4 14.4-14.4V14.4c0-7.9-6.4-14.4-14.4-14.4H14.4z"/><path class="st0" d="M67.8 62.1c0 2.9-2.3 5.3-5.2 5.3H39.1c-2.9 0-5.2-2.4-5.2-5.3V38.8c0-2.9 2.3-5.3 5.2-5.3h23.5c2.9 0 5.2 2.4 5.2 5.3v23.3zm47.6 0c0 2.9-2.3 5.3-5.2 5.3H86.7c-2.9 0-5.2-2.4-5.2-5.3V38.8c0-2.9 2.3-5.3 5.2-5.3h23.4c2.9 0 5.2 2.4 5.2 5.3v23.3h.1zm-47.6 46.7c0 2.9-2.3 5.3-5.2 5.3H39.1c-2.9 0-5.2-2.4-5.2-5.3V85.5c0-2.9 2.3-5.3 5.2-5.3h23.5c2.9 0 5.2 2.4 5.2 5.3v23.3zm47.6 0c0 2.9-2.3 5.3-5.2 5.3H86.7c-2.9 0-5.2-2.4-5.2-5.3V85.5c0-2.9 2.3-5.3 5.2-5.3h23.4c2.9 0 5.2 2.4 5.2 5.3v23.3h.1zm107.6-2.7c-9.5 5.1-20.3 7.7-32.4 7.7-24.1 0-41.3-16.4-41.3-40.8 0-25.1 17.2-41.5 41.3-41.5 11.9 0 22.7 2.6 30.8 9.8l-10.3 10.4c-5-4.9-12.6-7.6-20.5-7.6-16.1 0-26.9 12.4-26.9 28 0 16.7 10.7 29.1 26.9 29.1 7.1 0 13.5-1.3 18.4-4.1V78.6h-16V66h30v40.1zm16.5-72.6h27.2c15 0 29.2 4.9 29.2 22.5 0 11.3-6.5 19.6-18.1 21.2l20.7 34.6h-16.8l-18.1-33.2h-10.2v33.2h-13.9V33.5zm24.8 33.2c7.9 0 17-.7 17-10.8 0-9.3-8.6-10.4-15.8-10.4h-12.1v21.2h10.9zM311 33.5h51.9v12.6h-38v19.3h36V78h-36v21.2h40v12.6H311zm137.5 72.6c-9.5 5.1-20.3 7.7-32.4 7.7-24.1 0-41.3-16.4-41.3-40.8 0-25.1 17.2-41.5 41.3-41.5 11.9 0 22.7 2.6 30.8 9.8l-10.3 10.4c-5-4.9-12.6-7.6-20.4-7.6-16.1 0-26.9 12.4-26.9 28 0 16.7 10.7 29.1 26.9 29.1 7.1 0 13.5-1.3 18.3-4.1V78.6h-16V66h30v40.1zm86.8 0c-9.5 5.1-20.3 7.7-32.4 7.7-24.1 0-41.4-16.4-41.4-40.8 0-25.1 17.2-41.5 41.4-41.5 11.9 0 22.7 2.6 30.8 9.8l-10.2 10.4c-5-4.9-12.6-7.6-20.5-7.6-16.1 0-26.9 12.4-26.9 28 0 16.7 10.7 29.1 26.9 29.1 7.1 0 13.5-1.3 18.4-4.1V78.6h-16V66h30v40.1h-.1zm55.2-55.8c-3-4.2-8.3-6.2-13.7-6.2-6.4 0-12.8 2.9-12.8 10.1 0 15.7 37.1 6.7 37.1 34.6 0 16.8-13.3 25-28.6 25-9.7 0-19.2-3-25.6-10.6L557.4 93c3.4 5.2 9.3 8.2 15.5 8.2 6.4 0 13.7-3.5 13.7-10.7 0-17.1-37.1-7.3-37.1-35.3 0-16.2 14.4-23.7 28.9-23.7 8.2 0 16.4 2.3 22.5 8.1l-10.4 10.7z"/></svg>