<svg xmlns="http://www.w3.org/2000/svg" viewBox="0 0 1080 481.23"><title>Asset 1</title><g data-name="Layer 2"><g data-name="Layer 1" stroke="#000" stroke-width="7"><path d="M730.55 186.63a113.24 113.24 0 0 0-9.36-29.17 114.35 114.35 0 0 0-101.34-65.18 20.6 20.6 0 1 0-1.08 41.19 73.34 73.34 0 1 1-43.4 133.12 20.61 20.61 0 0 0-26 1.75 20.52 20.52 0 0 0 1.84 31.66 114.46 114.46 0 0 0 119.6 8.41h.22a20.63 20.63 0 0 1 27.56 19.39V361m157.83 0V71a21 21 0 0 0-21-21 21 21 0 0 0-21 21v115.1" fill="#fff" stroke-linecap="round" stroke-linejoin="round"/><path d="M814.46 186.11V45a21 21 0 0 0-21-21 21 21 0 0 0-21 21v141.11" fill="#fff" stroke-linecap="round" stroke-linejoin="round"/><path d="M772.51 186.11V24.48a21 21 0 0 0-21-21 21 21 0 0 0-21 21v161.63" fill="#fff" stroke-linecap="round" stroke-linejoin="round"/><circle cx="835.44" cy="71.3" r="21.26" fill="#fff" stroke-linecap="round" stroke-linejoin="round"/><circle cx="793.48" cy="45.29" r="21.26" fill="#fff" stroke-linecap="round" stroke-linejoin="round"/><circle cx="751.53" cy="24.76" r="21.26" fill="#fff" stroke-linecap="round" stroke-linejoin="round"/><circle cx="619.78" cy="112.87" r="20.6" fill="#fff" stroke-linecap="round" stroke-linejoin="round"/><circle cx="564.05" cy="284.38" r="21.26" fill="#fff" stroke-miterlimit="10"/><circle cx="585.32" cy="195.89" r="62.25" fill="#ffd500" stroke-linecap="round" stroke-linejoin="round"/><path fill="#fff" stroke-linejoin="round" d="M1080 477.73H922.99V360.96H627.65v116.77H0"/><circle cx="685.78" cy="418.15" r="11.6" fill="#fff" stroke-miterlimit="10"/><path d="M599.84 135.35s-6.62 13-10.06 16.4 18.53 6.88 20.65 12.18-.14 13.63-8.74 22.23-19.59 11.12-8.6 15.36 15.75 5.93 13.63 12.49-22.76-3.5-24.88 2.86 4.77 13.23 6.62 15.09.79 6.61-14.56 1.85-18.57-4.36-15.9 4.19-5.79 10.63-5.79 10.63m88.05-23.46s-1.5-8.06-10.77-14.48c-12-8.3 1.93-16.54 4.11-18.71s4.17-5.35 0-9.52 9.69-10.5 9.69-10.5" fill="none" stroke-miterlimit="10"/></g></g></svg>