<svg xmlns="http://www.w3.org/2000/svg" viewBox="0 0 529 196.8"><path d="M139.5 51.9v92.3l7.2 1.4v5.8h-35.4v-5.8l7.2-1.4v-41.8H73v41.8l7.2 1.4v5.8H44.8v-5.8l7.2-1.4V51.9l-7.2-2.2v-5.1h35.4v5.8L73 51.8v39h45.5v-39l-7.2-2.2v-5.1h35.4v5.8l-7.2 1.6zm23 28.2l6.5 1.4v64.2l-6.5.7v5.1h33.2v-5.1l-5.8-.7v-70h-27.4v4.4zM179.9 40c-6.4 0-11.5 5.5-11.5 12.3s5.2 12.3 11.5 12.3c6.4 0 11.5-5.5 11.5-12.3S186.3 40 179.9 40zm30.8 6.6l6 1v97.8l-6 1.1v5.1h33v-5.2l-6.7-.7V41.8h-26.3v4.8zm84.9 96.8c-7.9 0-11.9-4.9-11.9-12.8V83.2h17.7v-7.4h-17.7V54.2L264.2 60v15.9h-14.1v7.4h14.1v53c0 10.8 5.6 16.7 17.9 16.7s25.1-5.7 25.1-5.7v-4.7c0-.1-3.6.8-11.6.8zm95-29.4c0 16.9-9.6 40.3-40.9 40.3-23.1 0-39.3-11.3-39.3-38.5 0-17.6 7.8-42.2 40.2-42.2s40 22.5 40 40.4zm-22-.1c0-17.6-4.5-34.3-18.2-34.3s-18.7 14.2-18.7 35.2c0 13.4 3.2 33.3 18.7 33.3s18.2-19.4 18.2-34.2zm33.1-33.2l7.1.8v63.9l-7.1 1.4v5.1h33.9v-5l-7.3-1.2V91.8s5.3-6.6 15.9-6.6c10.4 0 13 8.5 13 16.4v44.3l-6.3.8v5.2h32.7v-5.3l-6.4-.9V98.2c0-10.4-4.7-23.9-21.2-23.9s-27.6 11.6-27.6 11.6V75.6h-26.7v5.1zM529 0v196.8H0V0h529zm-9.2 9.3H8.9v178.3h510.9V9.3z"/></svg>