<svg id="layer" xmlns="http://www.w3.org/2000/svg" viewBox="0 0 607.1 203.3"><style>.st0{fill:#fff}.st1{fill-rule:evenodd;clip-rule:evenodd}</style><path d="M580.6 13c0-7.5 6.1-13 13.3-13 7.1 0 13.2 5.5 13.2 13 0 7.6-6.1 13.1-13.2 13.1-7.2 0-13.3-5.5-13.3-13.1zm13.3 11c5.9 0 10.6-4.6 10.6-10.9 0-6.2-4.7-10.9-10.6-10.9-6 0-10.6 4.7-10.6 10.9S587.9 24 593.9 24zm-2.8-3.4h-2.3V5.5h5.7c3.6 0 5.3 1.3 5.3 4.3 0 2.7-1.7 3.9-3.9 4.1l4.3 6.6h-2.6l-4-6.5H591l.1 6.6zm2.8-8.5c1.9 0 3.7-.1 3.7-2.5 0-1.9-1.7-2.2-3.3-2.2h-3.1v4.7h2.7zM0 2.5h573.9v200.8H0V2.5z"/><path class="st0" d="M7.8 102.9c0-51.2 125-92.7 279.2-92.7s279.2 41.5 279.2 92.7-125 92.7-279.2 92.7S7.8 154.1 7.8 102.9z"/><path d="M203.7 110.1V136c0 3 2.1 6.3 2.1 6.3h-52.2s2.1-3.5 2.1-6.3V70.9c0-3-2.1-5.9-2.1-5.9h52.2s-2.1 2.9-2.1 5.9v18.3l15.6-18.6c2.1-2.5.5-5.6.5-5.6h52.1L249 93.4l29.2 46.7 2.1 2.3h-61.7s3.2-2.7 1.9-4.8l-16.8-27.5zm-69.4-45.2s-2.1 3.2-2.1 6.2v64.8c0 2.8 2.1 6.3 2.1 6.3H79.7s2.1-3.3 2.1-6.3V71.1c0-2.8-2.1-6.2-2.1-6.2h54.6zm154.1 0h88.9v23.4s-3-2.1-5.4-2.1h-33.3v6.3h27c3.6 0 5.2-2.1 5.2-2.1v21.7s-1.8-2.1-5.2-2.1h-27v5.7h33c2.4 0 5.7-2.1 5.7-2.1v28.6h-88.9s2.1-3.2 2.1-6.3V70.8c0-3.1-2.1-5.9-2.1-5.9z"/><path class="st1" d="M412.9 64.9h71.9s-.5 3.7.3 5.6l31.2 69.5 2.1 2.3h-56.9s2.2-.9.6-4.7l-5.2-11.9h-22l-5 11.9c-1.3 3.1.7 4.7.7 4.7h-46.3l2.8-4 25.6-67.4c.8-2.3.2-6 .2-6zm31.4 31.8l5.6 14.1h-10.3l4.7-14.1z"/></svg>