<svg id="layer" xmlns="http://www.w3.org/2000/svg" viewBox="0 0 358.5 443.9"><style>.st0{fill-rule:evenodd;clip-rule:evenodd}</style><path class="st0" d="M286.1 214.1l-1.4.4.7 2.5 1.5-.4c1-.3 1.4-.9 1.2-1.6-.3-.9-.9-1.2-2-.9m-56.8-48.7c-.6-.4-1.4-.9-2.3-1.4-2.5-1.3-5.9-2.4-6.8-2.5-2.6-.5-5.1-.4-7.6.2-3.4.9-6.7 2.9-9.2 5.5-2.5 2.5-4.1 5.7-4.6 8.3-.6 3.1-.4 5.9.3 8.5 1.1 4 3.6 7.8 7.2 10.9 2.3-2.4 4.8-5.1 7.4-8 4.8-5.4 9.6-11.4 12.8-16.2 1.3-2.1 2.3-4 2.8-5.3m-70.8 18.1c-.5-.3-.9-.6-1.5-.8-2.5-1.3-5.9-2.4-6.8-2.6-2.6-.5-5.1-.4-7.6.2-3.4.9-6.7 2.9-9.1 5.4-2.5 2.6-4.1 5.7-4.6 8.3-.5 2.7-.4 6 .5 9.1 1 4 3.2 7.5 6 9.9 4.1-4.7 8-9.3 11.4-13.6 4.5-5.5 8.2-10.4 10.5-14 .4-.6.8-1.3 1.2-1.9m71.1 67.4c-10 2.7-15.9 12.8-13.2 22.7 2.7 9.9 13 15.7 23 13.1 10-2.7 15.9-12.8 13.3-22.7-2.8-9.9-13.1-15.8-23.1-13.1M286 149.8c-10 2.7-15.9 12.8-13.3 22.7 2.7 9.9 13 15.7 23 13.1 10-2.7 15.9-12.8 13.2-22.7-2.6-9.9-12.9-15.7-22.9-13.1"/><path class="st0" d="M342.9 154.1c15.9-10.3 15.4-17.1 15.6-22.9.2-7.9-10.1-79.4-20-94.9C325.8 16.7 237.1 0 179.4 0h-.2C121.5 0 32.7 16.7 20.1 36.4 10.2 51.9-.1 123.4 0 131.3c.1 5.8-.4 12.6 15.6 22.9.1.1.2.3.3.4V168c-6.5 7.2 4.1 81 6.5 90.6 1.9 7.6 9.4 13.7 12.4 15.9.8.7 1.4.9 1.6 2.1 0 .1.1.1.1.1 22.5 115.9 27 132 29.8 136.7 3.4 5.6 21.9 30.5 112.9 30.5h.2c91 0 109.5-24.9 112.9-30.5 2.8-4.7 7.3-20.8 29.8-136.7 0-.1.1-.1.1-.1.2-1.2.8-1.4 1.6-2.1 3.1-2.3 10.5-8.3 12.4-15.9 2.4-9.6 13-83.4 6.5-90.6v-13.4c0-.2.1-.3.2-.5M244 303.7c-9.3 2.4-18.6 1.2-26.5-2.9l2.7 32.8c.3 4.3-2.5 8.1-6.5 9.2-.5.1-1.1.2-1.6.3-4.9.4-9.2-3.2-9.6-8.1l-2.1-26.2c-1.7.7-3.3 1.3-5 1.8-3.2.9-6.9.6-9.9-.7-2.3-1-4.1-2.4-5.6-3.9-.4.7-.8 1.4-1.3 2.1-3.8 5.5-9.8 9.7-17.1 11.7-.1 0-.2 0-.3.1-.7.2-1.4.3-2.1.5-7.3 1.7-15.5.3-21.7-4.4-1.9-1.4-3.6-3-5.2-4.9-1.9 4.2-4.2 8.2-7.3 11.9-4.9 5.9-11.8 10.7-20.4 13h-.2c-3.4.9-7 1.4-10.8 1.5-9.1.3-17.3-2.4-23.4-7.2-6.1-4.9-10.1-11.5-12-18.6-2-7.2-1.9-14.9.3-22.3 2.1-7.3 6.5-14.4 13.1-19.6 4.4-3.6 9.1-6 13.7-7.2 5.3-1.4 10.4-1.3 14.8-.1s8.1 3.3 10.9 6.1c1.9 1.9 3.5 4.2 4.4 7.2.6 2.1.7 4.8-.3 7.4-1.6 4.6-6.7 7-11.4 5.3-3.5-1.2-5.8-4.5-5.9-8-.3-.2-.6-.4-1-.6-1.6-.7-3.9-1.2-6.9-.3-2 .5-4.4 1.6-7.1 3.8-3.6 2.9-6 6.7-7.3 10.9-1.3 4.2-1.3 8.8-.2 12.8 1.1 3.9 3.2 7.2 5.9 9.4 2.8 2.2 6.4 3.6 11.7 3.4 2.6-.1 4.8-.4 6.8-1 5-1.3 8.5-3.7 11.5-7.3 3-3.5 5.4-8.4 7-13.9 2.3-7.4 3.3-15.9 3.7-24 0-2.6.1-5.4.3-8.2v-3.8c.1-4 2.8-7.4 6.5-8.4 1.1-.3 2.3-.5 3.5-.4 4.9.5 8.4 4.8 8 9.6-.1 1.3-.2 2.6-.3 3.8-.1 2.5-.1 5.1-.3 7.9 0 6.7.7 12.2 1.9 16.4 1.7 6.3 4.3 9.6 6.4 11.2 2.2 1.5 4.1 2 7.3 1.3l1.2-.3c4.1-1.2 5.8-2.6 7.4-4.7 1.5-2.1 2.6-5.5 3.2-10.2 1.1-9.3-.4-22.8-.9-37.2v-.8c-.1-.4 0-.8 0-1.3v-1.1s0-.1.1-.1c0-.1.1-.3.1-.4s.1-.1.1-.1c.6-2.1 2.1-3.9 4-5 1.1-.6 2.3-1 3.6-1.2h1.8c1.2.1 2.4.5 3.5 1.1h.1s0 .1.1.1c1.3.8 2.3 1.9 3.1 3.1v.1l.1.1v.2c.2.4.3.8.4 1.2v.6c.2.6.3 1.2.3 1.9.4 14.1 2 25.9 4.2 33.9 1.3 5 3 8.5 4.1 9.9 1.3-.5 2-.9 2.5-1.4.6-.6 1.3-1.4 1.9-3.6.4-1.5.8-3.5.9-6.2.2-2.5.1-5.6-.1-9.1l-2.4-30.3c-.4-4.8 3.3-9.1 8.2-9.4 4.5-.4 8.5 2.6 9.4 6.9 3.6-2.7 7.8-4.8 12.5-6.1 19.5-5.1 39.5 6.3 44.8 25.5 5.7 19.5-5.9 39.3-25.3 44.5m46.4-83.4c-.5.1-.9 0-1.5-.4l-2.4-1.8-.7.2.6 2.1c.1.6-.1 1-.6 1.1l-.3.1c-.5.2-.9-.1-1.1-.8l-1.7-6.3c-.2-.7.1-1.2.7-1.4l2.5-.7c2.2-.6 3.6 0 4 1.7.3 1.4-.2 2.4-1.5 3l2.9 2.1c.1.2-.1.9-.9 1.1m10-17.7c-9.2 2.4-18.6 1.1-26.5-2.9l2.6 32.8c.3 4.3-2.5 8.1-6.5 9.2-.5.2-1.1.2-1.6.3-4.9.4-9.2-3.2-9.6-8l-2.1-26.3c-2.3 1.9-4.8 3.5-7.3 4.9-4.2 2.2-8.4 3.8-12.4 5-.5.2-1 .3-1.5.4-8.9 2.4-18.1 1.6-26.3-1.3-9.1 7.4-21.2 13.8-34.5 17.4-7.5 2-15.3 3-23.2 2.6-3.9-.2-8-.9-11.9-2-6.8 6.5-14.1 11-22.1 13.1-10 2.7-20.5 1.1-30.2-3.6-4.1-2-8.1-4.5-12-7.4l.2 2.8v1.5l.8 9.5c.4 4.3-2.5 8.1-6.5 9.2-.6.1-1.1.3-1.7.3-4.9.4-9.2-3.2-9.5-8.1l-7.5-92.4v-1.5l-.8-9.5c-.4-4.9 3.3-9.1 8.1-9.5 4.9-.4 9.2 3.2 9.6 8l4.3 52.9c3.8-3 7.8-6.7 10.8-10.4 2.6-3.3 4.4-6.6 4.9-9.2 1.1-4.7 5.8-7.7 10.6-6.7 4.8 1.1 7.8 5.8 6.7 10.5-1.4 6.3-4.7 11.6-8.3 16.3-3.7 4.6-7.9 8.6-12 11.9-2.1 1.7-4.1 3.3-6 4.6 5.8 5.3 11.2 9.1 16 11.4 6.9 3.3 12.2 3.8 17.7 2.4 3.1-.8 6.4-2.4 10-5.1-5.4-5-8.9-11.3-10.7-17.9-1.5-5.6-1.8-11.3-.8-16.9 1.3-6.6 4.6-12.4 9.3-17.2 4.6-4.7 10.5-8.5 17.4-10.3 4.9-1.3 10.3-1.6 15.8-.5 2.4.5 5.2 1.4 8.3 2.8 3.1 1.3 6.4 3 9.5 5.6 2 1.8 4.1 4 5.3 7.7l.1.3v.1c.5 1.8.4 3.2.3 4.3-.1 1.2-.4 2.1-.7 3-.6 1.8-1.4 3.3-2.3 4.9-1.8 3.2-4.2 6.7-7.2 10.6-3.9 5.1-8.6 10.9-13.7 17 5.3.2 11-.5 16.6-2 8.3-2.2 16.5-6 22.9-10.3-5.1-4.8-9-11-11-18.1-1.4-5.1-1.7-10.7-.6-16.3 1.3-6.5 4.6-12.4 9.2-17.2 4.6-4.7 10.6-8.5 17.4-10.3 4.9-1.3 10.3-1.6 15.8-.5 2.4.5 5.2 1.4 8.3 2.7 3.1 1.3 6.4 3 9.5 5.6 2 1.8 4.1 4 5.3 7.6l.1.2c0 .1.1.2.1.3.9 3.5.3 6.3-.3 8.6-.7 2.4-1.8 4.7-3 6.9-2.5 4.5-5.8 9-9.4 13.6-3.3 4.1-6.8 8.1-10.1 11.8 2.3 0 4.6-.2 6.7-.8.3-.1.6-.1.9-.2 3.2-1 6.4-2.2 9.2-3.6 2.7-1.5 5-3.2 6.3-4.8 4.2-5.1 6.1-11.6 6.7-17.1.1-.4.1-.8.1-1.1l-2.7-32.6c-.4-4.8 3.3-9.1 8.2-9.4 4.5-.3 8.4 2.7 9.4 6.9 3.6-2.7 7.8-4.8 12.5-6 19.5-5.2 39.5 6.2 44.8 25.5 5.2 19-6.3 38.8-25.8 44"/></svg>