<svg id="layer" xmlns="http://www.w3.org/2000/svg" viewBox="0 0 510.2 304"><style>.st0{fill-rule:evenodd;clip-rule:evenodd}</style><path class="st0" d="M154.7 109.7h195.5v34.2H154.7z"/><circle class="st0" cx="155" cy="74.7" r="28.5"/><circle class="st0" cx="219.1" cy="74.7" r="28.5"/><circle class="st0" cx="283.9" cy="74.7" r="28.5"/><circle class="st0" cx="348.6" cy="74.7" r="28.5"/><path class="st0" d="M227.8 16.2h48.6v15.6h-48.6z"/><path class="st0" d="M244 0h16.2v49.2H244zM0 174.5h47.3v48.6l48-48.6h49.8l-60 60.5 68.4 69H95.3l-47.7-47.7V304H0zm203.8 97.7v-97.1h-48.5V304h128.9v-31.8zm97.2-97.1h80.3l23.4 72.5 24-72.5h81.5v128.8h-48.5v-95.2l-33 95.2h-47.4l-32.4-95.2v95.2H301z"/></svg>