<svg xmlns="http://www.w3.org/2000/svg" viewBox="0 0 514.1 298.7"><path d="M377.1 298.6c.7 0 1.3-.1 2-.2 14.6-3.1 19.7-9.7 19.7-24.9v-122c0-5 .3-9.9 1.7-14.6 6-20.9 34.3-28.2 50.9-13.1 6.7 6.1 10.7 13.5 8.9 22.8-3.3 17.2-23.2 27.7-40.5 21.7-5.5-1.9-10.1-5.3-14.3-9.6-.3.6-.4.9-.4 1.1 0 19.3.1 38.6-.1 58 0 2.9 1.6 3.3 3.6 3.8 13.7 3.2 27.3 3.4 41 .3 47.6-10.7 75.8-59.5 60.2-104.7-12.4-35.9-50-59.4-88-55-39.5 4.6-68.1 31-74.6 69.2-1 6-.5 12.3-1.9 18.1-3.5 14.8-20.4 24.7-35.7 21.4-13.8-2.9-24.1-14.1-24.4-26.5-.5-20.3 23.3-34.8 42.8-26.1 5.1 2.3 9.2 5.9 13.2 10.3 3.6-18.1 11.4-33.5 24-46.1 2.5-2.5 2.2-3.5-.5-5.4-21.3-14.4-44.4-18.9-69.4-13-34.6 8.2-59.4 36.7-63.3 72-.6 5.4.2 11-2 16.3-6.9 16.7-27.9 24-43.9 15.1-10.4-5.8-16.8-16.7-15.4-26.2 1.8-12.2 9.2-19.9 20.4-23.8 11.8-4.1 22.6-1.3 31.9 7.1 1.2 1.1 2.1 2.7 3.7 4.7 3.7-18.8 11.6-34.1 24.2-46.8 2.5-2.5 2.3-3.5-.5-5.3-19.8-13.5-41.6-18.7-65.1-13.9-31.9 6.5-54.2 25.1-64 56.3-9.7 30.9-2.2 58.7 20.6 81.6 30.5 30.6 80.2 32.4 113.6 4.8 1.9-1.6 3.1-2.3 5.4-.4 17.9 15 38.7 21.2 61.9 19.6 8-.5 15.7-2.6 23.7-5.3v55.7c0 12 5.3 18.9 16.8 22.2-.1.1 2.9 1.2 13.8.8z"/><path d="M113 173.1c2 0 3.4.2 4.4 2.5 9.3 22.7 25.5 38.8 47.9 48.8.2.1.4.3 1.4 1.1h-5.1c-26.3 0-52.7-.5-79 .1-37.7.9-71.2-25.2-80.7-63.6 0 0-1.8-6.5-1.8-15.2 0-9.3 0-18.6-.1-28 .4-31.5.7-63 1.2-94.5C1.4 10.8 13.2 0 27.5 0c14.3-.1 26 11 26.1 24.9.1 39.4.2 78.7-.1 118.1-.1 14.7 10.8 30 28.1 30.4l31.4-.3z"/></svg>