<svg xmlns="http://www.w3.org/2000/svg" viewBox="0 0 631 108.9"><path d="M0 1.7h32.4V81H83v25.9H0V1.7zm162.1 0h32.3v62.7c0 6.2-1 12.1-2.9 17.6s-5 10.4-9.1 14.5-8.5 7-13 8.7c-6.3 2.3-13.9 3.5-22.7 3.5-5.1 0-10.7-.4-16.7-1.1s-11.1-2.1-15.1-4.3c-4.1-2.1-7.8-5.2-11.1-9.1-3.4-3.9-5.7-8-6.9-12.1-2-6.7-3-12.6-3-17.8V1.6h32.3v64.2c0 5.7 1.6 10.2 4.8 13.5 3.2 3.2 7.6 4.8 13.2 4.8s9.9-1.6 13.2-4.8c3.2-3.2 4.8-7.7 4.8-13.5l-.1-64.1zm159.7 0h32.4v36.8h35.4V1.7h32.5v105.2h-32.5V64.3h-35.4v42.6h-32.4V1.7zM210.2 70.2H241c.7 5 2 8.9 4.1 11.5 3.3 4.3 8.1 6.4 14.3 6.4 4.6 0 8.2-1.1 10.7-3.3 2.5-2.2 3.8-4.7 3.8-7.6 0-2.7-1.2-5.2-3.6-7.3-2.4-2.2-7.9-4.2-16.6-6.1-14.2-3.2-24.3-7.5-30.4-12.8-6.1-5.3-9.2-12.1-9.2-20.3 0-5.4 1.5-10.5 4.7-15.3 3.1-4.8 7.8-8.6 14.1-11.3 6.3-2.8 14.9-4.1 25.8-4.1 13.4 0 23.6 2.5 30.6 7.5s11.5 14.7 12.9 25.7h-30.9c-.8-4.7-2.5-8.2-5.1-10.3-2.6-2.2-6.2-3.2-10.8-3.2-3.8 0-6.6.8-8.5 2.4-1.9 1.5-2.9 3.5-2.9 5.8 0 1.7.8 3.2 2.4 4.5 1.5 1.4 5.1 2.7 10.9 3.9 14.2 3 24.3 6.1 30.4 9.3 6.1 3.1 10.6 7 13.4 11.7 2.8 4.6 4.2 9.8 4.2 15.5 0 6.6-1.9 13.2-5.6 18.7-3.7 5.7-8.9 10-15.6 13-6.7 2.9-15.1 4.4-25.2 4.4-17.8 0-30.2-3.4-37.1-10.3-6.7-7.1-10.6-17.8-11.6-28.4zm246 3v-22h4.4v8.7h8.7v-8.7h4.4v22h-4.4v-9.6h-8.7v9.6h-4.4zm41.9 0h-4.8l-1.9-5h-8.8l-1.8 5h-4.7l8.5-22h4.6l8.9 22zm-8.2-8.7l-3-8.2-3 8.2h6zm10.6 8.7v-22h4.3l9 14.7V51.2h4.1v22h-4.4l-8.8-14.3v14.3h-4.2zm22-22h8.1c1.8 0 3.2.1 4.2.4 1.3.4 2.4 1.1 3.3 2 .9 1 1.6 2.2 2.1 3.6s.7 3.1.7 5.2c0 1.8-.2 3.4-.7 4.7-.5 1.6-1.3 2.9-2.3 3.9-.9.8-1.9 1.4-3.1 1.7-1.3.3-2.6.5-3.9.5h-8.3l-.1-22zm4.4 3.7v14.6h3.3c1.2 0 2.1-.1 2.7-.2.7-.2 1.3-.5 1.8-1 .6-.6 1-1.3 1.1-2.1.3-1 .5-2.3.5-4s-.2-3-.5-3.9c-.2-.8-.7-1.5-1.3-2.1-.6-.5-1.3-.9-2.1-1-1.2-.2-2.4-.2-3.6-.2l-1.9-.1zm17.7 18.3v-22h6.6l4 15 3.9-15h6.6v22h-4.1V55.9l-4.3 17.3H553l-4.3-17.3v17.3h-4.1zm45.3 0h-4.8l-1.9-5h-8.8l-1.8 5h-4.7l8.5-22h4.7l8.8 22zm-8.2-8.7l-3-8.2-3 8.2h6zm10.5-13.3h8.1c1.8 0 3.2.1 4.2.4 1.3.4 2.4 1.1 3.3 2 .9 1 1.6 2.2 2.1 3.6s.7 3.1.7 5.2c0 1.8-.2 3.4-.7 4.7-.5 1.6-1.3 2.9-2.3 3.9-.9.8-2 1.4-3.1 1.7-1.3.4-2.6.5-3.9.5h-8.3l-.1-22zm4.4 3.7v14.6h3.3c1.2 0 2.1-.1 2.7-.2.7-.2 1.3-.5 1.8-1 .5-.4.9-1.1 1.2-2.1s.4-2.3.4-4-.2-3-.5-3.9c-.2-.8-.7-1.5-1.3-2.1-.6-.5-1.3-.9-2.1-1-1.2-.2-2.4-.2-3.6-.2l-1.9-.1zm17.7 18.3v-22h16.3v3.7h-11.8v4.9h11v3.7h-11v6H631v3.7h-16.7zM470.1 98.1l4.2 1.3c-.7 2.4-1.7 4.1-3.2 5.2s-3.4 1.7-5.7 1.7c-2.9 0-5.2-1-7-2.9-1.8-2-2.7-4.6-2.7-8 0-3.6.9-6.4 2.7-8.3 1.8-2 4.2-3 7.3-3 2.6 0 4.7.8 6.4 2.3 1 .9 1.7 2.2 2.2 4l-4.3 1c-.2-1-.8-2-1.6-2.6-.8-.6-1.9-1-2.9-1-1.5 0-2.9.6-3.9 1.7s-1.5 3-1.5 5.5c0 2.7.5 4.6 1.5 5.8.9 1.1 2.3 1.8 3.8 1.7 1.1 0 2.1-.4 3-1.1.6-.5 1.2-1.7 1.7-3.3zm7-2.7c0-2.2.3-4 1-5.5.5-1.1 1.1-2.1 2-3 .8-.8 1.7-1.5 2.8-2 1.5-.6 3-.9 4.6-.8 3.2 0 5.7 1 7.6 2.9 1.9 2 2.8 4.7 2.8 8.2s-.9 6.2-2.8 8.2-4.4 2.9-7.5 2.9c-3.2 0-5.7-1-7.6-2.9-2-1.9-2.9-4.6-2.9-8zm4.4-.2c0 2.4.6 4.3 1.7 5.5s2.6 1.9 4.3 1.9c1.7 0 3.1-.6 4.2-1.9 1.1-1.2 1.7-3.1 1.7-5.6 0-2.4-.5-4.3-1.6-5.5s-2.7-1.9-4.3-1.8c-1.6-.1-3.2.6-4.3 1.8-1.1 1.4-1.7 3.2-1.7 5.6zm39.6 10.8V84.5h6.5l3.9 14.6 3.8-14.6h6.5V106h-4V89.1l-4.3 16.9h-4.2l-4.2-16.9V106h-4zm25 0V84.5H562v3.6h-11.5v4.8h10.7v3.6h-10.7v5.8h12v3.6h-16.4v.1zm24.7 0V88.2h-6.3v-3.6h17v3.6h-6.3V106h-4.4zm13.3 0V84.5h4.3V106h-4.3zm22.2-7.9l4.2 1.3c-.6 2.4-1.7 4.1-3.2 5.2s-3.4 1.7-5.7 1.7c-2.9 0-5.2-1-7-2.9-1.8-2-2.7-4.6-2.7-8 0-3.6.9-6.4 2.7-8.3 1.8-2 4.2-3 7.3-3 2.6 0 4.7.8 6.4 2.3 1 .9 1.7 2.2 2.2 4l-4.3 1c-.2-1-.8-2-1.6-2.6s-1.9-1-2.9-1c-1.5 0-2.9.6-3.9 1.7s-1.5 3-1.5 5.5c0 2.7.5 4.6 1.5 5.8.9 1.1 2.3 1.8 3.8 1.7 1.1 0 2.1-.4 3-1.1.6-.5 1.2-1.7 1.7-3.3zm-106.2.5h4.2c.3 1.4.8 2.5 1.5 3.1.8.7 1.8 1 3.1 1 1.4 0 2.4-.3 3.2-.9.7-.5 1-1.3 1.1-2.1 0-.5-.1-.9-.4-1.3-.4-.4-1-.8-1.6-1-1.1-.4-2.3-.7-3.5-1-2.3-.6-3.9-1.3-4.9-2.1-1.3-1.1-2-2.7-2-4.3 0-1.1.3-2.2 1-3.1.7-1 1.6-1.7 2.7-2.2 1.3-.5 2.8-.8 4.2-.8 2.7 0 4.7.6 6.1 1.8 1.4 1.2 2.1 2.9 2.1 4.9h-4.3c-.2-1.1-.6-1.9-1.2-2.4s-1.5-.7-2.7-.7c-1.3 0-2.2.3-2.9.8-.4.3-.7.8-.7 1.3s.2 1 .6 1.3c.5.4 1.9.9 4 1.4s3.6 1 4.7 1.5c1 .5 1.8 1.3 2.4 2.2.6 1 .9 2.2.9 3.4 0 2.6-1.5 4.9-3.9 5.9-1.3.5-2.8.8-4.7.8-2.7 0-4.8-.6-6.2-1.9-1.6-1-2.5-3.3-2.8-5.6zm113 0h4.2c.3 1.4.8 2.5 1.5 3.1.8.7 1.8 1 3.1 1 1.4 0 2.4-.3 3.1-.9.7-.6 1.1-1.3 1.1-2.1 0-.5-.1-.9-.4-1.3-.4-.4-1-.8-1.5-1-1.1-.4-2.3-.7-3.5-1-2.3-.6-3.9-1.3-4.9-2.1-1.3-1.1-2-2.7-2-4.3 0-1.1.3-2.2 1-3.1.6-1 1.6-1.7 2.7-2.2 1.3-.5 2.8-.8 4.2-.8 2.7 0 4.7.6 6.1 1.8 1.4 1.2 2.1 2.9 2.2 4.9h-4.3c-.2-1.1-.6-1.9-1.2-2.4s-1.5-.7-2.7-.7c-1.3 0-2.2.3-3 .8-.4.3-.7.8-.7 1.3s.2 1 .6 1.3c.5.4 1.9.9 4 1.4s3.7 1 4.7 1.5 1.8 1.3 2.4 2.2c.6 1 .9 2.2.8 3.4 0 2.6-1.5 4.9-3.9 5.9-1.3.5-2.8.8-4.6.8-2.7 0-4.8-.6-6.3-1.9-1.5-1-2.4-3.3-2.7-5.6zM520.2 34v-1.4c-.1-1-.1-1.9-.1-2.7-.2-3.5-1.2-7-4.4-8.5.9-.5 1.7-1.1 2.4-1.9 1.7-1.9 2.5-4.3 2.5-7.2 0-2.3-.6-4.3-1.7-6.1-1.1-1.8-2.6-3-4.5-3.7s-4.9-1-9-1H489v38.7h7.8V24h8.7-.1c4.2 0 5.8 1.8 6.4 5.8.1.9.2 1.8.3 2.8V34c.2 2.2.3 4.5 1 6.2h8.4c-.9-1.4-1.2-3.9-1.3-6.2zm-17.5-16.1h-5.8V8.1h6.1c3.2 0 5.1 0 5.7.1 1.1.1 2.2.7 2.9 1.5s1 1.8 1 3.2c0 1-.2 2-.8 2.9-.5.8-1.3 1.3-2.1 1.6-.9.3-3.2.5-7 .5zm-46.5 22.3V1.5h26.4V8H464v9.1h16.1v6.5H464V40h-7.8v.2zm71.8 0V1.5h28.5V8h-20.8v8.6H555v6.5h-19.3v10.5h21.5v6.5c.1.1-29.2.1-29.2.1zm33.9-13.3h7.6c.5 2.5 1.4 4.4 2.8 5.6 1.4 1.2 3.3 1.8 5.6 1.8 2.5 0 4.4-.5 5.7-1.6s1.9-2.3 1.9-3.7c0-.8-.3-1.7-.8-2.3-.5-.6-1.5-1.2-2.8-1.7-2.1-.6-4.1-1.2-6.2-1.7-4.2-1-7.1-2.3-8.8-3.8-2.4-2.1-3.5-4.7-3.5-7.8 0-2 .6-3.8 1.7-5.5 1.2-1.8 2.8-3.1 4.8-3.9 2.1-.9 4.6-1.3 7.6-1.3 4.8 0 8.5 1.1 10.9 3.2 2.5 2.1 3.8 5.3 3.9 8.9h-7.8c-.3-2-1-3.4-2.1-4.3s-2.7-1.3-4.9-1.3c-2.3 0-4 .5-5.3 1.4-.8.5-1.2 1.4-1.2 2.4 0 .9.4 1.7 1.2 2.4 1 .8 3.4 1.7 7.1 2.6 3.8.9 6.6 1.8 8.4 2.8 1.8 1 3.2 2.3 4.3 3.9 1 1.6 1.5 3.7 1.5 6.1 0 2.2-.6 4.3-1.8 6.2-1.2 2-3.1 3.5-5.2 4.3-2.2 1-5 1.4-8.4 1.4-4.9 0-8.6-1.1-11.2-3.4-2.9-2.3-4.4-6.3-5-10.7zm37.9 13.3V1.5h7.8v15.2h15.2V1.5h7.8v38.7h-7.8V23.3h-15.2v16.9h-7.8z"/></svg>