<svg xmlns="http://www.w3.org/2000/svg" viewBox="0 0 575.4 190.4"><path d="M122.8 131.2c-.6 13.1-8.5 27.2-23 37.8-9.3 6.8-19.1 12.9-30.8 14.3-3.9.5-8-.1-11.9-.5C29 180 4.4 158.9.6 127.3c-2.7-22.9 3.5-43.7 17.6-62 1.1-1.5 2.9-2.7 4.6-3.6 20.3-10.5 41.1-12.9 62.7-3.9 7.6 3.1 15.2 6.2 21.4 11.7 2 1.8 3.8 4.2 5 6.6 7.9 15.8 10.5 32.8 10.9 55.1zm119 57.4H180c0-5-.3-10.2.1-15.3.4-5.1-2.2-8.8-4.9-12.8v28.3c-4.2.2-8.2.4-12.1.5l-58.2.6c-3.6 0-4.5-1.1-3-4.4s3.5-6.5 5.4-9.7c18.8-31.3 37.8-62.6 56.5-94 5.6-9.3 10.6-19 15.8-28.6.9-1.7 1.9-2 3.9-2 5.9 0 8.4 2.7 10.5 8.3 14.9 40.7 30.3 81.3 45.5 121.9.7 2.3 1.4 4.4 2.3 7.2zm-77.3-24.3c6.8-1.9 10.9-7 12.1-14.6.4-2.5-.9-3.9-3.4-3.5-2.8.5-5.6 1-8.2 1.8-5.6 1.7-9.4 7.6-8.6 13.2 2.6-1 5.2-1.9 7.8-2.8 0 2 .2 3.9.3 5.9zm33.8-1c-4.6-7.6-11.3-10.7-19.1-12.2-3.1 10.1 3.5 19 14.4 19.2-1.1-2.5-2.1-4.8-3-7.1 2.3.1 4.7.1 7.7.1zm-1.2-18.8c-4.9-6.3-10.8-8.9-17.7-9.5-2.5-.2-3.1 1.1-2.8 3.2.1.9.3 1.7.6 2.6 2.1 7.3 8.5 11.7 15.6 10.2-1.5-2.1-3-4.1-4.6-6.4 2.8-.1 5.4-.1 8.9-.1zm-36.9 1.4c9.7-.7 15.1-7 14.4-15.8-7.4-1.7-14.4 1.3-18 7.9 2.1.3 4 .5 5.8.7-.7 2.3-1.3 4.5-2.2 7.2zm14.1-31.4c-2.6 8 1 14.8 9.8 18.2-.2-2.1-.3-4-.4-5.9h5c-1.5-6.4-8.1-11.9-14.4-12.3zm152.6-59.7v27.4c-.1.2-.3.3-.4.5-.3-.8-.7-1.6-1-2.3-.2.2-.4.3-.6.5v20.4c-10.8.6-21.7 1.1-33 1.7v86.5h-36.3c-1-30.1 2.9-59.9.4-90.4-4.2 0-8.5.1-12.7 0-8.7-.2-17.3-.4-26-.5-2.1 0-2.6-.9-2.6-2.8-.2-11.6-.3-23.1-.8-34.7-.1-2.6.8-3.2 3-3.2 10.2-.3 20.4-.9 30.6-1.1 21.1-.4 42.3-.7 63.4-1 5.2-.3 10.3-.7 16-1zm8.5 131.4v-44c-1 3.4-2 6.8-3.1 10.2-.2 0-.5-.1-.7-.1.2-4.5.5-9.1.7-13.6.8-12.4 1.7-24.8 2.2-37.3.4-10.9.3-21.8.6-32.7.1-4.1.7-8.1 1.1-12.2.1-1.6.9-2.4 2.6-2.4 12 .1 24 .2 36 .2 2.1 0 2.8 1.4 2.9 2.9.6 5.4 1.5 10.8 1.3 16.2-.3 12.2-1.3 24.5-1.7 36.7-.4 13.1-1 26.3-.6 39.4.3 8.2 0 7.5 7.7 7.6 11 .1 22 0 33 0 1.5 0 3 0 4.4-.3 2.7-.7 3.7.3 3.8 3 .3 7.6.7 15.1 1.2 22.7.2 2.7-.9 3.5-3.6 3.5-28.5 0-56.9.1-85.4.2-.7.1-1.5 0-2.4 0zM462 100.4c2.4-5.6 4.6-11.4 7.2-17.1 2.6-5.8 5.4-11.4 8.1-17.1.7-1.5 1.7-1.9 3.4-1.9 10.2.1 20.5.1 30.7.1h4.3c-.5 1.2-.8 2-1.2 2.8-7.7 15.2-15.4 30.3-23.1 45.5-2.5 4.9-4.8 10-7.8 14.6-3 4.8-2.3 9.9-2.3 15 .1 11.4.5 22.8.7 34.1.1 4.6 0 9.1 0 14h-38.2c-.2-5.6-.4-11.4-.8-17.2-.7-11.9-1-23.9-2.3-35.8-.6-5.5-2.7-10.9-4.9-16-8.5-19.8-17.3-39.5-26-59.2-1-2.2-1.6-4.6-2.1-6.9-.5-2.8.6-4 3.4-4.1l22.5-.9c2-.1 3.1.7 4 2.5 5.2 10.4 10.6 20.7 15.8 31.1 3 5.3 5.7 10.8 8.6 16.5zM572.8 145c-6-.3-11.8-.5-17.7-.8-7.5-.4-15-.8-22.4-1.1-2.7-.1-3.6-.8-3.4-3.8.6-14.5.9-28.9 1.4-43.4.4-13.9 1-27.8 1.4-42.1 13.1.6 26.1 1.1 39 1.7.6 9.3 1.1 18.1 1.7 26.9.5 7.5.4 15.2 1.8 22.5 1.9 9.3 0 18.3-.4 27.5-.2 4.2-.9 8.3-1.4 12.6zm-7.1 21.1c-.9 5.2-1.6 9.7-2.6 14-.3 1.1-1.4 2.5-2.5 2.8-5.7 1.9-11.5 3.6-17.3 5.1-1.3.3-3 0-4.2-.6-5.8-2.4-10-7-13-12.1-1.5-2.6-.5-6.6-.7-10 0-.1 0-.2.1-.3.6-10.4 8.9-13.5 16.6-16.9 6.9-3 17.3.7 20.7 7.4 1.6 3.5 2.1 7.5 2.9 10.6zM135.6 16.7c4-2.9 4.7-5.9 2.4-10.2-2.8-5.3-7.8-7.2-14.5-5.6-3 .7-4.8 2.5-4.9 5.6-.2 5.2-.4 10.4-.4 15.7 0 1.9.5 4 1.4 5.5.8 1.2 2.6 2.5 4 2.5 1.1 0 2.3-1.9 3.1-3.2.6-.9.5-2.2.7-3 2.2 1.6 4.2 3.5 6.6 4.6 1.1.5 3.3.3 4.2-.5s1.2-2.9.8-4.1c-.8-2.5-2.2-4.7-3.4-7.3zm-7-5.6c-.7 0-1.4-.9-2.1-1.4.6-.7 1.1-1.8 1.9-2 .5-.2 1.4.8 2.6 1.6-1.1.9-1.7 1.8-2.4 1.8zm-81.3 7.1c-.2.9-.5 1.8-.6 2.8-.2 1.5-.1 3.1-.4 4.6-.3 1.9-1.3 3.5-3.5 3.7-2.4.2-3.2-1.4-3.9-3.2-2-5.2-2-10.7-1.3-16.1.3-2.4.9-4.8 1.6-7.1C39.8.8 41.3 0 43.4 0c2 0 3 1.3 3.4 3 .4 2 .7 4 1.1 6 1.7.4 2.7 0 3.1-1.9.4-1.8 1-3.6 1.8-5.2 1.4-2.5 3.1-2.5 4.1.2 1.2 3.2 2 6.5 2.5 9.8.6 4.7.6 9.5-1.4 14.1-.9 2.1-2.1 3.9-4.7 3.6s-3.2-2.4-3.6-4.7c-.4-2.3-.8-4.5-1.2-6.8-.5.1-.8.1-1.2.1zm24.2-9.1c1.2.9 1.9 1.5 2.6 1.9.5.3 1.1.3 1.7.5 1.8.7 3.4 1.7 3.2 4-.2 2.3-1.9 2.9-3.9 3.2-1.2.2-2.4.3-3.7.4-.1.3-.2.5-.3.8 1 .4 2 .9 3.1 1.1 2 .4 4.1.3 6 1 1.2.5 2.6 1.9 2.8 3.2.2 1.1-.9 2.8-1.9 3.6-4.1 3.1-13.7 2.2-17.2-1.5-2.6-2.8-2.4-6.5-2.5-9.9-.1-3.1.4-6.2 1.2-9.2C64.2 1.7 68.2-.5 75.8.8c2 .4 4.2 1 5.9 2.2 2.5 1.7 2 4.4-1 5.1-2.6.7-5.4.7-9.2 1zm129.8 1.4c.2-1.6.3-3.3.8-4.9.3-1.1 1.3-2 2-3 .9.7 2.3 1.3 2.7 2.2 3 6.6 3.4 13.5 1.7 20.5-.7 2.8-3.1 3.8-5.5 2.1-2.8-2-5.2-4.6-7.9-7 0 1.4.3 3-.1 4.5-.4 1.3-1.5 3.2-2.4 3.3-1.2.1-2.8-1-3.9-2-.7-.6-.9-2-.9-3-.1-5.5-.4-11.1-.1-16.6.2-4.4 3-5.6 6.6-3 2.6 1.9 4.6 4.5 7 6.9zm-84.5 5.2c0 6.9-4.9 12.1-11.2 12-7-.1-12.4-5.4-12.3-12.1.1-7.2 5.4-13.9 10.9-13.7 6.3.2 12.6 7.1 12.6 13.8zm-8.9-.5c-1.4-1.3-2.2-2.3-3.1-2.6-.4-.1-1.9 1.4-1.8 2 .2 1 1.2 2 2.1 2.5.3.1 1.4-1 2.8-1.9zm116.6 5c-1 .1-2 .3-3.2.5-.3 1.5-.4 3-.9 4.5-.9 2.9-3.8 3.4-5.9 1.2-4.5-4.9-2.8-18.9 2.8-22.6 3.4-2.2 8.5-1.4 12 2 3.7 3.4 4.5 8 4.9 12.7.2 2.3.2 4.7-.5 6.9-.4 1.3-2 3.1-3.1 3.1-1.4.1-3.4-1-4.2-2.3-1-1.6-1.2-3.7-1.9-6zm.7-8c-1.2-.8-2.1-1.8-2.6-1.6-.8.3-1.3 1.3-1.9 2 .7.5 1.4 1.4 2.1 1.4.6 0 1.3-.9 2.4-1.8zm-207.7-.4c-1.9.2-3.2.5-4.6.5-2.1.1-4.3-.5-4.6-2.7-.2-1.5 1.1-3.2 1.8-4.8.1-.2.4-.4.7-.6 6.8-4.1 14.1-4.8 21.5-2 2.2.8 4.6 2.1 4.1 5-.5 2.8-2.9 4.3-5.5 4.4-2.7.1-2.9 1.5-3.1 3.5-.3 3.2-.5 6.4-1.3 9.5-.4 1.6-1.7 3.6-3 4.1-2.3.8-4.3-1-5-3.1-.9-2.7-1.2-5.6-1.5-8.5-.1-1.6.3-3.4.5-5.3zM165.2 19c-.6-1.4-1.6-2.9-1.3-3.3.7-1 2-1.9 3.2-2 5.1-.6 8.1 3.2 6.6 8.1-1.1 3.6-3.3 6-7.1 6.5-3.7.5-6.9-.8-9.4-3.6-4-4.7-4.1-14-.1-18.8 3.1-3.9 9.4-4.7 12.7-1.4 1 1 2 2.9 1.7 4.2-.2 1-2.1 2-3.4 2.5-1.1.5-2.5.3-3.7.5-2.7.5-2.9 2.5-2.6 4.7.3 2.2 1.6 2.8 3.4 2.6zm79 8.3c-4.6-.4-7.1-2.1-7.5-6.5-.4-4.8-.2-9.7.1-14.5.2-2.6 1.9-3.6 4.5-3.3 2.8.4 4.7 2.5 4.6 5.1-.1 1.9-.3 3.9-.5 5.8-.2 1.7.5 2.5 2.3 2.6 1.6.1 3.1.2 4.6.6 2.1.4 3.6 1.6 3.8 3.9.2 2.2-1 3.6-2.9 4.1-2.9.9-5.9 1.5-9 2.2zm-92.8-13c-.2 3.3-.3 6.6-.7 9.8-.2 1.3-.8 2.6-1.5 3.7-1.5 2.1-3.8 2.1-5.4.1-.8-1-1.6-2.4-1.6-3.7-.1-6-.1-12 .4-18 .3-3.5 2.3-5.1 4.7-4.8s3.9 2.3 4 5.6c.1 2.4 0 4.9.1 7.3zm33 .6c-.3 3.3-.4 6.6-.9 9.8-.2 1-1.3 2.6-2.1 2.7-1.2 0-2.9-.7-3.6-1.7-.9-1.3-1.6-3.2-1.6-4.8-.1-4.4.2-8.9.4-13.3 0-.9.1-1.9.5-2.5.9-1.3 2-3.2 3.3-3.4 2.3-.3 3.6 1.7 3.7 4 .1 3.1 0 6.2 0 9.3.1-.1.2-.1.3-.1z"/></svg>