<svg id="layer" xmlns="http://www.w3.org/2000/svg" viewBox="0 0 366.3 373.4"><style>.st0{fill:#fff}</style><path d="M318.5 373.4H47.7C21.4 373.4 0 352.1 0 325.7v-278C0 21.4 21.3 0 47.7 0h270.9c26.3 0 47.7 21.3 47.7 47.7v278c-.1 26.4-21.4 47.7-47.8 47.7z"/><path class="st0" d="M102.6 151.2c-19.5 0-35.3 15.8-35.3 35.3s15.8 35.3 35.3 35.3 35.3-15.8 35.3-35.3c0-19.5-15.8-35.3-35.3-35.3zm0 60.4C89 211.6 78 200.6 78 187s11-24.6 24.6-24.6 24.6 11 24.6 24.6-11 24.6-24.6 24.6zm161-60.4c-19.5 0-35.3 15.8-35.3 35.3s15.8 35.3 35.3 35.3 35.3-15.8 35.3-35.3c0-19.5-15.8-35.3-35.3-35.3zm0 60.4c-13.6 0-24.6-11-24.6-24.6s11-24.6 24.6-24.6c13.6 0 24.6 11 24.6 24.6-.1 13.6-11.1 24.6-24.6 24.6zm-101.7-3.3V153h-12.2v67.5h41.9v-12.2zm42-55.3h12.2v67.5h-12.2z"/></svg>