<svg xmlns="http://www.w3.org/2000/svg" viewBox="0 0 960 445.95"><title>ZeroHero_Illustrations_FINAL_ARTWORK_STROKES_JW_WEBSITE2</title><circle cx="337.3" cy="427.77" r="15.02" fill="#ffd500" stroke="#000" stroke-linecap="round" stroke-linejoin="round" stroke-width="6.3"/><path d="M412.36 375h86.35a15 15 0 0 0 15-15v-84.84l37.39-37.39H960" fill="none" stroke="#000" stroke-linejoin="round" stroke-width="6.3"/><path d="M413.9 373.49l.29.13a17 17 0 0 0 22.32-22.4m27.8-27.38v16.71h-16.97M372.81 371c-5.8 5.8-15.22 5.15-21-.65a14.87 14.87 0 0 1 0-21l39.08-39.08m-39.21 39.13a14.87 14.87 0 0 1-21 0 14.85 14.85 0 0 1 0-21l39.19-39.2m-21.95 149.19L493.4 295.18M411 332.73l-84.33 84.42m29.94-334.69l74.52-74.52a15.73 15.73 0 0 1 22.26 0 15.74 15.74 0 0 1 0 22.25l-74.53 74.52" fill="none" stroke="#000" stroke-linecap="round" stroke-linejoin="round" stroke-width="6.3"/><path d="M378.86 104.71L397 86.55a15.74 15.74 0 0 1 22.25 0 15.73 15.73 0 0 1 0 22.26L401.12 127m0 0l18.15-18.15a15.72 15.72 0 0 1 22.25 0 15.72 15.72 0 0 1 0 22.25l-29.28 29.28" fill="none" stroke="#000" stroke-linecap="round" stroke-linejoin="round" stroke-width="6.3"/><path d="M412.24 160.34l29.28-29.28a15.72 15.72 0 0 1 22.25 0 15.72 15.72 0 0 1 0 22.25l-79.18 78.56-75 75.49a14.87 14.87 0 0 0 0 21 14.88 14.88 0 0 0 21 0m24.32-203.1a35 35 0 0 1 0 49.46" fill="none" stroke="#000" stroke-linecap="round" stroke-linejoin="round" stroke-width="6.3"/><circle cx="442.22" cy="18.84" r="15.69" fill="#ffd500" stroke="#000" stroke-linecap="round" stroke-linejoin="round" stroke-width="6.3"/><circle cx="422.64" cy="172.15" r="15.69" fill="none" stroke="#000" stroke-linecap="round" stroke-linejoin="round" stroke-width="6.3"/><circle cx="401.12" cy="149.26" r="15.69" fill="none" stroke="#000" stroke-linecap="round" stroke-linejoin="round" stroke-width="6.3"/><path d="M346.48 116.82L390 160.34a15.74 15.74 0 0 0 22.25 0 15.72 15.72 0 0 0 0-22.25l-55.64-55.63-1.38-1.38a15.72 15.72 0 0 0-22.25 0L177.61 236.44H0" fill="none" stroke="#000" stroke-linejoin="round" stroke-width="6.3"/><path fill="none" stroke="#000" stroke-linecap="round" stroke-linejoin="round" stroke-width="6.3" d="M346.48 116.82l43.51 43.52"/></svg>