<svg xmlns="http://www.w3.org/2000/svg" viewBox="0 0 584.7 203.7"><path d="M414.4 203.7H251.2c-1.3 0-2.6-.1-4 0-1.9.1-2.5-.8-2.5-2.6.1-3.1 0-6.1 0-9.2V6.6c0-1 .1-2 0-3-.3-2.7.9-3.6 3.6-3.6 12.2.1 24.4 0 36.6 0h295c5.3 0 4.8-.7 4.8 4.7v193.8c0 5 0 5-4.9 5-55.1.2-110.2.2-165.4.2zm42.8-99c-.1 3.2.4 8.4 1 13.6.4 3.1 1.2 6.2 2.1 9.3 4.9 17.6 15.4 25.9 33.6 26.8 17.7.9 31.1-8.1 36.1-25 6-20.1 6-40.5-.3-60.5-2.6-8.2-8.2-14.3-16.5-17.8-6.7-2.8-13.7-2.9-20.7-2.6-14.6.7-25.7 9.3-30.7 23-3.5 10.2-4.5 20.6-4.6 33.2zm-12.5-10.2c-.2-5.4-.5-15.7-4.4-25.5-2.3-5.9-5.6-11.1-11-14.8-7.9-5.4-16.7-6.1-25.9-5.6-15.2.8-25.7 8.6-30.8 22.7-6.7 18.7-6.5 37.8-1.7 56.9 1.4 5.7 4 10.9 8 15.3 6.9 7.7 15.8 10.4 25.9 10.9 16 .7 28.7-7.2 34.7-21.9 4.4-10.6 5.4-21.7 5.2-38zm-105.9-.7s.1 0 0 0c.1-5.9.1-11.8.1-17.8 0-7.8 0-15.6-.1-23.4 0-1.3 0-2.9-1.9-2.8-5.8.3-11.5-1.1-17 3-9 6.6-18.6 12.5-27.9 18.5-1.6 1.1-2 2-.9 3.7 1.5 2.3 2.8 4.7 4.2 7.1 2.1 3.5 2.1 3.6 5.7 1.3 5.4-3.4 10.6-7 16-10.4 3.2-2 3.6-1.8 3.6 1.9 0 20 0 39.9.1 59.9 0 2.4-.9 3-3.1 3-5.4-.1-10.8 0-16.1 0-1.9 0-2.9.5-2.8 2.6.1 3.4.1 6.8 0 10.2 0 1.7.7 2.3 2.3 2.3h56.4c2 0 2.8-.8 2.8-2.7 0-3.1-.1-6.1.1-9.2.2-2.6-1-3.2-3.3-3.2-4.6.1-9.2 0-13.8.1-4.1 0-4.3-.2-4.3-4.2-.1-13.3-.1-26.6-.1-39.9zm-234.4 69.9H84.6c-4.1-.1-8.9 1.2-12-.5-3.2-1.8-4.8-6.5-7-10-5.7-9-11.3-18-16.9-27-1-1.6-2-2.3-3.9-2.2-4.4.1-8.8.1-13.2 0-2.2-.1-2.7.7-2.7 2.8.1 11.3 0 22.6.1 33.9 0 2.7-.8 3.3-3.3 3.2-7.7-.2-15.4-.1-23.1 0-1.9 0-2.7-.5-2.6-2.6.1-39.5.1-79 0-118.4 0-2.1.5-2.8 2.7-2.8 18.3.1 36.7-.3 55 .2 15.7.4 26.6 9.1 33.9 22.5 10.2 18.5 4.4 42.8-13.2 54.1-2 1.3-1.3 2.3-.5 3.6 8.3 13.4 16.6 26.8 25 40.2.7.7 1.5 1.5 1.5 3zM29 81.9c0 4.8.1 9.6 0 14.5-.1 2.1.7 2.6 2.6 2.6 7.6-.1 15.1-.1 22.7-.1 3.7 0 6.6-1.4 8.9-4.2 4.4-5.7 5.1-12.2 3.2-19-2-6.7-6.9-10.3-13.9-10.3-6.9 0-13.8.1-20.7 0-2.2 0-2.8.6-2.8 2.8.1 4.5 0 9.1 0 13.7zm89.7 19.9c0-19.5.1-39-.1-58.6 0-2.6.7-3.3 3.3-3.2 26.5.1 53 .1 79.4 0 2.6 0 3.3.7 3.2 3.3-.2 6.4-.2 12.7 0 19.1.1 2.6-.8 3.1-3.1 3.1-16.5-.1-33-.1-49.4-.1-4.2 0-4.2 0-4.2 4.2 0 5.4.1 10.8-.1 16.1-.1 2.6.5 3.6 3.4 3.5 14.1-.2 28.1 0 42.2-.1 2.8 0 3.5.8 3.4 3.5-.2 5.7-.2 11.4 0 17.1.1 2.3-.7 3-3 2.9-14.3-.1-28.6 0-42.8-.1-2.8 0-3.2.9-3.2 3.4.1 6.5.2 12.9 0 19.4-.1 2.6.7 3.3 3.3 3.3 17.2-.1 34.5 0 51.7-.2 2.8 0 3.5.8 3.4 3.5-.2 6.5-.1 12.9 0 19.4 0 1.9-.5 2.5-2.4 2.5-27.6 0-55.1-.1-82.7 0-2.8 0-2.3-1.5-2.3-3.1v-58.9z"/><path d="M476.3 101.4c.1-7.7.3-15.7 2.5-23.6 3.4-11.9 13.9-17.1 25.2-12.2 4.2 1.8 6.4 5.4 8 9.5 2.2 6 2.9 12.4 3.1 18.7.2 10.3.4 20.6-2.5 30.7-1.4 4.9-3.3 9.8-8 12.4-8.6 4.7-19.9 2.4-24.5-9.1-3.4-8.5-3.6-17.2-3.8-26.4zm-89.3-.5c0-7.8.2-15.5 2.3-23.1 3.7-13.1 17.2-18.4 27.9-10.7 5.1 3.7 6.5 9.6 7.4 15.3 2 13.2 1.9 26.4-.6 39.6-.6 3.3-1.8 6.5-3.6 9.5-3.4 5.8-8.5 8.3-15.2 7.7-6.1-.5-10.5-3.4-13.4-8.8-3.5-6.5-4.4-13.7-4.9-20.9-.1-2.9.1-5.8.1-8.6z"/></svg>