<svg id="layer" xmlns="http://www.w3.org/2000/svg" viewBox="0 0 577.1 404"><style>.st0,.st1{fill:#fff}.st1{fill-rule:evenodd;clip-rule:evenodd}</style><path d="M240.2 44.1c18.6-19.4 44.5-31.4 73.2-31.4 38.1 0 71.3 21.2 89 52.8 15.4-6.9 32.4-10.7 50.3-10.7 68.7 0 124.4 56.2 124.4 125.5s-55.7 125.5-124.4 125.5c-8.4 0-16.6-.8-24.5-2.4-15.6 27.8-45.3 46.6-79.4 46.6-14.3 0-27.8-3.3-39.8-9.2-15.8 37.2-52.6 63.2-95.5 63.2-44.7 0-82.8-28.3-97.4-67.9-6.4 1.3-13 2.1-19.8 2.1-53.2 0-96.3-43.6-96.3-97.3 0-36 19.4-67.5 48.2-84.3-5.9-13.6-9.2-28.7-9.2-44.5C39 50.1 89.1 0 151.1 0c36.3 0 68.6 17.3 89.1 44.1"/><path class="st0" d="M83.6 209.5c-.4 1 .1 1.1.2 1.3 1.1.8 2.2 1.4 3.3 2 5.9 3.1 11.5 4 17.3 4 11.8 0 19.2-6.3 19.2-16.4v-.2c0-9.4-8.3-12.8-16.1-15.2l-1-.3c-5.9-1.9-10.9-3.6-10.9-7.4v-.3c0-3.3 3-5.7 7.5-5.7 5.1 0 11.1 1.7 15 3.9 0 0 1.2.7 1.6-.4.2-.6 2.2-5.9 2.4-6.5s-.2-1.1-.6-1.3c-4.5-2.7-10.6-4.6-17-4.6h-1.2c-10.8 0-18.4 6.5-18.4 15.9v.2c0 9.9 8.3 13.1 16.2 15.3l1.3.4c5.7 1.7 10.6 3.3 10.6 7.3v.2c0 3.7-3.2 6.4-8.3 6.4-2 0-8.4 0-15.3-4.4-.8-.5-1.3-.8-2-1.2-.3-.2-1.2-.6-1.6.5l-2.2 6.5zm173.3 0c-.4 1 .1 1.1.2 1.3 1.1.8 2.2 1.4 3.3 2 5.9 3.1 11.5 4 17.3 4 11.8 0 19.2-6.3 19.2-16.4v-.2c0-9.4-8.3-12.8-16.1-15.2l-1-.3c-5.9-1.9-10.9-3.6-10.9-7.4v-.3c0-3.3 3-5.7 7.5-5.7 5.1 0 11.1 1.7 15 3.9 0 0 1.2.7 1.6-.4.2-.6 2.2-5.9 2.4-6.5.2-.6-.2-1.1-.6-1.3-4.5-2.7-10.6-4.6-17-4.6h-1.2c-10.8 0-18.4 6.5-18.4 15.9v.2c0 9.9 8.4 13.1 16.2 15.3l1.3.4c5.7 1.7 10.6 3.3 10.6 7.3v.2c0 3.7-3.2 6.4-8.3 6.4-2 0-8.4 0-15.3-4.4-.8-.5-1.3-.8-2-1.2-.2-.1-1.2-.5-1.6.5l-2.2 6.5zM385.1 179c-1-3.3-2.5-6.2-4.5-8.6s-4.6-4.4-7.6-5.8-6.6-2.1-10.6-2.1-7.6.7-10.6 2.1-5.6 3.4-7.6 5.8-3.5 5.3-4.5 8.6-1.5 6.8-1.5 10.6.5 7.4 1.5 10.6c1 3.3 2.5 6.2 4.5 8.6s4.6 4.4 7.6 5.7c3 1.4 6.6 2.1 10.6 2.1s7.6-.7 10.6-2.1 5.6-3.3 7.6-5.7c2-2.4 3.5-5.3 4.5-8.6s1.5-6.8 1.5-10.6c0-3.7-.5-7.3-1.5-10.6m-9.8 10.6c0 5.7-1.1 10.2-3.2 13.4-2.1 3.2-5.2 4.7-9.6 4.7s-7.5-1.5-9.6-4.7-3.1-7.7-3.1-13.4 1.1-10.2 3.1-13.4c2.1-3.1 5.2-4.6 9.6-4.6s7.5 1.5 9.6 4.6c2.1 3.2 3.2 7.7 3.2 13.4"/><path class="st1" d="M466.3 206.2c-.3-1-1.3-.6-1.3-.6-1.4.6-3 1.1-4.6 1.3-1.6.3-3.5.4-5.4.4-4.8 0-8.6-1.4-11.3-4.2-2.7-2.8-4.3-7.4-4.2-13.5 0-5.6 1.4-9.8 3.8-13s6.1-4.8 11-4.8c4.1 0 7.2.5 10.4 1.5 0 0 .8.3 1.1-.7.9-2.4 1.5-4.1 2.4-6.8.3-.8-.4-1.1-.6-1.2-1.3-.5-4.3-1.3-6.6-1.7-2.1-.3-4.6-.5-7.4-.5-4.1 0-7.8.7-11 2.1s-5.8 3.3-8 5.8c-2.1 2.4-3.7 5.3-4.8 8.6-1.1 3.3-1.6 6.8-1.6 10.6 0 8.2 2.2 14.8 6.6 19.7 4.4 4.9 10.9 7.3 19.5 7.3 5.1 0 10.3-1 14-2.5 0 0 .7-.3.4-1.2l-2.4-6.6zm50.6-29c-.8-3.2-2.9-6.4-4.3-7.8-2.2-2.3-4.3-3.9-6.4-4.8-2.7-1.2-6-1.9-9.6-1.9-4.2 0-8 .7-11 2.1-3.1 1.4-5.7 3.4-7.7 5.9s-3.6 5.4-4.5 8.7c-1 3.3-1.5 6.9-1.5 10.7 0 3.9.5 7.5 1.5 10.7 1 3.3 2.6 6.1 4.8 8.5s5 4.3 8.4 5.6c3.4 1.3 7.5 2 12.1 2 9.7 0 14.8-2.2 16.8-3.3.4-.2.7-.6.3-1.6l-2.2-6.1c-.3-.9-1.3-.6-1.3-.6-2.4.9-5.8 2.5-13.7 2.5-5.2 0-9-1.5-11.4-3.9-2.5-2.4-3.7-6-3.9-11.1h33.4s.9 0 1-.9c.2-.7 1.3-7.2-.8-14.7m-33.3 7c.5-3.2 1.3-5.8 2.7-7.9 2-3.1 5.2-4.9 9.6-4.9 4.4 0 7.3 1.7 9.4 4.9 1.4 2.1 2 4.8 2.2 7.9h-23.9zm-234.7-7c-.8-3.2-2.9-6.4-4.3-7.8-2.2-2.3-4.3-3.9-6.4-4.8-2.7-1.2-6-1.9-9.6-1.9-4.2 0-8 .7-11.1 2.1s-5.7 3.4-7.7 5.9-3.6 5.4-4.5 8.7c-1 3.3-1.5 6.9-1.5 10.7 0 3.9.5 7.5 1.5 10.7 1 3.3 2.6 6.1 4.8 8.5s5 4.3 8.4 5.6c3.4 1.3 7.5 2 12.1 2 9.7 0 14.8-2.2 16.8-3.3.4-.2.7-.6.3-1.6l-2.2-6.1c-.3-.9-1.3-.6-1.3-.6-2.4.9-5.8 2.5-13.7 2.5-5.2 0-9-1.5-11.4-3.9-2.5-2.4-3.7-6-3.9-11.1h33.4s.9 0 1-.9c.4-.7 1.5-7.2-.7-14.7m-33.2 7c.5-3.2 1.3-5.8 2.7-7.9 2.1-3.1 5.2-4.9 9.6-4.9s7.3 1.7 9.4 4.9c1.4 2.1 2 4.8 2.2 7.9h-23.9z"/><path class="st0" d="M156.7 182.6c-1.4-.1-3.1-.2-5.2-.2-2.9 0-5.6.4-8.2 1.1-2.6.7-5 1.8-7 3.2-2 1.5-3.7 3.3-4.9 5.5s-1.8 4.8-1.8 7.7c0 3 .5 5.5 1.5 7.6s2.5 3.9 4.4 5.2c1.9 1.4 4.2 2.4 6.8 3s5.6.9 8.9.9c3.4 0 6.8-.3 10.2-.8 3.3-.6 7.3-1.4 8.4-1.6 1.1-.3 2.3-.6 2.3-.6.8-.2.8-1.1.8-1.1v-30.6c0-6.7-1.8-11.7-5.3-14.8-3.5-3.1-8.7-4.6-15.4-4.6-2.5 0-6.5.3-9 .8 0 0-7.3 1.4-10.3 3.8 0 0-.7.4-.3 1.3l2.4 6.4c.3.8 1.1.5 1.1.5s.3-.1.6-.3c6.4-3.5 14.6-3.4 14.6-3.4 3.6 0 6.4.7 8.3 2.2 1.8 1.4 2.7 3.5 2.7 8v1.4c-3-.4-5.6-.6-5.6-.6m-13.4 23.5c-1.3-1-1.5-1.3-1.9-2-.7-1-1-2.5-1-4.4 0-2.9 1-5.1 3-6.5 0 0 2.9-2.5 9.7-2.4 4.8.1 9.1.8 9.1.8v15.2s-4.2.9-9 1.2c-6.9.4-9.9-1.9-9.9-1.9"/><path class="st1" d="M426.5 165.3c.3-.8-.3-1.1-.5-1.2-.6-.2-3.4-.8-5.6-1-4.2-.3-6.5.4-8.6 1.4-2.1.9-4.4 2.5-5.6 4.2v-4.1c0-.6-.4-1-1-1h-8.6c-.6 0-1 .4-1 1v49.9c0 .6.4 1 1 1h8.8c.6 0 1-.4 1-1v-24.9c0-3.4.4-6.7 1.1-8.8.7-2.1 1.7-3.7 2.9-4.9 1.2-1.2 2.6-2 4.1-2.5 1.6-.5 3.3-.6 4.5-.6 1.8 0 3.7.5 3.7.5.7.1 1-.3 1.2-.9.6-1.6 2.3-6.2 2.6-7.1M344 142.2c-1.1-.3-2-.6-3.3-.8-1.3-.2-2.8-.4-4.5-.4-6 0-10.8 1.7-14.2 5.1-3.3 3.4-5.6 8.5-6.7 15.2l-.4 2.3h-7.6s-.9 0-1.1 1l-1.2 7c-.1.7.2 1.1 1.1 1.1h7.4l-7.5 41.9c-.6 3.4-1.3 6.1-2 8.2s-1.5 3.6-2.3 4.8c-.9 1.1-1.7 1.9-3.1 2.4-1.2.4-2.5.6-3.9.6-.8 0-1.9-.1-2.7-.3-.8-.2-1.2-.3-1.8-.6 0 0-.9-.3-1.2.5-.3.7-2.2 6.1-2.5 6.8-.2.7.1 1.2.5 1.3 1 .3 1.7.6 3.1.9 1.9.4 3.4.5 4.9.5 3.1 0 5.9-.4 8.2-1.3 2.3-.8 4.4-2.3 6.2-4.3 1.9-2.2 3.2-4.4 4.3-7.5 1.2-3 2.1-6.8 2.9-11.2l7.5-42.6h11s.9 0 1.1-1l1.2-7c.1-.7-.2-1.1-1.1-1.1h-10.7c.1-.2.5-4 1.8-7.5.5-1.5 1.5-2.7 2.3-3.6.8-.8 1.8-1.4 2.8-1.7 1.1-.3 2.3-.5 3.6-.5 1 0 2 .1 2.7.3 1 .2 1.4.3 1.7.4 1.1.3 1.2 0 1.5-.5l2.6-7c.3-1-.4-1.3-.6-1.4m-149.5 72.3c0 .6-.4 1-1 1h-8.9c-.6 0-1-.5-1-1v-71.4c0-.6.4-1 1-1h8.9c.6 0 1 .4 1 1v71.4z"/></svg>