<svg id="layer" xmlns="http://www.w3.org/2000/svg" xmlns:xlink="http://www.w3.org/1999/xlink" viewBox="0 0 484.2 413.5"><style>.st0,.st1{clip-path:url(#SVGID_2_);fill:#fff}.st1{clip-path:url(#SVGID_4_)}.st2,.st3{clip-path:url(#SVGID_7_);fill:#fff}.st3{clip-path:url(#SVGID_9_)}.st4,.st5{clip-path:url(#SVGID_11_);fill:#fff}.st5{clip-path:url(#SVGID_13_)}.st6,.st7{clip-path:url(#SVGID_15_);fill:#fff}.st7{clip-path:url(#SVGID_17_)}.st8,.st9{clip-path:url(#SVGID_19_);fill:#fff}.st9{clip-path:url(#SVGID_21_)}.st10,.st11{clip-path:url(#SVGID_23_);fill:#fff}.st11{clip-path:url(#SVGID_25_)}.st12,.st13{clip-path:url(#SVGID_27_);fill:#fff}.st13{clip-path:url(#SVGID_29_)}.st14,.st15{clip-path:url(#SVGID_31_);fill:#fff}.st15{clip-path:url(#SVGID_33_)}.st16,.st17{clip-path:url(#SVGID_35_);fill:#fff}.st17{clip-path:url(#SVGID_37_)}.st18{clip-path:url(#SVGID_39_);fill:none;stroke:#fff;stroke-width:2.012143e-2;stroke-miterlimit:10}</style><path id="SVGID_5_" d="M360.8.5c-.1.1-.1.1-.2.1l-.1.1c-.2.1-.3.2-.5.4s-.5.3-.7.5l-18.6 13.2-.6-.9s-.3-.6-1-.3c-.1 0-.1.1-.2.1-.1.1-.2.1-.2.1-.1.1-.2.1-.2.1l-18.2 10.4-.9-.8c-.5-.5-1.1-.5-1.4-.4-.1 0-.1.1-.2.1l-21.2 7.3v-1c0-.9-1-.7-1-.7l-21 4.7-1-1c-.5-.5-1-.6-1.3-.6l-24.1 6-1.5-1.9c-.9-1.1-1.9-1.1-2.3-1l-24.6 5.6-1-1.4c-.9-1.3-2.7-.9-2.8-.8l-23.3 6.3v-1.6c0-1-.8-1.1-1.4-1l-10.4 2.6c-11.6 3.4-18.5 6.8-18.5 6.8l-.8-1.4c-.6-1-1.6-.9-2.1-.7l-.3.1-7.9 3.1c-11.8 5.1-21.1 10.3-21.1 10.3l-1.2-2.2c-.6-1.1-2.3-.3-2.3-.3-20.9 10.9-29.3 17.5-31.8 19.8l-1.4-1.4c-.1-.1-.6-.4-1.2-.2-.5.2-.9.6-.9.6-4.4 3.4-9.6 8.4-14.4 13.3-8.3 8.3-14 15.4-14 15.4l-2.7-1.5c-1.3-.7-2-.3-2.4.2l-.3.4-6.8 9.9C43.1 129 38 139.3 38 139.3l-2.7-1.2c-.6 0-1.3 1.2-1.3 1.2l-11.5 32.2-2.1-.4c-2.1-.4-2.2.8-2.2.8-.4 1-.7 2-1 3-.3 1-.6 2.1-.9 3.2-.9 3.3-1.7 6.7-2.3 10.1 0 .1 0 .1-.1.2-.2.7-.3 1.5-.4 2.2-.1.4-.1.7-.2 1-2.1 12-3 22.5-3 22.5H7.1c-1 0-1.1 1.3-1.2 1.4 0 0-4.7 23.9-3.4 43.4H1.1C-.1 258.9 0 260 0 260c-.1 7.2.4 14.4 1 21.2.6 7.5 1.6 16.6 3.5 25l.3 1.8-3.1.7c-1.4.3-1.3 2.2-1.3 2.2s2.3 31.5 9 46.1l-2.4.3-.6.1c-.5.2-1.1.8-.7 2.6 0 0 .1.5.3 1.4 2.6 13.6 6.4 24.7 10.6 34.3l.3-.2s61.8-40.4 215.3 0c150.1 39.5 220.4 1.8 223.5.1 1-1.9 2.1-3.7 3-5.5 7.2-13.1 11.7-24.6 13.3-29.1.3-.7.5-1.4.7-2.1 0-.2.1-1-.8-1h-2.8s12-29.9 14.7-48.8c.2-1.3.3-2.5.4-3.8 0-.2-.2-1-1-1h-3.4s5.2-32.5 2.9-53c-.2-1.5-.5-3.1-.7-4.6-.1-.3-.5-.7-1.3-.7h-4.1s-.2-25.2-8.1-48.7c-1.7-4.4-3.5-8.8-5.4-13.1-.1-.2-.4-.5-.9-.5h-2.6s-14.1-33-20.4-43.1c-.1-.2-.2-.3-.3-.4-.3-.4-.7-.5-.8-.5h-3.8s-7.4-15.9-16.1-28.4c-1.3-1.7-2.6-3.4-4-5-.6-.7-1.2-1.5-1.8-2.2-.5-.6-1.2-.4-1.2-.3l-2.3.9L394 80.1c-.4-.6-.9-.5-1-.4l-1.3.5-10.5-19.9s-.4-.7-1.1-.3l-1.4.9-7.2-19.9c-.3-.7-.6-.8-.9-.9h-1.7L365 21.2c-.1-.6-.9-.8-.9-.8h-.9l-.8-16.6c-.1-1-.2-2.1-.2-3.1 0 0 0-.7-.5-.7-.2.1-.5.2-.9.5"/><defs><path id="SVGID_1_" d="M360.8.5c-.1.1-.1.1-.2.1l-.1.1c-.2.1-.3.2-.5.4s-.5.3-.7.5l-18.6 13.2-.6-.9s-.3-.6-1-.3c-.1 0-.1.1-.2.1-.1.1-.2.1-.2.1-.1.1-.2.1-.2.1l-18.2 10.4-.9-.8c-.5-.5-1.1-.5-1.4-.4-.1 0-.1.1-.2.1l-21.2 7.3v-1c0-.9-1-.7-1-.7l-21 4.7-1-1c-.5-.5-1-.6-1.3-.6l-24.1 6-1.5-1.9c-.9-1.1-1.9-1.1-2.3-1l-24.6 5.6-1-1.4c-.9-1.3-2.7-.9-2.8-.8l-23.3 6.3v-1.6c0-1-.8-1.1-1.4-1l-10.4 2.6c-11.6 3.4-18.5 6.8-18.5 6.8l-.8-1.4c-.6-1-1.6-.9-2.1-.7l-.3.1-7.9 3.1c-11.8 5.1-21.1 10.3-21.1 10.3l-1.2-2.2c-.6-1.1-2.3-.3-2.3-.3-20.9 10.9-29.3 17.5-31.8 19.8l-1.4-1.4c-.1-.1-.6-.4-1.2-.2-.5.2-.9.6-.9.6-4.4 3.4-9.6 8.4-14.4 13.3-8.3 8.3-14 15.4-14 15.4l-2.7-1.5c-1.3-.7-2-.3-2.4.2l-.3.4-6.8 9.9C43.1 129 38 139.3 38 139.3l-2.7-1.2c-.6 0-1.3 1.2-1.3 1.2l-11.5 32.2-2.1-.4c-2.1-.4-2.2.8-2.2.8-.4 1-.7 2-1 3-.3 1-.6 2.1-.9 3.2-.9 3.3-1.7 6.7-2.3 10.1 0 .1 0 .1-.1.2-.2.7-.3 1.5-.4 2.2-.1.4-.1.7-.2 1-2.1 12-3 22.5-3 22.5H7.1c-1 0-1.1 1.3-1.2 1.4 0 0-4.7 23.9-3.4 43.4H1.1C-.1 258.9 0 260 0 260c-.1 7.2.4 14.4 1 21.2.6 7.5 1.6 16.6 3.5 25l.3 1.8-3.1.7c-1.4.3-1.3 2.2-1.3 2.2s2.3 31.5 9 46.1l-2.4.3-.6.1c-.5.2-1.1.8-.7 2.6 0 0 .1.5.3 1.4 2.6 13.6 6.4 24.7 10.6 34.3l.3-.2s61.8-40.4 215.3 0c150.1 39.5 220.4 1.8 223.5.1 1-1.9 2.1-3.7 3-5.5 7.2-13.1 11.7-24.6 13.3-29.1.3-.7.5-1.4.7-2.1 0-.2.1-1-.8-1h-2.8s12-29.9 14.7-48.8c.2-1.3.3-2.5.4-3.8 0-.2-.2-1-1-1h-3.4s5.2-32.5 2.9-53c-.2-1.5-.5-3.1-.7-4.6-.1-.3-.5-.7-1.3-.7h-4.1s-.2-25.2-8.1-48.7c-1.7-4.4-3.5-8.8-5.4-13.1-.1-.2-.4-.5-.9-.5h-2.6s-14.1-33-20.4-43.1c-.1-.2-.2-.3-.3-.4-.3-.4-.7-.5-.8-.5h-3.8s-7.4-15.9-16.1-28.4c-1.3-1.7-2.6-3.4-4-5-.6-.7-1.2-1.5-1.8-2.2-.5-.6-1.2-.4-1.2-.3l-2.3.9L394 80.1c-.4-.6-.9-.5-1-.4l-1.3.5-10.5-19.9s-.4-.7-1.1-.3l-1.4.9-7.2-19.9c-.3-.7-.6-.8-.9-.9h-1.7L365 21.2c-.1-.6-.9-.8-.9-.8h-.9l-.8-16.6c-.1-1-.2-2.1-.2-3.1 0 0 0-.7-.5-.7-.2.1-.5.2-.9.5"/></defs><clipPath id="SVGID_2_"><use xlink:href="#SVGID_1_" overflow="visible"/></clipPath><path class="st0" d="M69.2 251c6.7 0 13.1-2.4 17.2-6.6 3-3 4.6-6.7 4.5-10.6-.1-9.8-6.8-16-13.2-21-2.5-2-5.2-3.7-7.6-5.2-3.7-2.4-7-4.4-8.2-6.6-1.1-2.2-1.4-4-1-5.7.6-2.3 3.4-6.3 10.1-6.9.2 0 5.2-.2 9 2.5 2.1 1.4 3.8 3.3 5.3 4.7l.2.2c.8.8 2.2 1.4 3.1.7.8-.6.8-1.8-.2-3-4.3-6.3-10.5-9.3-18.3-9-11.2.5-19.5 7-19.8 15.4-.3 8.2 5.9 14.3 11.1 18 .8.5 1.9 1.2 3.1 2.1 1.8 1.2 4 2.7 6.2 4.2 5.4 3.8 10.2 7.5 9.8 12.8-.4 4.2-2.8 9.2-12 9.2-8.1 0-12.8-4.6-15-7.3-.7-.8-1.4-1.1-2-1.1-.4 0-.7.1-.8.3-.6.4-.7 1.1-.8 1.5-.1 1.1.3 2.3 1 3.1 4.9 5.6 10.9 8.2 18.3 8.3"/><defs><path id="SVGID_3_" d="M360.8.5c-.1.1-.1.1-.2.1l-.1.1c-.2.1-.3.2-.5.4s-.5.3-.7.5l-18.6 13.2-.6-.9s-.3-.6-1-.3c-.1 0-.1.1-.2.1-.1.1-.2.1-.2.1-.1.1-.2.1-.2.1l-18.2 10.4-.9-.8c-.5-.5-1.1-.5-1.4-.4-.1 0-.1.1-.2.1l-21.2 7.3v-1c0-.9-1-.7-1-.7l-21 4.7-1-1c-.5-.5-1-.6-1.3-.6l-24.1 6-1.5-1.9c-.9-1.1-1.9-1.1-2.3-1l-24.6 5.6-1-1.4c-.9-1.3-2.7-.9-2.8-.8l-23.3 6.3v-1.6c0-1-.8-1.1-1.4-1l-10.4 2.6c-11.6 3.4-18.5 6.8-18.5 6.8l-.8-1.4c-.6-1-1.6-.9-2.1-.7l-.3.1-7.9 3.1c-11.8 5.1-21.1 10.3-21.1 10.3l-1.2-2.2c-.6-1.1-2.3-.3-2.3-.3-20.9 10.9-29.3 17.5-31.8 19.8l-1.4-1.4c-.1-.1-.6-.4-1.2-.2-.5.2-.9.6-.9.6-4.4 3.4-9.6 8.4-14.4 13.3-8.3 8.3-14 15.4-14 15.4l-2.7-1.5c-1.3-.7-2-.3-2.4.2l-.3.4-6.8 9.9C43.1 129 38 139.3 38 139.3l-2.7-1.2c-.6 0-1.3 1.2-1.3 1.2l-11.5 32.2-2.1-.4c-2.1-.4-2.2.8-2.2.8-.4 1-.7 2-1 3-.3 1-.6 2.1-.9 3.2-.9 3.3-1.7 6.7-2.3 10.1 0 .1 0 .1-.1.2-.2.7-.3 1.5-.4 2.2-.1.4-.1.7-.2 1-2.1 12-3 22.5-3 22.5H7.1c-1 0-1.1 1.3-1.2 1.4 0 0-4.7 23.9-3.4 43.4H1.1C-.1 258.9 0 260 0 260c-.1 7.2.4 14.4 1 21.2.6 7.5 1.6 16.6 3.5 25l.3 1.8-3.1.7c-1.4.3-1.3 2.2-1.3 2.2s2.3 31.5 9 46.1l-2.4.3-.6.1c-.5.2-1.1.8-.7 2.6 0 0 .1.5.3 1.4 2.6 13.6 6.4 24.7 10.6 34.3l.3-.2s61.8-40.4 215.3 0c150.1 39.5 220.4 1.8 223.5.1 1-1.9 2.1-3.7 3-5.5 7.2-13.1 11.7-24.6 13.3-29.1.3-.7.5-1.4.7-2.1 0-.2.1-1-.8-1h-2.8s12-29.9 14.7-48.8c.2-1.3.3-2.5.4-3.8 0-.2-.2-1-1-1h-3.4s5.2-32.5 2.9-53c-.2-1.5-.5-3.1-.7-4.6-.1-.3-.5-.7-1.3-.7h-4.1s-.2-25.2-8.1-48.7c-1.7-4.4-3.5-8.8-5.4-13.1-.1-.2-.4-.5-.9-.5h-2.6s-14.1-33-20.4-43.1c-.1-.2-.2-.3-.3-.4-.3-.4-.7-.5-.8-.5h-3.8s-7.4-15.9-16.1-28.4c-1.3-1.7-2.6-3.4-4-5-.6-.7-1.2-1.5-1.8-2.2-.5-.6-1.2-.4-1.2-.3l-2.3.9L394 80.1c-.4-.6-.9-.5-1-.4l-1.3.5-10.5-19.9s-.4-.7-1.1-.3l-1.4.9-7.2-19.9c-.3-.7-.6-.8-.9-.9h-1.7L365 21.2c-.1-.6-.9-.8-.9-.8h-.9l-.8-16.6c-.1-1-.2-2.1-.2-3.1 0 0 0-.7-.5-.7-.2.1-.5.2-.9.5"/></defs><clipPath id="SVGID_4_"><use xlink:href="#SVGID_3_" overflow="visible"/></clipPath><path class="st1" d="M326.8 251h.1c.3 0 .9 0 1.2-.3.2-.2.2-.4.2-.7v-41.2c0-15.2-7.9-23.9-21.7-23.9-12 0-17.9 10.2-18 10.3l-.6 1.1v-10.6c0-.4-.1-.6-.3-.8-.3-.3-.9-.2-1.1-.2h-.1c-.1 0-10.1 1.2-10.1 14.8v41.7c0 6.3 3.5 9.7 10.1 9.7 1.3 0 1.5-.6 1.5-1.1v-51.3l.1-.1c.3-.3 6.9-7.1 14.9-7.1 13.5 0 13.7 16.9 13.7 17.1V240c.1 11 7.7 11 10.1 11"/><defs><path id="SVGID_6_" d="M360.8.5c-.1.1-.1.1-.2.1l-.1.1c-.2.1-.3.2-.5.4s-.5.3-.7.5l-18.6 13.2-.6-.9s-.3-.6-1-.3c-.1 0-.1.1-.2.1-.1.1-.2.1-.2.1-.1.1-.2.1-.2.1l-18.2 10.4-.9-.8c-.5-.5-1.1-.5-1.4-.4-.1 0-.1.1-.2.1l-21.2 7.3v-1c0-.9-1-.7-1-.7l-21 4.7-1-1c-.5-.5-1-.6-1.3-.6l-24.1 6-1.5-1.9c-.9-1.1-1.9-1.1-2.3-1l-24.6 5.6-1-1.4c-.9-1.3-2.7-.9-2.8-.8l-23.3 6.3v-1.6c0-1-.8-1.1-1.4-1l-10.4 2.6c-11.6 3.4-18.5 6.8-18.5 6.8l-.8-1.4c-.6-1-1.6-.9-2.1-.7l-.3.1-7.9 3.1c-11.8 5.1-21.1 10.3-21.1 10.3l-1.2-2.2c-.6-1.1-2.3-.3-2.3-.3-20.9 10.9-29.3 17.5-31.8 19.8l-1.4-1.4c-.1-.1-.6-.4-1.2-.2-.5.2-.9.6-.9.6-4.4 3.4-9.6 8.4-14.4 13.3-8.3 8.3-14 15.4-14 15.4l-2.7-1.5c-1.3-.7-2-.3-2.4.2l-.3.4-6.8 9.9C43.1 129 38 139.3 38 139.3l-2.7-1.2c-.6 0-1.3 1.2-1.3 1.2l-11.5 32.2-2.1-.4c-2.1-.4-2.2.8-2.2.8-.4 1-.7 2-1 3-.3 1-.6 2.1-.9 3.2-.9 3.3-1.7 6.7-2.3 10.1 0 .1 0 .1-.1.2-.2.7-.3 1.5-.4 2.2-.1.4-.1.7-.2 1-2.1 12-3 22.5-3 22.5H7.1c-1 0-1.1 1.3-1.2 1.4 0 0-4.7 23.9-3.4 43.4H1.1C-.1 258.9 0 260 0 260c-.1 7.2.4 14.4 1 21.2.6 7.5 1.6 16.6 3.5 25l.3 1.8-3.1.7c-1.4.3-1.3 2.2-1.3 2.2s2.3 31.5 9 46.1l-2.4.3-.6.1c-.5.2-1.1.8-.7 2.6 0 0 .1.5.3 1.4 2.6 13.6 6.4 24.7 10.6 34.3l.3-.2s61.8-40.4 215.3 0c150.1 39.5 220.4 1.8 223.5.1 1-1.9 2.1-3.7 3-5.5 7.2-13.1 11.7-24.6 13.3-29.1.3-.7.5-1.4.7-2.1 0-.2.1-1-.8-1h-2.8s12-29.9 14.7-48.8c.2-1.3.3-2.5.4-3.8 0-.2-.2-1-1-1h-3.4s5.2-32.5 2.9-53c-.2-1.5-.5-3.1-.7-4.6-.1-.3-.5-.7-1.3-.7h-4.1s-.2-25.2-8.1-48.7c-1.7-4.4-3.5-8.8-5.4-13.1-.1-.2-.4-.5-.9-.5h-2.6s-14.1-33-20.4-43.1c-.1-.2-.2-.3-.3-.4-.3-.4-.7-.5-.8-.5h-3.8s-7.4-15.9-16.1-28.4c-1.3-1.7-2.6-3.4-4-5-.6-.7-1.2-1.5-1.8-2.2-.5-.6-1.2-.4-1.2-.3l-2.3.9L394 80.1c-.4-.6-.9-.5-1-.4l-1.3.5-10.5-19.9s-.4-.7-1.1-.3l-1.4.9-7.2-19.9c-.3-.7-.6-.8-.9-.9h-1.7L365 21.2c-.1-.6-.9-.8-.9-.8h-.9l-.8-16.6c-.1-1-.2-2.1-.2-3.1 0 0 0-.7-.5-.7-.2.1-.5.2-.9.5"/></defs><clipPath id="SVGID_7_"><use xlink:href="#SVGID_6_" overflow="visible"/></clipPath><path class="st2" d="M200.9 265.3c-11.5 0-20.8 7.3-20.8 23.1s9 23.1 20.8 23.1h.1c8 0 12.3-4 14.8-6.9 1.1-1.3 1.3-2.6.3-3.4-.4-.3-1.7-.4-2.5.5-2.1 2.2-6.3 5.6-12.3 5.6h-.4c-10.3 0-11.6-10.6-11.7-17.7h27.9c.9 0 1.8-.5 1.8-1.9 0-13-7-22.4-18-22.4m-.3 4.2c9.1 0 11 8.2 11.4 15.6h-22.8c.5-7.2 2.5-15.6 11.4-15.6"/><defs><path id="SVGID_8_" d="M360.8.5c-.1.1-.1.1-.2.1l-.1.1c-.2.1-.3.2-.5.4s-.5.3-.7.5l-18.6 13.2-.6-.9s-.3-.6-1-.3c-.1 0-.1.1-.2.1-.1.1-.2.1-.2.1-.1.1-.2.1-.2.1l-18.2 10.4-.9-.8c-.5-.5-1.1-.5-1.4-.4-.1 0-.1.1-.2.1l-21.2 7.3v-1c0-.9-1-.7-1-.7l-21 4.7-1-1c-.5-.5-1-.6-1.3-.6l-24.1 6-1.5-1.9c-.9-1.1-1.9-1.1-2.3-1l-24.6 5.6-1-1.4c-.9-1.3-2.7-.9-2.8-.8l-23.3 6.3v-1.6c0-1-.8-1.1-1.4-1l-10.4 2.6c-11.6 3.4-18.5 6.8-18.5 6.8l-.8-1.4c-.6-1-1.6-.9-2.1-.7l-.3.1-7.9 3.1c-11.8 5.1-21.1 10.3-21.1 10.3l-1.2-2.2c-.6-1.1-2.3-.3-2.3-.3-20.9 10.9-29.3 17.5-31.8 19.8l-1.4-1.4c-.1-.1-.6-.4-1.2-.2-.5.2-.9.6-.9.6-4.4 3.4-9.6 8.4-14.4 13.3-8.3 8.3-14 15.4-14 15.4l-2.7-1.5c-1.3-.7-2-.3-2.4.2l-.3.4-6.8 9.9C43.1 129 38 139.3 38 139.3l-2.7-1.2c-.6 0-1.3 1.2-1.3 1.2l-11.5 32.2-2.1-.4c-2.1-.4-2.2.8-2.2.8-.4 1-.7 2-1 3-.3 1-.6 2.1-.9 3.2-.9 3.3-1.7 6.7-2.3 10.1 0 .1 0 .1-.1.2-.2.7-.3 1.5-.4 2.2-.1.4-.1.7-.2 1-2.1 12-3 22.5-3 22.5H7.1c-1 0-1.1 1.3-1.2 1.4 0 0-4.7 23.9-3.4 43.4H1.1C-.1 258.9 0 260 0 260c-.1 7.2.4 14.4 1 21.2.6 7.5 1.6 16.6 3.5 25l.3 1.8-3.1.7c-1.4.3-1.3 2.2-1.3 2.2s2.3 31.5 9 46.1l-2.4.3-.6.1c-.5.2-1.1.8-.7 2.6 0 0 .1.5.3 1.4 2.6 13.6 6.4 24.7 10.6 34.3l.3-.2s61.8-40.4 215.3 0c150.1 39.5 220.4 1.8 223.5.1 1-1.9 2.1-3.7 3-5.5 7.2-13.1 11.7-24.6 13.3-29.1.3-.7.5-1.4.7-2.1 0-.2.1-1-.8-1h-2.8s12-29.9 14.7-48.8c.2-1.3.3-2.5.4-3.8 0-.2-.2-1-1-1h-3.4s5.2-32.5 2.9-53c-.2-1.5-.5-3.1-.7-4.6-.1-.3-.5-.7-1.3-.7h-4.1s-.2-25.2-8.1-48.7c-1.7-4.4-3.5-8.8-5.4-13.1-.1-.2-.4-.5-.9-.5h-2.6s-14.1-33-20.4-43.1c-.1-.2-.2-.3-.3-.4-.3-.4-.7-.5-.8-.5h-3.8s-7.4-15.9-16.1-28.4c-1.3-1.7-2.6-3.4-4-5-.6-.7-1.2-1.5-1.8-2.2-.5-.6-1.2-.4-1.2-.3l-2.3.9L394 80.1c-.4-.6-.9-.5-1-.4l-1.3.5-10.5-19.9s-.4-.7-1.1-.3l-1.4.9-7.2-19.9c-.3-.7-.6-.8-.9-.9h-1.7L365 21.2c-.1-.6-.9-.8-.9-.8h-.9l-.8-16.6c-.1-1-.2-2.1-.2-3.1 0 0 0-.7-.5-.7-.2.1-.5.2-.9.5"/></defs><clipPath id="SVGID_9_"><use xlink:href="#SVGID_8_" overflow="visible"/></clipPath><path class="st3" d="M114.8 265.3c-11.5 0-20.8 7.3-20.8 23.1s9 23.1 20.8 23.1h.1c8 0 12.3-4 14.8-6.9 1.1-1.3 1.3-2.6.3-3.4-.4-.3-1.7-.4-2.5.5-2.1 2.2-6.3 5.6-12.3 5.6h-.4c-10.3 0-11.6-10.6-11.7-17.7H131c.9 0 1.8-.5 1.8-1.9 0-13-7-22.4-18-22.4m-.2 4.2c9.1 0 11 8.2 11.4 15.6h-22.8c.4-7.2 2.4-15.6 11.4-15.6"/><defs><path id="SVGID_10_" d="M360.8.5c-.1.1-.1.1-.2.1l-.1.1c-.2.1-.3.2-.5.4s-.5.3-.7.5l-18.6 13.2-.6-.9s-.3-.6-1-.3c-.1 0-.1.1-.2.1-.1.1-.2.1-.2.1-.1.1-.2.1-.2.1l-18.2 10.4-.9-.8c-.5-.5-1.1-.5-1.4-.4-.1 0-.1.1-.2.1l-21.2 7.3v-1c0-.9-1-.7-1-.7l-21 4.7-1-1c-.5-.5-1-.6-1.3-.6l-24.1 6-1.5-1.9c-.9-1.1-1.9-1.1-2.3-1l-24.6 5.6-1-1.4c-.9-1.3-2.7-.9-2.8-.8l-23.3 6.3v-1.6c0-1-.8-1.1-1.4-1l-10.4 2.6c-11.6 3.4-18.5 6.8-18.5 6.8l-.8-1.4c-.6-1-1.6-.9-2.1-.7l-.3.1-7.9 3.1c-11.8 5.1-21.1 10.3-21.1 10.3l-1.2-2.2c-.6-1.1-2.3-.3-2.3-.3-20.9 10.9-29.3 17.5-31.8 19.8l-1.4-1.4c-.1-.1-.6-.4-1.2-.2-.5.2-.9.6-.9.6-4.4 3.4-9.6 8.4-14.4 13.3-8.3 8.3-14 15.4-14 15.4l-2.7-1.5c-1.3-.7-2-.3-2.4.2l-.3.4-6.8 9.9C43.1 129 38 139.3 38 139.3l-2.7-1.2c-.6 0-1.3 1.2-1.3 1.2l-11.5 32.2-2.1-.4c-2.1-.4-2.2.8-2.2.8-.4 1-.7 2-1 3-.3 1-.6 2.1-.9 3.2-.9 3.3-1.7 6.7-2.3 10.1 0 .1 0 .1-.1.2-.2.7-.3 1.5-.4 2.2-.1.4-.1.7-.2 1-2.1 12-3 22.5-3 22.5H7.1c-1 0-1.1 1.3-1.2 1.4 0 0-4.7 23.9-3.4 43.4H1.1C-.1 258.9 0 260 0 260c-.1 7.2.4 14.4 1 21.2.6 7.5 1.6 16.6 3.5 25l.3 1.8-3.1.7c-1.4.3-1.3 2.2-1.3 2.2s2.3 31.5 9 46.1l-2.4.3-.6.1c-.5.2-1.1.8-.7 2.6 0 0 .1.5.3 1.4 2.6 13.6 6.4 24.7 10.6 34.3l.3-.2s61.8-40.4 215.3 0c150.1 39.5 220.4 1.8 223.5.1 1-1.9 2.1-3.7 3-5.5 7.2-13.1 11.7-24.6 13.3-29.1.3-.7.5-1.4.7-2.1 0-.2.1-1-.8-1h-2.8s12-29.9 14.7-48.8c.2-1.3.3-2.5.4-3.8 0-.2-.2-1-1-1h-3.4s5.2-32.5 2.9-53c-.2-1.5-.5-3.1-.7-4.6-.1-.3-.5-.7-1.3-.7h-4.1s-.2-25.2-8.1-48.7c-1.7-4.4-3.5-8.8-5.4-13.1-.1-.2-.4-.5-.9-.5h-2.6s-14.1-33-20.4-43.1c-.1-.2-.2-.3-.3-.4-.3-.4-.7-.5-.8-.5h-3.8s-7.4-15.9-16.1-28.4c-1.3-1.7-2.6-3.4-4-5-.6-.7-1.2-1.5-1.8-2.2-.5-.6-1.2-.4-1.2-.3l-2.3.9L394 80.1c-.4-.6-.9-.5-1-.4l-1.3.5-10.5-19.9s-.4-.7-1.1-.3l-1.4.9-7.2-19.9c-.3-.7-.6-.8-.9-.9h-1.7L365 21.2c-.1-.6-.9-.8-.9-.8h-.9l-.8-16.6c-.1-1-.2-2.1-.2-3.1 0 0 0-.7-.5-.7-.2.1-.5.2-.9.5"/></defs><clipPath id="SVGID_11_"><use xlink:href="#SVGID_10_" overflow="visible"/></clipPath><path class="st4" d="M152.5 216.7c0-19.2-10.3-32.1-25.7-32.1-8.6 0-15.9 2.8-21.1 8-5.7 5.8-8.7 14.4-8.7 25.1 0 20.8 11.1 33.2 29.9 33.2h.2c11.4 0 17.5-5.7 21.2-10 .9-1.1 1.3-2.2 1.3-3-.1-.6-.3-1-.8-1.4-.4-.4-2.1-.5-3.3.7-2.9 3.1-9.1 8.3-18 8.3h-.6c-15.6 0-17.5-14.8-17.6-26v-.3h41.1c.8-.1 2.1-.8 2.1-2.5m-43.4-3.6v-.4c.4-9.9 2.6-22.9 17.2-22.9 14 0 16.3 13.1 16.8 23v.4l-34-.1z"/><defs><path id="SVGID_12_" d="M360.8.5c-.1.1-.1.1-.2.1l-.1.1c-.2.1-.3.2-.5.4s-.5.3-.7.5l-18.6 13.2-.6-.9s-.3-.6-1-.3c-.1 0-.1.1-.2.1-.1.1-.2.1-.2.1-.1.1-.2.1-.2.1l-18.2 10.4-.9-.8c-.5-.5-1.1-.5-1.4-.4-.1 0-.1.1-.2.1l-21.2 7.3v-1c0-.9-1-.7-1-.7l-21 4.7-1-1c-.5-.5-1-.6-1.3-.6l-24.1 6-1.5-1.9c-.9-1.1-1.9-1.1-2.3-1l-24.6 5.6-1-1.4c-.9-1.3-2.7-.9-2.8-.8l-23.3 6.3v-1.6c0-1-.8-1.1-1.4-1l-10.4 2.6c-11.6 3.4-18.5 6.8-18.5 6.8l-.8-1.4c-.6-1-1.6-.9-2.1-.7l-.3.1-7.9 3.1c-11.8 5.1-21.1 10.3-21.1 10.3l-1.2-2.2c-.6-1.1-2.3-.3-2.3-.3-20.9 10.9-29.3 17.5-31.8 19.8l-1.4-1.4c-.1-.1-.6-.4-1.2-.2-.5.2-.9.6-.9.6-4.4 3.4-9.6 8.4-14.4 13.3-8.3 8.3-14 15.4-14 15.4l-2.7-1.5c-1.3-.7-2-.3-2.4.2l-.3.4-6.8 9.9C43.1 129 38 139.3 38 139.3l-2.7-1.2c-.6 0-1.3 1.2-1.3 1.2l-11.5 32.2-2.1-.4c-2.1-.4-2.2.8-2.2.8-.4 1-.7 2-1 3-.3 1-.6 2.1-.9 3.2-.9 3.3-1.7 6.7-2.3 10.1 0 .1 0 .1-.1.2-.2.7-.3 1.5-.4 2.2-.1.4-.1.7-.2 1-2.1 12-3 22.5-3 22.5H7.1c-1 0-1.1 1.3-1.2 1.4 0 0-4.7 23.9-3.4 43.4H1.1C-.1 258.9 0 260 0 260c-.1 7.2.4 14.4 1 21.2.6 7.5 1.6 16.6 3.5 25l.3 1.8-3.1.7c-1.4.3-1.3 2.2-1.3 2.2s2.3 31.5 9 46.1l-2.4.3-.6.1c-.5.2-1.1.8-.7 2.6 0 0 .1.5.3 1.4 2.6 13.6 6.4 24.7 10.6 34.3l.3-.2s61.8-40.4 215.3 0c150.1 39.5 220.4 1.8 223.5.1 1-1.9 2.1-3.7 3-5.5 7.2-13.1 11.7-24.6 13.3-29.1.3-.7.5-1.4.7-2.1 0-.2.1-1-.8-1h-2.8s12-29.9 14.7-48.8c.2-1.3.3-2.5.4-3.8 0-.2-.2-1-1-1h-3.4s5.2-32.5 2.9-53c-.2-1.5-.5-3.1-.7-4.6-.1-.3-.5-.7-1.3-.7h-4.1s-.2-25.2-8.1-48.7c-1.7-4.4-3.5-8.8-5.4-13.1-.1-.2-.4-.5-.9-.5h-2.6s-14.1-33-20.4-43.1c-.1-.2-.2-.3-.3-.4-.3-.4-.7-.5-.8-.5h-3.8s-7.4-15.9-16.1-28.4c-1.3-1.7-2.6-3.4-4-5-.6-.7-1.2-1.5-1.8-2.2-.5-.6-1.2-.4-1.2-.3l-2.3.9L394 80.1c-.4-.6-.9-.5-1-.4l-1.3.5-10.5-19.9s-.4-.7-1.1-.3l-1.4.9-7.2-19.9c-.3-.7-.6-.8-.9-.9h-1.7L365 21.2c-.1-.6-.9-.8-.9-.8h-.9l-.8-16.6c-.1-1-.2-2.1-.2-3.1 0 0 0-.7-.5-.7-.2.1-.5.2-.9.5"/></defs><clipPath id="SVGID_13_"><use xlink:href="#SVGID_12_" overflow="visible"/></clipPath><path class="st5" d="M267.9 216.7c0-19.2-10.3-32.1-25.7-32.1-8.6 0-15.9 2.8-21.1 8-5.7 5.8-8.7 14.4-8.7 25.1 0 20.8 11.1 33.2 29.8 33.2h.2c11.4 0 17.5-5.7 21.2-10 .9-1.1 1.4-2.2 1.3-3-.1-.6-.3-1-.8-1.4s-2.1-.5-3.3.7c-2.9 3.1-9.1 8.3-18 8.3h-.6c-15.5 0-17.5-14.8-17.6-26v-.3h41.2c.9-.1 2.1-.8 2.1-2.5m-43.3-3.6v-.4c.4-9.9 2.6-22.9 17.2-22.9 14 0 16.3 13.1 16.8 23v.4l-34-.1z"/><defs><path id="SVGID_14_" d="M360.8.5c-.1.1-.1.1-.2.1l-.1.1c-.2.1-.3.2-.5.4s-.5.3-.7.5l-18.6 13.2-.6-.9s-.3-.6-1-.3c-.1 0-.1.1-.2.1-.1.1-.2.1-.2.1-.1.1-.2.1-.2.1l-18.2 10.4-.9-.8c-.5-.5-1.1-.5-1.4-.4-.1 0-.1.1-.2.1l-21.2 7.3v-1c0-.9-1-.7-1-.7l-21 4.7-1-1c-.5-.5-1-.6-1.3-.6l-24.1 6-1.5-1.9c-.9-1.1-1.9-1.1-2.3-1l-24.6 5.6-1-1.4c-.9-1.3-2.7-.9-2.8-.8l-23.3 6.3v-1.6c0-1-.8-1.1-1.4-1l-10.4 2.6c-11.6 3.4-18.5 6.8-18.5 6.8l-.8-1.4c-.6-1-1.6-.9-2.1-.7l-.3.1-7.9 3.1c-11.8 5.1-21.1 10.3-21.1 10.3l-1.2-2.2c-.6-1.1-2.3-.3-2.3-.3-20.9 10.9-29.3 17.5-31.8 19.8l-1.4-1.4c-.1-.1-.6-.4-1.2-.2-.5.2-.9.6-.9.6-4.4 3.4-9.6 8.4-14.4 13.3-8.3 8.3-14 15.4-14 15.4l-2.7-1.5c-1.3-.7-2-.3-2.4.2l-.3.4-6.8 9.9C43.1 129 38 139.3 38 139.3l-2.7-1.2c-.6 0-1.3 1.2-1.3 1.2l-11.5 32.2-2.1-.4c-2.1-.4-2.2.8-2.2.8-.4 1-.7 2-1 3-.3 1-.6 2.1-.9 3.2-.9 3.3-1.7 6.7-2.3 10.1 0 .1 0 .1-.1.2-.2.7-.3 1.5-.4 2.2-.1.4-.1.7-.2 1-2.1 12-3 22.5-3 22.5H7.1c-1 0-1.1 1.3-1.2 1.4 0 0-4.7 23.9-3.4 43.4H1.1C-.1 258.9 0 260 0 260c-.1 7.2.4 14.4 1 21.2.6 7.5 1.6 16.6 3.5 25l.3 1.8-3.1.7c-1.4.3-1.3 2.2-1.3 2.2s2.3 31.5 9 46.1l-2.4.3-.6.1c-.5.2-1.1.8-.7 2.6 0 0 .1.5.3 1.4 2.6 13.6 6.4 24.7 10.6 34.3l.3-.2s61.8-40.4 215.3 0c150.1 39.5 220.4 1.8 223.5.1 1-1.9 2.1-3.7 3-5.5 7.2-13.1 11.7-24.6 13.3-29.1.3-.7.5-1.4.7-2.1 0-.2.1-1-.8-1h-2.8s12-29.9 14.7-48.8c.2-1.3.3-2.5.4-3.8 0-.2-.2-1-1-1h-3.4s5.2-32.5 2.9-53c-.2-1.5-.5-3.1-.7-4.6-.1-.3-.5-.7-1.3-.7h-4.1s-.2-25.2-8.1-48.7c-1.7-4.4-3.5-8.8-5.4-13.1-.1-.2-.4-.5-.9-.5h-2.6s-14.1-33-20.4-43.1c-.1-.2-.2-.3-.3-.4-.3-.4-.7-.5-.8-.5h-3.8s-7.4-15.9-16.1-28.4c-1.3-1.7-2.6-3.4-4-5-.6-.7-1.2-1.5-1.8-2.2-.5-.6-1.2-.4-1.2-.3l-2.3.9L394 80.1c-.4-.6-.9-.5-1-.4l-1.3.5-10.5-19.9s-.4-.7-1.1-.3l-1.4.9-7.2-19.9c-.3-.7-.6-.8-.9-.9h-1.7L365 21.2c-.1-.6-.9-.8-.9-.8h-.9l-.8-16.6c-.1-1-.2-2.1-.2-3.1 0 0 0-.7-.5-.7-.2.1-.5.2-.9.5"/></defs><clipPath id="SVGID_15_"><use xlink:href="#SVGID_14_" overflow="visible"/></clipPath><path class="st6" d="M370.5 184.8c-.2-.2-.5-.2-.5-.2h-9.3c-6.6 0-9.5 6.9-9.5 7l-.6 1.5v-23c0-.4-.1-.6-.3-.8-.2-.2-.5-.2-.7-.2s-.3 0-.4.1h-.1c-.1 0-10.1 1.3-10.1 14.8v51.4c.1 3.7 1.7 10.7 7.6 13.7 5.7 2.8 11.7 2.3 15.1.5 2.7-1.4 3.4-2.9 3.6-3.4.2-.4.2-.8 0-1-.2-.3-.3-.4-.5-.5s-.4 0-.7.1c-.9.5-2.3 1.2-5.6 1.2-7.5 0-8-8.7-8-11.3v-40.9h9.9c6.6 0 9.6-6.3 10.1-8 .1-.3.1-.7 0-1"/><defs><path id="SVGID_16_" d="M360.8.5c-.1.1-.1.1-.2.1l-.1.1c-.2.1-.3.2-.5.4s-.5.3-.7.5l-18.6 13.2-.6-.9s-.3-.6-1-.3c-.1 0-.1.1-.2.1-.1.1-.2.1-.2.1-.1.1-.2.1-.2.1l-18.2 10.4-.9-.8c-.5-.5-1.1-.5-1.4-.4-.1 0-.1.1-.2.1l-21.2 7.3v-1c0-.9-1-.7-1-.7l-21 4.7-1-1c-.5-.5-1-.6-1.3-.6l-24.1 6-1.5-1.9c-.9-1.1-1.9-1.1-2.3-1l-24.6 5.6-1-1.4c-.9-1.3-2.7-.9-2.8-.8l-23.3 6.3v-1.6c0-1-.8-1.1-1.4-1l-10.4 2.6c-11.6 3.4-18.5 6.8-18.5 6.8l-.8-1.4c-.6-1-1.6-.9-2.1-.7l-.3.1-7.9 3.1c-11.8 5.1-21.1 10.3-21.1 10.3l-1.2-2.2c-.6-1.1-2.3-.3-2.3-.3-20.9 10.9-29.3 17.5-31.8 19.8l-1.4-1.4c-.1-.1-.6-.4-1.2-.2-.5.2-.9.6-.9.6-4.4 3.4-9.6 8.4-14.4 13.3-8.3 8.3-14 15.4-14 15.4l-2.7-1.5c-1.3-.7-2-.3-2.4.2l-.3.4-6.8 9.9C43.1 129 38 139.3 38 139.3l-2.7-1.2c-.6 0-1.3 1.2-1.3 1.2l-11.5 32.2-2.1-.4c-2.1-.4-2.2.8-2.2.8-.4 1-.7 2-1 3-.3 1-.6 2.1-.9 3.2-.9 3.3-1.7 6.7-2.3 10.1 0 .1 0 .1-.1.2-.2.7-.3 1.5-.4 2.2-.1.4-.1.7-.2 1-2.1 12-3 22.5-3 22.5H7.1c-1 0-1.1 1.3-1.2 1.4 0 0-4.7 23.9-3.4 43.4H1.1C-.1 258.9 0 260 0 260c-.1 7.2.4 14.4 1 21.2.6 7.5 1.6 16.6 3.5 25l.3 1.8-3.1.7c-1.4.3-1.3 2.2-1.3 2.2s2.3 31.5 9 46.1l-2.4.3-.6.1c-.5.2-1.1.8-.7 2.6 0 0 .1.5.3 1.4 2.6 13.6 6.4 24.7 10.6 34.3l.3-.2s61.8-40.4 215.3 0c150.1 39.5 220.4 1.8 223.5.1 1-1.9 2.1-3.7 3-5.5 7.2-13.1 11.7-24.6 13.3-29.1.3-.7.5-1.4.7-2.1 0-.2.1-1-.8-1h-2.8s12-29.9 14.7-48.8c.2-1.3.3-2.5.4-3.8 0-.2-.2-1-1-1h-3.4s5.2-32.5 2.9-53c-.2-1.5-.5-3.1-.7-4.6-.1-.3-.5-.7-1.3-.7h-4.1s-.2-25.2-8.1-48.7c-1.7-4.4-3.5-8.8-5.4-13.1-.1-.2-.4-.5-.9-.5h-2.6s-14.1-33-20.4-43.1c-.1-.2-.2-.3-.3-.4-.3-.4-.7-.5-.8-.5h-3.8s-7.4-15.9-16.1-28.4c-1.3-1.7-2.6-3.4-4-5-.6-.7-1.2-1.5-1.8-2.2-.5-.6-1.2-.4-1.2-.3l-2.3.9L394 80.1c-.4-.6-.9-.5-1-.4l-1.3.5-10.5-19.9s-.4-.7-1.1-.3l-1.4.9-7.2-19.9c-.3-.7-.6-.8-.9-.9h-1.7L365 21.2c-.1-.6-.9-.8-.9-.8h-.9l-.8-16.6c-.1-1-.2-2.1-.2-3.1 0 0 0-.7-.5-.7-.2.1-.5.2-.9.5"/></defs><clipPath id="SVGID_17_"><use xlink:href="#SVGID_16_" overflow="visible"/></clipPath><path class="st7" d="M417.8 208.3v33c0 6.4 3.4 9.6 10.1 9.6 1.1 0 1.5-.3 1.5-1.1v-41.1c0-15.2-7.9-23.9-21.8-23.9-12 0-17.9 10.2-18 10.3l-.6 1.1v-26.1c0-.4-.1-.6-.3-.8-.2-.2-.5-.2-.8-.2h-.4.1c-.1 0-10.1 1.2-10.1 14.8v57.3c0 6.3 3.5 9.7 10.1 9.7 1.3 0 1.5-.6 1.5-1.1v-51.5l.1-.1c.3-.3 6.9-7.1 14.9-7.1 13.5.1 13.7 17.1 13.7 17.2"/><defs><path id="SVGID_18_" d="M360.8.5c-.1.1-.1.1-.2.1l-.1.1c-.2.1-.3.2-.5.4s-.5.3-.7.5l-18.6 13.2-.6-.9s-.3-.6-1-.3c-.1 0-.1.1-.2.1-.1.1-.2.1-.2.1-.1.1-.2.1-.2.1l-18.2 10.4-.9-.8c-.5-.5-1.1-.5-1.4-.4-.1 0-.1.1-.2.1l-21.2 7.3v-1c0-.9-1-.7-1-.7l-21 4.7-1-1c-.5-.5-1-.6-1.3-.6l-24.1 6-1.5-1.9c-.9-1.1-1.9-1.1-2.3-1l-24.6 5.6-1-1.4c-.9-1.3-2.7-.9-2.8-.8l-23.3 6.3v-1.6c0-1-.8-1.1-1.4-1l-10.4 2.6c-11.6 3.4-18.5 6.8-18.5 6.8l-.8-1.4c-.6-1-1.6-.9-2.1-.7l-.3.1-7.9 3.1c-11.8 5.1-21.1 10.3-21.1 10.3l-1.2-2.2c-.6-1.1-2.3-.3-2.3-.3-20.9 10.9-29.3 17.5-31.8 19.8l-1.4-1.4c-.1-.1-.6-.4-1.2-.2-.5.2-.9.6-.9.6-4.4 3.4-9.6 8.4-14.4 13.3-8.3 8.3-14 15.4-14 15.4l-2.7-1.5c-1.3-.7-2-.3-2.4.2l-.3.4-6.8 9.9C43.1 129 38 139.3 38 139.3l-2.7-1.2c-.6 0-1.3 1.2-1.3 1.2l-11.5 32.2-2.1-.4c-2.1-.4-2.2.8-2.2.8-.4 1-.7 2-1 3-.3 1-.6 2.1-.9 3.2-.9 3.3-1.7 6.7-2.3 10.1 0 .1 0 .1-.1.2-.2.7-.3 1.5-.4 2.2-.1.4-.1.7-.2 1-2.1 12-3 22.5-3 22.5H7.1c-1 0-1.1 1.3-1.2 1.4 0 0-4.7 23.9-3.4 43.4H1.1C-.1 258.9 0 260 0 260c-.1 7.2.4 14.4 1 21.2.6 7.5 1.6 16.6 3.5 25l.3 1.8-3.1.7c-1.4.3-1.3 2.2-1.3 2.2s2.3 31.5 9 46.1l-2.4.3-.6.1c-.5.2-1.1.8-.7 2.6 0 0 .1.5.3 1.4 2.6 13.6 6.4 24.7 10.6 34.3l.3-.2s61.8-40.4 215.3 0c150.1 39.5 220.4 1.8 223.5.1 1-1.9 2.1-3.7 3-5.5 7.2-13.1 11.7-24.6 13.3-29.1.3-.7.5-1.4.7-2.1 0-.2.1-1-.8-1h-2.8s12-29.9 14.7-48.8c.2-1.3.3-2.5.4-3.8 0-.2-.2-1-1-1h-3.4s5.2-32.5 2.9-53c-.2-1.5-.5-3.1-.7-4.6-.1-.3-.5-.7-1.3-.7h-4.1s-.2-25.2-8.1-48.7c-1.7-4.4-3.5-8.8-5.4-13.1-.1-.2-.4-.5-.9-.5h-2.6s-14.1-33-20.4-43.1c-.1-.2-.2-.3-.3-.4-.3-.4-.7-.5-.8-.5h-3.8s-7.4-15.9-16.1-28.4c-1.3-1.7-2.6-3.4-4-5-.6-.7-1.2-1.5-1.8-2.2-.5-.6-1.2-.4-1.2-.3l-2.3.9L394 80.1c-.4-.6-.9-.5-1-.4l-1.3.5-10.5-19.9s-.4-.7-1.1-.3l-1.4.9-7.2-19.9c-.3-.7-.6-.8-.9-.9h-1.7L365 21.2c-.1-.6-.9-.8-.9-.8h-.9l-.8-16.6c-.1-1-.2-2.1-.2-3.1 0 0 0-.7-.5-.7-.2.1-.5.2-.9.5"/></defs><clipPath id="SVGID_19_"><use xlink:href="#SVGID_18_" overflow="visible"/></clipPath><path class="st8" d="M146.6 275.4v35.3c0 .9-.8 1-1.3 1-2 0-7.2-.3-7.2-6.9v-28.7c0-9.4 6.9-10.4 7.2-10.4s1.3-.2 1.3.9v6.4s4.1-7.2 12.5-7.2c8.5 0 15.2 4.8 15.2 16.7v28.3c0 1-1 .9-1.3.9-1.8 0-7.2 0-7.2-7.8v-21.8s-.1-11.6-9.2-11.6c-5.4 0-10 4.9-10 4.9"/><defs><path id="SVGID_20_" d="M360.8.5c-.1.1-.1.1-.2.1l-.1.1c-.2.1-.3.2-.5.4s-.5.3-.7.5l-18.6 13.2-.6-.9s-.3-.6-1-.3c-.1 0-.1.1-.2.1-.1.1-.2.1-.2.1-.1.1-.2.1-.2.1l-18.2 10.4-.9-.8c-.5-.5-1.1-.5-1.4-.4-.1 0-.1.1-.2.1l-21.2 7.3v-1c0-.9-1-.7-1-.7l-21 4.7-1-1c-.5-.5-1-.6-1.3-.6l-24.1 6-1.5-1.9c-.9-1.1-1.9-1.1-2.3-1l-24.6 5.6-1-1.4c-.9-1.3-2.7-.9-2.8-.8l-23.3 6.3v-1.6c0-1-.8-1.1-1.4-1l-10.4 2.6c-11.6 3.4-18.5 6.8-18.5 6.8l-.8-1.4c-.6-1-1.6-.9-2.1-.7l-.3.1-7.9 3.1c-11.8 5.1-21.1 10.3-21.1 10.3l-1.2-2.2c-.6-1.1-2.3-.3-2.3-.3-20.9 10.9-29.3 17.5-31.8 19.8l-1.4-1.4c-.1-.1-.6-.4-1.2-.2-.5.2-.9.6-.9.6-4.4 3.4-9.6 8.4-14.4 13.3-8.3 8.3-14 15.4-14 15.4l-2.7-1.5c-1.3-.7-2-.3-2.4.2l-.3.4-6.8 9.9C43.1 129 38 139.3 38 139.3l-2.7-1.2c-.6 0-1.3 1.2-1.3 1.2l-11.5 32.2-2.1-.4c-2.1-.4-2.2.8-2.2.8-.4 1-.7 2-1 3-.3 1-.6 2.1-.9 3.2-.9 3.3-1.7 6.7-2.3 10.1 0 .1 0 .1-.1.2-.2.7-.3 1.5-.4 2.2-.1.4-.1.7-.2 1-2.1 12-3 22.5-3 22.5H7.1c-1 0-1.1 1.3-1.2 1.4 0 0-4.7 23.9-3.4 43.4H1.1C-.1 258.9 0 260 0 260c-.1 7.2.4 14.4 1 21.2.6 7.5 1.6 16.6 3.5 25l.3 1.8-3.1.7c-1.4.3-1.3 2.2-1.3 2.2s2.3 31.5 9 46.1l-2.4.3-.6.1c-.5.2-1.1.8-.7 2.6 0 0 .1.5.3 1.4 2.6 13.6 6.4 24.7 10.6 34.3l.3-.2s61.8-40.4 215.3 0c150.1 39.5 220.4 1.8 223.5.1 1-1.9 2.1-3.7 3-5.5 7.2-13.1 11.7-24.6 13.3-29.1.3-.7.5-1.4.7-2.1 0-.2.1-1-.8-1h-2.8s12-29.9 14.7-48.8c.2-1.3.3-2.5.4-3.8 0-.2-.2-1-1-1h-3.4s5.2-32.5 2.9-53c-.2-1.5-.5-3.1-.7-4.6-.1-.3-.5-.7-1.3-.7h-4.1s-.2-25.2-8.1-48.7c-1.7-4.4-3.5-8.8-5.4-13.1-.1-.2-.4-.5-.9-.5h-2.6s-14.1-33-20.4-43.1c-.1-.2-.2-.3-.3-.4-.3-.4-.7-.5-.8-.5h-3.8s-7.4-15.9-16.1-28.4c-1.3-1.7-2.6-3.4-4-5-.6-.7-1.2-1.5-1.8-2.2-.5-.6-1.2-.4-1.2-.3l-2.3.9L394 80.1c-.4-.6-.9-.5-1-.4l-1.3.5-10.5-19.9s-.4-.7-1.1-.3l-1.4.9-7.2-19.9c-.3-.7-.6-.8-.9-.9h-1.7L365 21.2c-.1-.6-.9-.8-.9-.8h-.9l-.8-16.6c-.1-1-.2-2.1-.2-3.1 0 0 0-.7-.5-.7-.2.1-.5.2-.9.5"/></defs><clipPath id="SVGID_21_"><use xlink:href="#SVGID_20_" overflow="visible"/></clipPath><path class="st9" d="M401.2 275.4v35.3c0 .9-.8 1-1.3 1-2 0-7.2-.3-7.2-6.9v-28.7c0-9.4 6.9-10.4 7.2-10.4.3 0 1.3-.2 1.3.9v6.4s4.1-7.2 12.5-7.2c8.5 0 15.2 4.8 15.2 16.7v28.3c0 1-1 .9-1.3.9-1.8 0-7.2 0-7.2-7.8v-21.8s-.1-11.6-9.2-11.6c-5.4 0-10 4.9-10 4.9"/><defs><path id="SVGID_22_" d="M360.8.5c-.1.1-.1.1-.2.1l-.1.1c-.2.1-.3.2-.5.4s-.5.3-.7.5l-18.6 13.2-.6-.9s-.3-.6-1-.3c-.1 0-.1.1-.2.1-.1.1-.2.1-.2.1-.1.1-.2.1-.2.1l-18.2 10.4-.9-.8c-.5-.5-1.1-.5-1.4-.4-.1 0-.1.1-.2.1l-21.2 7.3v-1c0-.9-1-.7-1-.7l-21 4.7-1-1c-.5-.5-1-.6-1.3-.6l-24.1 6-1.5-1.9c-.9-1.1-1.9-1.1-2.3-1l-24.6 5.6-1-1.4c-.9-1.3-2.7-.9-2.8-.8l-23.3 6.3v-1.6c0-1-.8-1.1-1.4-1l-10.4 2.6c-11.6 3.4-18.5 6.8-18.5 6.8l-.8-1.4c-.6-1-1.6-.9-2.1-.7l-.3.1-7.9 3.1c-11.8 5.1-21.1 10.3-21.1 10.3l-1.2-2.2c-.6-1.1-2.3-.3-2.3-.3-20.9 10.9-29.3 17.5-31.8 19.8l-1.4-1.4c-.1-.1-.6-.4-1.2-.2-.5.2-.9.6-.9.6-4.4 3.4-9.6 8.4-14.4 13.3-8.3 8.3-14 15.4-14 15.4l-2.7-1.5c-1.3-.7-2-.3-2.4.2l-.3.4-6.8 9.9C43.1 129 38 139.3 38 139.3l-2.7-1.2c-.6 0-1.3 1.2-1.3 1.2l-11.5 32.2-2.1-.4c-2.1-.4-2.2.8-2.2.8-.4 1-.7 2-1 3-.3 1-.6 2.1-.9 3.2-.9 3.3-1.7 6.7-2.3 10.1 0 .1 0 .1-.1.2-.2.7-.3 1.5-.4 2.2-.1.4-.1.7-.2 1-2.1 12-3 22.5-3 22.5H7.1c-1 0-1.1 1.3-1.2 1.4 0 0-4.7 23.9-3.4 43.4H1.1C-.1 258.9 0 260 0 260c-.1 7.2.4 14.4 1 21.2.6 7.5 1.6 16.6 3.5 25l.3 1.8-3.1.7c-1.4.3-1.3 2.2-1.3 2.2s2.3 31.5 9 46.1l-2.4.3-.6.1c-.5.2-1.1.8-.7 2.6 0 0 .1.5.3 1.4 2.6 13.6 6.4 24.7 10.6 34.3l.3-.2s61.8-40.4 215.3 0c150.1 39.5 220.4 1.8 223.5.1 1-1.9 2.1-3.7 3-5.5 7.2-13.1 11.7-24.6 13.3-29.1.3-.7.5-1.4.7-2.1 0-.2.1-1-.8-1h-2.8s12-29.9 14.7-48.8c.2-1.3.3-2.5.4-3.8 0-.2-.2-1-1-1h-3.4s5.2-32.5 2.9-53c-.2-1.5-.5-3.1-.7-4.6-.1-.3-.5-.7-1.3-.7h-4.1s-.2-25.2-8.1-48.7c-1.7-4.4-3.5-8.8-5.4-13.1-.1-.2-.4-.5-.9-.5h-2.6s-14.1-33-20.4-43.1c-.1-.2-.2-.3-.3-.4-.3-.4-.7-.5-.8-.5h-3.8s-7.4-15.9-16.1-28.4c-1.3-1.7-2.6-3.4-4-5-.6-.7-1.2-1.5-1.8-2.2-.5-.6-1.2-.4-1.2-.3l-2.3.9L394 80.1c-.4-.6-.9-.5-1-.4l-1.3.5-10.5-19.9s-.4-.7-1.1-.3l-1.4.9-7.2-19.9c-.3-.7-.6-.8-.9-.9h-1.7L365 21.2c-.1-.6-.9-.8-.9-.8h-.9l-.8-16.6c-.1-1-.2-2.1-.2-3.1 0 0 0-.7-.5-.7-.2.1-.5.2-.9.5"/></defs><clipPath id="SVGID_23_"><use xlink:href="#SVGID_22_" overflow="visible"/></clipPath><path class="st10" d="M353.8 288.7c0-7.3 2.1-18.3 11.9-18.3 10.4 0 11.9 10.9 11.9 18.3 0 7-1.1 18.4-11.9 18.4-10.1 0-11.9-11.4-11.9-18.4m-9 0c0 15.8 9 23.1 20.8 23.1s20.8-7.3 20.8-23.1-9.3-23.1-20.8-23.1c-11.5.1-20.8 7.4-20.8 23.1"/><g><defs><path id="SVGID_24_" d="M360.8.5c-.1.1-.1.1-.2.1l-.1.1c-.2.1-.3.2-.5.4s-.5.3-.7.5l-18.6 13.2-.6-.9s-.3-.6-1-.3c-.1 0-.1.1-.2.1-.1.1-.2.1-.2.1-.1.1-.2.1-.2.1l-18.2 10.4-.9-.8c-.5-.5-1.1-.5-1.4-.4-.1 0-.1.1-.2.1l-21.2 7.3v-1c0-.9-1-.7-1-.7l-21 4.7-1-1c-.5-.5-1-.6-1.3-.6l-24.1 6-1.5-1.9c-.9-1.1-1.9-1.1-2.3-1l-24.6 5.6-1-1.4c-.9-1.3-2.7-.9-2.8-.8l-23.3 6.3v-1.6c0-1-.8-1.1-1.4-1l-10.4 2.6c-11.6 3.4-18.5 6.8-18.5 6.8l-.8-1.4c-.6-1-1.6-.9-2.1-.7l-.3.1-7.9 3.1c-11.8 5.1-21.1 10.3-21.1 10.3l-1.2-2.2c-.6-1.1-2.3-.3-2.3-.3-20.9 10.9-29.3 17.5-31.8 19.8l-1.4-1.4c-.1-.1-.6-.4-1.2-.2-.5.2-.9.6-.9.6-4.4 3.4-9.6 8.4-14.4 13.3-8.3 8.3-14 15.4-14 15.4l-2.7-1.5c-1.3-.7-2-.3-2.4.2l-.3.4-6.8 9.9C43.1 129 38 139.3 38 139.3l-2.7-1.2c-.6 0-1.3 1.2-1.3 1.2l-11.5 32.2-2.1-.4c-2.1-.4-2.2.8-2.2.8-.4 1-.7 2-1 3-.3 1-.6 2.1-.9 3.2-.9 3.3-1.7 6.7-2.3 10.1 0 .1 0 .1-.1.2-.2.7-.3 1.5-.4 2.2-.1.4-.1.7-.2 1-2.1 12-3 22.5-3 22.5H7.1c-1 0-1.1 1.3-1.2 1.4 0 0-4.7 23.9-3.4 43.4H1.1C-.1 258.9 0 260 0 260c-.1 7.2.4 14.4 1 21.2.6 7.5 1.6 16.6 3.5 25l.3 1.8-3.1.7c-1.4.3-1.3 2.2-1.3 2.2s2.3 31.5 9 46.1l-2.4.3-.6.1c-.5.2-1.1.8-.7 2.6 0 0 .1.5.3 1.4 2.6 13.6 6.4 24.7 10.6 34.3l.3-.2s61.8-40.4 215.3 0c150.1 39.5 220.4 1.8 223.5.1 1-1.9 2.1-3.7 3-5.5 7.2-13.1 11.7-24.6 13.3-29.1.3-.7.5-1.4.7-2.1 0-.2.1-1-.8-1h-2.8s12-29.9 14.7-48.8c.2-1.3.3-2.5.4-3.8 0-.2-.2-1-1-1h-3.4s5.2-32.5 2.9-53c-.2-1.5-.5-3.1-.7-4.6-.1-.3-.5-.7-1.3-.7h-4.1s-.2-25.2-8.1-48.7c-1.7-4.4-3.5-8.8-5.4-13.1-.1-.2-.4-.5-.9-.5h-2.6s-14.1-33-20.4-43.1c-.1-.2-.2-.3-.3-.4-.3-.4-.7-.5-.8-.5h-3.8s-7.4-15.9-16.1-28.4c-1.3-1.7-2.6-3.4-4-5-.6-.7-1.2-1.5-1.8-2.2-.5-.6-1.2-.4-1.2-.3l-2.3.9L394 80.1c-.4-.6-.9-.5-1-.4l-1.3.5-10.5-19.9s-.4-.7-1.1-.3l-1.4.9-7.2-19.9c-.3-.7-.6-.8-.9-.9h-1.7L365 21.2c-.1-.6-.9-.8-.9-.8h-.9l-.8-16.6c-.1-1-.2-2.1-.2-3.1 0 0 0-.7-.5-.7-.2.1-.5.2-.9.5"/></defs><clipPath id="SVGID_25_"><use xlink:href="#SVGID_24_" overflow="visible"/></clipPath><path class="st11" d="M311.9 262.2v-6.4c0-1.1-1-.9-1.3-.9s-7.2 1-7.2 10.4v35.5c0 3 1.4 7.6 5.4 9.6s8.3 1.5 10.6.4c2.4-1.2 2.9-2.7 2.6-3.4-.3-.5-.7-.6-1.1-.3-.6.3-1.4.8-3.7.8-4.7 0-5.3-5.3-5.3-7.6v-27.9h6.6c4.7 0 6.9-4.6 7.2-5.7.3-1.1-.6-1-.6-1h-6.5c-4.7 0-6.8 4.9-6.8 4.9v-4.5l.1-3.9z"/></g><g><defs><path id="SVGID_26_" d="M360.8.5c-.1.1-.1.1-.2.1l-.1.1c-.2.1-.3.2-.5.4s-.5.3-.7.5l-18.6 13.2-.6-.9s-.3-.6-1-.3c-.1 0-.1.1-.2.1-.1.1-.2.1-.2.1-.1.1-.2.1-.2.1l-18.2 10.4-.9-.8c-.5-.5-1.1-.5-1.4-.4-.1 0-.1.1-.2.1l-21.2 7.3v-1c0-.9-1-.7-1-.7l-21 4.7-1-1c-.5-.5-1-.6-1.3-.6l-24.1 6-1.5-1.9c-.9-1.1-1.9-1.1-2.3-1l-24.6 5.6-1-1.4c-.9-1.3-2.7-.9-2.8-.8l-23.3 6.3v-1.6c0-1-.8-1.1-1.4-1l-10.4 2.6c-11.6 3.4-18.5 6.8-18.5 6.8l-.8-1.4c-.6-1-1.6-.9-2.1-.7l-.3.1-7.9 3.1c-11.8 5.1-21.1 10.3-21.1 10.3l-1.2-2.2c-.6-1.1-2.3-.3-2.3-.3-20.9 10.9-29.3 17.5-31.8 19.8l-1.4-1.4c-.1-.1-.6-.4-1.2-.2-.5.2-.9.6-.9.6-4.4 3.4-9.6 8.4-14.4 13.3-8.3 8.3-14 15.4-14 15.4l-2.7-1.5c-1.3-.7-2-.3-2.4.2l-.3.4-6.8 9.9C43.1 129 38 139.3 38 139.3l-2.7-1.2c-.6 0-1.3 1.2-1.3 1.2l-11.5 32.2-2.1-.4c-2.1-.4-2.2.8-2.2.8-.4 1-.7 2-1 3-.3 1-.6 2.1-.9 3.2-.9 3.3-1.7 6.7-2.3 10.1 0 .1 0 .1-.1.2-.2.7-.3 1.5-.4 2.2-.1.4-.1.7-.2 1-2.1 12-3 22.5-3 22.5H7.1c-1 0-1.1 1.3-1.2 1.4 0 0-4.7 23.9-3.4 43.4H1.1C-.1 258.9 0 260 0 260c-.1 7.2.4 14.4 1 21.2.6 7.5 1.6 16.6 3.5 25l.3 1.8-3.1.7c-1.4.3-1.3 2.2-1.3 2.2s2.3 31.5 9 46.1l-2.4.3-.6.1c-.5.2-1.1.8-.7 2.6 0 0 .1.5.3 1.4 2.6 13.6 6.4 24.7 10.6 34.3l.3-.2s61.8-40.4 215.3 0c150.1 39.5 220.4 1.8 223.5.1 1-1.9 2.1-3.7 3-5.5 7.2-13.1 11.7-24.6 13.3-29.1.3-.7.5-1.4.7-2.1 0-.2.1-1-.8-1h-2.8s12-29.9 14.7-48.8c.2-1.3.3-2.5.4-3.8 0-.2-.2-1-1-1h-3.4s5.2-32.5 2.9-53c-.2-1.5-.5-3.1-.7-4.6-.1-.3-.5-.7-1.3-.7h-4.1s-.2-25.2-8.1-48.7c-1.7-4.4-3.5-8.8-5.4-13.1-.1-.2-.4-.5-.9-.5h-2.6s-14.1-33-20.4-43.1c-.1-.2-.2-.3-.3-.4-.3-.4-.7-.5-.8-.5h-3.8s-7.4-15.9-16.1-28.4c-1.3-1.7-2.6-3.4-4-5-.6-.7-1.2-1.5-1.8-2.2-.5-.6-1.2-.4-1.2-.3l-2.3.9L394 80.1c-.4-.6-.9-.5-1-.4l-1.3.5-10.5-19.9s-.4-.7-1.1-.3l-1.4.9-7.2-19.9c-.3-.7-.6-.8-.9-.9h-1.7L365 21.2c-.1-.6-.9-.8-.9-.8h-.9l-.8-16.6c-.1-1-.2-2.1-.2-3.1 0 0 0-.7-.5-.7-.2.1-.5.2-.9.5"/></defs><clipPath id="SVGID_27_"><use xlink:href="#SVGID_26_" overflow="visible"/></clipPath><path class="st12" d="M88.6 290.6v-24.1c0-1.1-1-.9-1.3-.9-.2 0-4.8.8-6.5 5.4-3-3.4-6.7-5.3-11.8-5.3-10.4 0-19.7 6.9-19.7 22.6 0 15.8 8.9 21.7 19.7 21.7 4.6 0 7.7-1.4 11.1-5v5.3c0 5.4-3.6 11.6-12.3 11.6-5.8 0-9.2-1.6-11.7-3.4-1.2-.9-2.1-.5-2.5 0-.3.4-.5 1.5.4 2.5 1.5 1.7 6.9 5.6 16.3 5.6 8.5 0 18.3-5.7 18.3-18.9v-17.1zm-19.3 14.7c-9 0-10.9-9.6-10.9-16.8 0-7.5 1.1-18.5 10.9-18.5 8 0 10.7 5.2 11 10.9s.2 7.1.1 12.8c-.2 5.7-3.5 11.6-11.1 11.6"/></g><g><defs><path id="SVGID_28_" d="M360.8.5c-.1.1-.1.1-.2.1l-.1.1c-.2.1-.3.2-.5.4s-.5.3-.7.5l-18.6 13.2-.6-.9s-.3-.6-1-.3c-.1 0-.1.1-.2.1-.1.1-.2.1-.2.1-.1.1-.2.1-.2.1l-18.2 10.4-.9-.8c-.5-.5-1.1-.5-1.4-.4-.1 0-.1.1-.2.1l-21.2 7.3v-1c0-.9-1-.7-1-.7l-21 4.7-1-1c-.5-.5-1-.6-1.3-.6l-24.1 6-1.5-1.9c-.9-1.1-1.9-1.1-2.3-1l-24.6 5.6-1-1.4c-.9-1.3-2.7-.9-2.8-.8l-23.3 6.3v-1.6c0-1-.8-1.1-1.4-1l-10.4 2.6c-11.6 3.4-18.5 6.8-18.5 6.8l-.8-1.4c-.6-1-1.6-.9-2.1-.7l-.3.1-7.9 3.1c-11.8 5.1-21.1 10.3-21.1 10.3l-1.2-2.2c-.6-1.1-2.3-.3-2.3-.3-20.9 10.9-29.3 17.5-31.8 19.8l-1.4-1.4c-.1-.1-.6-.4-1.2-.2-.5.2-.9.6-.9.6-4.4 3.4-9.6 8.4-14.4 13.3-8.3 8.3-14 15.4-14 15.4l-2.7-1.5c-1.3-.7-2-.3-2.4.2l-.3.4-6.8 9.9C43.1 129 38 139.3 38 139.3l-2.7-1.2c-.6 0-1.3 1.2-1.3 1.2l-11.5 32.2-2.1-.4c-2.1-.4-2.2.8-2.2.8-.4 1-.7 2-1 3-.3 1-.6 2.1-.9 3.2-.9 3.3-1.7 6.7-2.3 10.1 0 .1 0 .1-.1.2-.2.7-.3 1.5-.4 2.2-.1.4-.1.7-.2 1-2.1 12-3 22.5-3 22.5H7.1c-1 0-1.1 1.3-1.2 1.4 0 0-4.7 23.9-3.4 43.4H1.1C-.1 258.9 0 260 0 260c-.1 7.2.4 14.4 1 21.2.6 7.5 1.6 16.6 3.5 25l.3 1.8-3.1.7c-1.4.3-1.3 2.2-1.3 2.2s2.3 31.5 9 46.1l-2.4.3-.6.1c-.5.2-1.1.8-.7 2.6 0 0 .1.5.3 1.4 2.6 13.6 6.4 24.7 10.6 34.3l.3-.2s61.8-40.4 215.3 0c150.1 39.5 220.4 1.8 223.5.1 1-1.9 2.1-3.7 3-5.5 7.2-13.1 11.7-24.6 13.3-29.1.3-.7.5-1.4.7-2.1 0-.2.1-1-.8-1h-2.8s12-29.9 14.7-48.8c.2-1.3.3-2.5.4-3.8 0-.2-.2-1-1-1h-3.4s5.2-32.5 2.9-53c-.2-1.5-.5-3.1-.7-4.6-.1-.3-.5-.7-1.3-.7h-4.1s-.2-25.2-8.1-48.7c-1.7-4.4-3.5-8.8-5.4-13.1-.1-.2-.4-.5-.9-.5h-2.6s-14.1-33-20.4-43.1c-.1-.2-.2-.3-.3-.4-.3-.4-.7-.5-.8-.5h-3.8s-7.4-15.9-16.1-28.4c-1.3-1.7-2.6-3.4-4-5-.6-.7-1.2-1.5-1.8-2.2-.5-.6-1.2-.4-1.2-.3l-2.3.9L394 80.1c-.4-.6-.9-.5-1-.4l-1.3.5-10.5-19.9s-.4-.7-1.1-.3l-1.4.9-7.2-19.9c-.3-.7-.6-.8-.9-.9h-1.7L365 21.2c-.1-.6-.9-.8-.9-.8h-.9l-.8-16.6c-.1-1-.2-2.1-.2-3.1 0 0 0-.7-.5-.7-.2.1-.5.2-.9.5"/></defs><clipPath id="SVGID_29_"><use xlink:href="#SVGID_28_" overflow="visible"/></clipPath><path class="st13" d="M275.1 310.9c-10.9 0-19.6-7-19.6-22.8s9.1-22.4 19.7-22.4c5.2 0 9.1 1.9 12.1 5.3 1.7-4.6 6.3-5.4 6.5-5.4.3 0 1.3-.2 1.3.9v44c0 1-1 .9-1.3.9-1.6 0-6.4-.3-7.1-6 .1.1-3.7 5.5-11.6 5.5m12.1-15.8c.2-6 .1-7.6.1-13.5 0-6.9-4.4-11.6-10.7-11.6-10.4 0-12.2 10.8-12.2 18.3 0 7.1 2.4 18 11 18.1 8.1.1 11.6-5.7 11.8-11.3"/></g><g><defs><path id="SVGID_30_" d="M360.8.5c-.1.1-.1.1-.2.1l-.1.1c-.2.1-.3.2-.5.4s-.5.3-.7.5l-18.6 13.2-.6-.9s-.3-.6-1-.3c-.1 0-.1.1-.2.1-.1.1-.2.1-.2.1-.1.1-.2.1-.2.1l-18.2 10.4-.9-.8c-.5-.5-1.1-.5-1.4-.4-.1 0-.1.1-.2.1l-21.2 7.3v-1c0-.9-1-.7-1-.7l-21 4.7-1-1c-.5-.5-1-.6-1.3-.6l-24.1 6-1.5-1.9c-.9-1.1-1.9-1.1-2.3-1l-24.6 5.6-1-1.4c-.9-1.3-2.7-.9-2.8-.8l-23.3 6.3v-1.6c0-1-.8-1.1-1.4-1l-10.4 2.6c-11.6 3.4-18.5 6.8-18.5 6.8l-.8-1.4c-.6-1-1.6-.9-2.1-.7l-.3.1-7.9 3.1c-11.8 5.1-21.1 10.3-21.1 10.3l-1.2-2.2c-.6-1.1-2.3-.3-2.3-.3-20.9 10.9-29.3 17.5-31.8 19.8l-1.4-1.4c-.1-.1-.6-.4-1.2-.2-.5.2-.9.6-.9.6-4.4 3.4-9.6 8.4-14.4 13.3-8.3 8.3-14 15.4-14 15.4l-2.7-1.5c-1.3-.7-2-.3-2.4.2l-.3.4-6.8 9.9C43.1 129 38 139.3 38 139.3l-2.7-1.2c-.6 0-1.3 1.2-1.3 1.2l-11.5 32.2-2.1-.4c-2.1-.4-2.2.8-2.2.8-.4 1-.7 2-1 3-.3 1-.6 2.1-.9 3.2-.9 3.3-1.7 6.7-2.3 10.1 0 .1 0 .1-.1.2-.2.7-.3 1.5-.4 2.2-.1.4-.1.7-.2 1-2.1 12-3 22.5-3 22.5H7.1c-1 0-1.1 1.3-1.2 1.4 0 0-4.7 23.9-3.4 43.4H1.1C-.1 258.9 0 260 0 260c-.1 7.2.4 14.4 1 21.2.6 7.5 1.6 16.6 3.5 25l.3 1.8-3.1.7c-1.4.3-1.3 2.2-1.3 2.2s2.3 31.5 9 46.1l-2.4.3-.6.1c-.5.2-1.1.8-.7 2.6 0 0 .1.5.3 1.4 2.6 13.6 6.4 24.7 10.6 34.3l.3-.2s61.8-40.4 215.3 0c150.1 39.5 220.4 1.8 223.5.1 1-1.9 2.1-3.7 3-5.5 7.2-13.1 11.7-24.6 13.3-29.1.3-.7.5-1.4.7-2.1 0-.2.1-1-.8-1h-2.8s12-29.9 14.7-48.8c.2-1.3.3-2.5.4-3.8 0-.2-.2-1-1-1h-3.4s5.2-32.5 2.9-53c-.2-1.5-.5-3.1-.7-4.6-.1-.3-.5-.7-1.3-.7h-4.1s-.2-25.2-8.1-48.7c-1.7-4.4-3.5-8.8-5.4-13.1-.1-.2-.4-.5-.9-.5h-2.6s-14.1-33-20.4-43.1c-.1-.2-.2-.3-.3-.4-.3-.4-.7-.5-.8-.5h-3.8s-7.4-15.9-16.1-28.4c-1.3-1.7-2.6-3.4-4-5-.6-.7-1.2-1.5-1.8-2.2-.5-.6-1.2-.4-1.2-.3l-2.3.9L394 80.1c-.4-.6-.9-.5-1-.4l-1.3.5-10.5-19.9s-.4-.7-1.1-.3l-1.4.9-7.2-19.9c-.3-.7-.6-.8-.9-.9h-1.7L365 21.2c-.1-.6-.9-.8-.9-.8h-.9l-.8-16.6c-.1-1-.2-2.1-.2-3.1 0 0 0-.7-.5-.7-.2.1-.5.2-.9.5"/></defs><clipPath id="SVGID_31_"><use xlink:href="#SVGID_30_" overflow="visible"/></clipPath><path class="st14" d="M224.3 276.1c0-9.4 6.9-10.4 7.2-10.4s1.3-.2 1.3.9v6.4s4.1-7.2 12.6-7.2c0 0 7.1.2 10.6 3.7 1.1 1-1.3 4.4-4.5 4.4-3.7 0-4.6-2.8-9-2.8-5.6 0-9.7 6.3-9.7 7.6v32c0 .9-.8 1-1.3 1-2 0-7.2-.3-7.2-6.9v-28.7z"/></g><g><defs><path id="SVGID_32_" d="M360.8.5c-.1.1-.1.1-.2.1l-.1.1c-.2.1-.3.2-.5.4s-.5.3-.7.5l-18.6 13.2-.6-.9s-.3-.6-1-.3c-.1 0-.1.1-.2.1-.1.1-.2.1-.2.1-.1.1-.2.1-.2.1l-18.2 10.4-.9-.8c-.5-.5-1.1-.5-1.4-.4-.1 0-.1.1-.2.1l-21.2 7.3v-1c0-.9-1-.7-1-.7l-21 4.7-1-1c-.5-.5-1-.6-1.3-.6l-24.1 6-1.5-1.9c-.9-1.1-1.9-1.1-2.3-1l-24.6 5.6-1-1.4c-.9-1.3-2.7-.9-2.8-.8l-23.3 6.3v-1.6c0-1-.8-1.1-1.4-1l-10.4 2.6c-11.6 3.4-18.5 6.8-18.5 6.8l-.8-1.4c-.6-1-1.6-.9-2.1-.7l-.3.1-7.9 3.1c-11.8 5.1-21.1 10.3-21.1 10.3l-1.2-2.2c-.6-1.1-2.3-.3-2.3-.3-20.9 10.9-29.3 17.5-31.8 19.8l-1.4-1.4c-.1-.1-.6-.4-1.2-.2-.5.2-.9.6-.9.6-4.4 3.4-9.6 8.4-14.4 13.3-8.3 8.3-14 15.4-14 15.4l-2.7-1.5c-1.3-.7-2-.3-2.4.2l-.3.4-6.8 9.9C43.1 129 38 139.3 38 139.3l-2.7-1.2c-.6 0-1.3 1.2-1.3 1.2l-11.5 32.2-2.1-.4c-2.1-.4-2.2.8-2.2.8-.4 1-.7 2-1 3-.3 1-.6 2.1-.9 3.2-.9 3.3-1.7 6.7-2.3 10.1 0 .1 0 .1-.1.2-.2.7-.3 1.5-.4 2.2-.1.4-.1.7-.2 1-2.1 12-3 22.5-3 22.5H7.1c-1 0-1.1 1.3-1.2 1.4 0 0-4.7 23.9-3.4 43.4H1.1C-.1 258.9 0 260 0 260c-.1 7.2.4 14.4 1 21.2.6 7.5 1.6 16.6 3.5 25l.3 1.8-3.1.7c-1.4.3-1.3 2.2-1.3 2.2s2.3 31.5 9 46.1l-2.4.3-.6.1c-.5.2-1.1.8-.7 2.6 0 0 .1.5.3 1.4 2.6 13.6 6.4 24.7 10.6 34.3l.3-.2s61.8-40.4 215.3 0c150.1 39.5 220.4 1.8 223.5.1 1-1.9 2.1-3.7 3-5.5 7.2-13.1 11.7-24.6 13.3-29.1.3-.7.5-1.4.7-2.1 0-.2.1-1-.8-1h-2.8s12-29.9 14.7-48.8c.2-1.3.3-2.5.4-3.8 0-.2-.2-1-1-1h-3.4s5.2-32.5 2.9-53c-.2-1.5-.5-3.1-.7-4.6-.1-.3-.5-.7-1.3-.7h-4.1s-.2-25.2-8.1-48.7c-1.7-4.4-3.5-8.8-5.4-13.1-.1-.2-.4-.5-.9-.5h-2.6s-14.1-33-20.4-43.1c-.1-.2-.2-.3-.3-.4-.3-.4-.7-.5-.8-.5h-3.8s-7.4-15.9-16.1-28.4c-1.3-1.7-2.6-3.4-4-5-.6-.7-1.2-1.5-1.8-2.2-.5-.6-1.2-.4-1.2-.3l-2.3.9L394 80.1c-.4-.6-.9-.5-1-.4l-1.3.5-10.5-19.9s-.4-.7-1.1-.3l-1.4.9-7.2-19.9c-.3-.7-.6-.8-.9-.9h-1.7L365 21.2c-.1-.6-.9-.8-.9-.8h-.9l-.8-16.6c-.1-1-.2-2.1-.2-3.1 0 0 0-.7-.5-.7-.2.1-.5.2-.9.5"/></defs><clipPath id="SVGID_33_"><use xlink:href="#SVGID_32_" overflow="visible"/></clipPath><path class="st15" d="M338 301.6v9c0 .9-.8 1-1.3 1-2 0-7.2-.3-7.2-6.9V276c0-9.4 6.9-10.4 7.2-10.4.3 0 1.3-.2 1.3.9-.1 1.1 0 25.1 0 35.1"/></g><g><defs><path id="SVGID_34_" d="M360.8.5c-.1.1-.1.1-.2.1l-.1.1c-.2.1-.3.2-.5.4s-.5.3-.7.5l-18.6 13.2-.6-.9s-.3-.6-1-.3c-.1 0-.1.1-.2.1-.1.1-.2.1-.2.1-.1.1-.2.1-.2.1l-18.2 10.4-.9-.8c-.5-.5-1.1-.5-1.4-.4-.1 0-.1.1-.2.1l-21.2 7.3v-1c0-.9-1-.7-1-.7l-21 4.7-1-1c-.5-.5-1-.6-1.3-.6l-24.1 6-1.5-1.9c-.9-1.1-1.9-1.1-2.3-1l-24.6 5.6-1-1.4c-.9-1.3-2.7-.9-2.8-.8l-23.3 6.3v-1.6c0-1-.8-1.1-1.4-1l-10.4 2.6c-11.6 3.4-18.5 6.8-18.5 6.8l-.8-1.4c-.6-1-1.6-.9-2.1-.7l-.3.1-7.9 3.1c-11.8 5.1-21.1 10.3-21.1 10.3l-1.2-2.2c-.6-1.1-2.3-.3-2.3-.3-20.9 10.9-29.3 17.5-31.8 19.8l-1.4-1.4c-.1-.1-.6-.4-1.2-.2-.5.2-.9.6-.9.6-4.4 3.4-9.6 8.4-14.4 13.3-8.3 8.3-14 15.4-14 15.4l-2.7-1.5c-1.3-.7-2-.3-2.4.2l-.3.4-6.8 9.9C43.1 129 38 139.3 38 139.3l-2.7-1.2c-.6 0-1.3 1.2-1.3 1.2l-11.5 32.2-2.1-.4c-2.1-.4-2.2.8-2.2.8-.4 1-.7 2-1 3-.3 1-.6 2.1-.9 3.2-.9 3.3-1.7 6.7-2.3 10.1 0 .1 0 .1-.1.2-.2.7-.3 1.5-.4 2.2-.1.4-.1.7-.2 1-2.1 12-3 22.5-3 22.5H7.1c-1 0-1.1 1.3-1.2 1.4 0 0-4.7 23.9-3.4 43.4H1.1C-.1 258.9 0 260 0 260c-.1 7.2.4 14.4 1 21.2.6 7.5 1.6 16.6 3.5 25l.3 1.8-3.1.7c-1.4.3-1.3 2.2-1.3 2.2s2.3 31.5 9 46.1l-2.4.3-.6.1c-.5.2-1.1.8-.7 2.6 0 0 .1.5.3 1.4 2.6 13.6 6.4 24.7 10.6 34.3l.3-.2s61.8-40.4 215.3 0c150.1 39.5 220.4 1.8 223.5.1 1-1.9 2.1-3.7 3-5.5 7.2-13.1 11.7-24.6 13.3-29.1.3-.7.5-1.4.7-2.1 0-.2.1-1-.8-1h-2.8s12-29.9 14.7-48.8c.2-1.3.3-2.5.4-3.8 0-.2-.2-1-1-1h-3.4s5.2-32.5 2.9-53c-.2-1.5-.5-3.1-.7-4.6-.1-.3-.5-.7-1.3-.7h-4.1s-.2-25.2-8.1-48.7c-1.7-4.4-3.5-8.8-5.4-13.1-.1-.2-.4-.5-.9-.5h-2.6s-14.1-33-20.4-43.1c-.1-.2-.2-.3-.3-.4-.3-.4-.7-.5-.8-.5h-3.8s-7.4-15.9-16.1-28.4c-1.3-1.7-2.6-3.4-4-5-.6-.7-1.2-1.5-1.8-2.2-.5-.6-1.2-.4-1.2-.3l-2.3.9L394 80.1c-.4-.6-.9-.5-1-.4l-1.3.5-10.5-19.9s-.4-.7-1.1-.3l-1.4.9-7.2-19.9c-.3-.7-.6-.8-.9-.9h-1.7L365 21.2c-.1-.6-.9-.8-.9-.8h-.9l-.8-16.6c-.1-1-.2-2.1-.2-3.1 0 0 0-.7-.5-.7-.2.1-.5.2-.9.5"/></defs><clipPath id="SVGID_35_"><use xlink:href="#SVGID_34_" overflow="visible"/></clipPath><path class="st16" d="M210.6 186c-1.7-.7-2.8-.1-3.6 1.8-.5 1.1-19.6 45.2-19.7 45.6l-.3.7-.3-.6c-.2-.5-23-46.6-23.7-48.2-.2-.3-.4-.5-.6-.6-.5-.2-1 .2-1.2.3-1.4.8-8.3 5.3-4.6 14.9.5 1 23.8 46.9 24.8 48.8.6 1.2 1.4 2.4 2.5 2.4s1.8-.9 2.5-2.2c.4-.8 25.1-58 25.6-59.4.1-.8.7-2.7-1.4-3.5"/></g><g><defs><path id="SVGID_36_" d="M360.8.5c-.1.1-.1.1-.2.1l-.1.1c-.2.1-.3.2-.5.4s-.5.3-.7.5l-18.6 13.2-.6-.9s-.3-.6-1-.3c-.1 0-.1.1-.2.1-.1.1-.2.1-.2.1-.1.1-.2.1-.2.1l-18.2 10.4-.9-.8c-.5-.5-1.1-.5-1.4-.4-.1 0-.1.1-.2.1l-21.2 7.3v-1c0-.9-1-.7-1-.7l-21 4.7-1-1c-.5-.5-1-.6-1.3-.6l-24.1 6-1.5-1.9c-.9-1.1-1.9-1.1-2.3-1l-24.6 5.6-1-1.4c-.9-1.3-2.7-.9-2.8-.8l-23.3 6.3v-1.6c0-1-.8-1.1-1.4-1l-10.4 2.6c-11.6 3.4-18.5 6.8-18.5 6.8l-.8-1.4c-.6-1-1.6-.9-2.1-.7l-.3.1-7.9 3.1c-11.8 5.1-21.1 10.3-21.1 10.3l-1.2-2.2c-.6-1.1-2.3-.3-2.3-.3-20.9 10.9-29.3 17.5-31.8 19.8l-1.4-1.4c-.1-.1-.6-.4-1.2-.2-.5.2-.9.6-.9.6-4.4 3.4-9.6 8.4-14.4 13.3-8.3 8.3-14 15.4-14 15.4l-2.7-1.5c-1.3-.7-2-.3-2.4.2l-.3.4-6.8 9.9C43.1 129 38 139.3 38 139.3l-2.7-1.2c-.6 0-1.3 1.2-1.3 1.2l-11.5 32.2-2.1-.4c-2.1-.4-2.2.8-2.2.8-.4 1-.7 2-1 3-.3 1-.6 2.1-.9 3.2-.9 3.3-1.7 6.7-2.3 10.1 0 .1 0 .1-.1.2-.2.7-.3 1.5-.4 2.2-.1.4-.1.7-.2 1-2.1 12-3 22.5-3 22.5H7.1c-1 0-1.1 1.3-1.2 1.4 0 0-4.7 23.9-3.4 43.4H1.1C-.1 258.9 0 260 0 260c-.1 7.2.4 14.4 1 21.2.6 7.5 1.6 16.6 3.5 25l.3 1.8-3.1.7c-1.4.3-1.3 2.2-1.3 2.2s2.3 31.5 9 46.1l-2.4.3-.6.1c-.5.2-1.1.8-.7 2.6 0 0 .1.5.3 1.4 2.6 13.6 6.4 24.7 10.6 34.3l.3-.2s61.8-40.4 215.3 0c150.1 39.5 220.4 1.8 223.5.1 1-1.9 2.1-3.7 3-5.5 7.2-13.1 11.7-24.6 13.3-29.1.3-.7.5-1.4.7-2.1 0-.2.1-1-.8-1h-2.8s12-29.9 14.7-48.8c.2-1.3.3-2.5.4-3.8 0-.2-.2-1-1-1h-3.4s5.2-32.5 2.9-53c-.2-1.5-.5-3.1-.7-4.6-.1-.3-.5-.7-1.3-.7h-4.1s-.2-25.2-8.1-48.7c-1.7-4.4-3.5-8.8-5.4-13.1-.1-.2-.4-.5-.9-.5h-2.6s-14.1-33-20.4-43.1c-.1-.2-.2-.3-.3-.4-.3-.4-.7-.5-.8-.5h-3.8s-7.4-15.9-16.1-28.4c-1.3-1.7-2.6-3.4-4-5-.6-.7-1.2-1.5-1.8-2.2-.5-.6-1.2-.4-1.2-.3l-2.3.9L394 80.1c-.4-.6-.9-.5-1-.4l-1.3.5-10.5-19.9s-.4-.7-1.1-.3l-1.4.9-7.2-19.9c-.3-.7-.6-.8-.9-.9h-1.7L365 21.2c-.1-.6-.9-.8-.9-.8h-.9l-.8-16.6c-.1-1-.2-2.1-.2-3.1 0 0 0-.7-.5-.7-.2.1-.5.2-.9.5"/></defs><clipPath id="SVGID_37_"><use xlink:href="#SVGID_36_" overflow="visible"/></clipPath><path class="st17" d="M433.6 310.8c0-3 2.4-5.2 5.3-5.2s5.3 2.3 5.3 5.2c0 3-2.4 5.3-5.3 5.3s-5.3-2.2-5.3-5.3m9.6 0c0-2.5-1.9-4.4-4.3-4.4s-4.3 1.9-4.3 4.4 1.9 4.4 4.3 4.4c2.4.1 4.3-1.8 4.3-4.4m-5.4 3.2h-.9v-6.1h2.3c1.4 0 2.1.6 2.1 1.8 0 1.1-.7 1.5-1.5 1.7l1.7 2.7h-1.1l-1.7-2.7h-.9v2.6zm0-3.5h1c1.1 0 1.6-.2 1.6-1 0-.6-.4-.9-1.3-.9h-1.2l-.1 1.9z"/></g><g><defs><path id="SVGID_38_" d="M360.8.5c-.1.1-.1.1-.2.1l-.1.1c-.2.1-.3.2-.5.4s-.5.3-.7.5l-18.6 13.2-.6-.9s-.3-.6-1-.3c-.1 0-.1.1-.2.1-.1.1-.2.1-.2.1-.1.1-.2.1-.2.1l-18.2 10.4-.9-.8c-.5-.5-1.1-.5-1.4-.4-.1 0-.1.1-.2.1l-21.2 7.3v-1c0-.9-1-.7-1-.7l-21 4.7-1-1c-.5-.5-1-.6-1.3-.6l-24.1 6-1.5-1.9c-.9-1.1-1.9-1.1-2.3-1l-24.6 5.6-1-1.4c-.9-1.3-2.7-.9-2.8-.8l-23.3 6.3v-1.6c0-1-.8-1.1-1.4-1l-10.4 2.6c-11.6 3.4-18.5 6.8-18.5 6.8l-.8-1.4c-.6-1-1.6-.9-2.1-.7l-.3.1-7.9 3.1c-11.8 5.1-21.1 10.3-21.1 10.3l-1.2-2.2c-.6-1.1-2.3-.3-2.3-.3-20.9 10.9-29.3 17.5-31.8 19.8l-1.4-1.4c-.1-.1-.6-.4-1.2-.2-.5.2-.9.6-.9.6-4.4 3.4-9.6 8.4-14.4 13.3-8.3 8.3-14 15.4-14 15.4l-2.7-1.5c-1.3-.7-2-.3-2.4.2l-.3.4-6.8 9.9C43.1 129 38 139.3 38 139.3l-2.7-1.2c-.6 0-1.3 1.2-1.3 1.2l-11.5 32.2-2.1-.4c-2.1-.4-2.2.8-2.2.8-.4 1-.7 2-1 3-.3 1-.6 2.1-.9 3.2-.9 3.3-1.7 6.7-2.3 10.1 0 .1 0 .1-.1.2-.2.7-.3 1.5-.4 2.2-.1.4-.1.7-.2 1-2.1 12-3 22.5-3 22.5H7.1c-1 0-1.1 1.3-1.2 1.4 0 0-4.7 23.9-3.4 43.4H1.1C-.1 258.9 0 260 0 260c-.1 7.2.4 14.4 1 21.2.6 7.5 1.6 16.6 3.5 25l.3 1.8-3.1.7c-1.4.3-1.3 2.2-1.3 2.2s2.3 31.5 9 46.1l-2.4.3-.6.1c-.5.2-1.1.8-.7 2.6 0 0 .1.5.3 1.4 2.6 13.6 6.4 24.7 10.6 34.3l.3-.2s61.8-40.4 215.3 0c150.1 39.5 220.4 1.8 223.5.1 1-1.9 2.1-3.7 3-5.5 7.2-13.1 11.7-24.6 13.3-29.1.3-.7.5-1.4.7-2.1 0-.2.1-1-.8-1h-2.8s12-29.9 14.7-48.8c.2-1.3.3-2.5.4-3.8 0-.2-.2-1-1-1h-3.4s5.2-32.5 2.9-53c-.2-1.5-.5-3.1-.7-4.6-.1-.3-.5-.7-1.3-.7h-4.1s-.2-25.2-8.1-48.7c-1.7-4.4-3.5-8.8-5.4-13.1-.1-.2-.4-.5-.9-.5h-2.6s-14.1-33-20.4-43.1c-.1-.2-.2-.3-.3-.4-.3-.4-.7-.5-.8-.5h-3.8s-7.4-15.9-16.1-28.4c-1.3-1.7-2.6-3.4-4-5-.6-.7-1.2-1.5-1.8-2.2-.5-.6-1.2-.4-1.2-.3l-2.3.9L394 80.1c-.4-.6-.9-.5-1-.4l-1.3.5-10.5-19.9s-.4-.7-1.1-.3l-1.4.9-7.2-19.9c-.3-.7-.6-.8-.9-.9h-1.7L365 21.2c-.1-.6-.9-.8-.9-.8h-.9l-.8-16.6c-.1-1-.2-2.1-.2-3.1 0 0 0-.7-.5-.7-.2.1-.5.2-.9.5"/></defs><clipPath id="SVGID_39_"><use xlink:href="#SVGID_38_" overflow="visible"/></clipPath><path class="st18" d="M433.6 310.8c0-3 2.4-5.2 5.3-5.2s5.3 2.3 5.3 5.2c0 3-2.4 5.3-5.3 5.3s-5.3-2.2-5.3-5.3zm9.6 0c0-2.5-1.9-4.4-4.3-4.4s-4.3 1.9-4.3 4.4 1.9 4.4 4.3 4.4c2.4.1 4.3-1.8 4.3-4.4zm-5.4 3.2h-.9v-6.1h2.3c1.4 0 2.1.6 2.1 1.8 0 1.1-.7 1.5-1.5 1.7l1.7 2.7h-1.1l-1.7-2.7h-.9v2.6zm0-3.5h1c1.1 0 1.6-.2 1.6-1 0-.6-.4-.9-1.3-.9h-1.2l-.1 1.9z"/></g></svg>