<svg id="layer" xmlns="http://www.w3.org/2000/svg" viewBox="0 0 639 81.4"><style>.st0{fill-rule:evenodd;clip-rule:evenodd}</style><path class="st0" d="M315.5 55.9c0-14.4-21.3-12.8-21.1-22.6-.1-3.4 2.2-5.9 5.1-6 7.1.1 9.2 7.7 9.5 10.7h3.6c.1-3.8 0-7.9-.9-11.6-2.3-1.2-6.4-2.6-11.3-2.7-16.8 0-16.8 11.6-17 12.5.2 15 21.4 12.2 21.4 23.5-.1 3.3-2.3 6.2-6.3 6.3-7.1-.1-11.4-7.6-11.9-12.8h-3.9c.1 5.6.8 9.6 1.8 13.4 3.4 1.7 7.4 2.9 13.1 3 12.6-.1 17.8-6.4 17.9-13.7zm-38.7-10.1c-.1-15.2-11.2-22-23.5-22-11.9 0-24 7.2-24.1 23.5.1 15.7 11.3 22.3 23.5 22.3 11.9-.1 24-7 24.1-23.8zm-49.2 19.7l-.3-2.4h-2.1c-4.1 0-4.1-2.2-4.2-9.8V.3c-5 0-9.3.6-17 2.1v2.4c.2.1 1.4 0 2.4 0 3.3 0 3.3 3.6 3.3 11.9v7.7c-1.7-.3-3.4-.6-6.3-.6-7.8 0-27 3.1-27.1 24.7.1 14.4 10.5 21.1 20.9 21.2 6.1-.1 10.7-3.1 13.1-4.5l2.4 4.5c5-1.1 10.2-2.2 14.9-4.2zm-59-19.7c.1-15.2-11-22-23.2-22-12 0-24.1 7.2-24.1 23.5 0 15.7 11.3 22.3 23.2 22.3 12.2-.1 24.2-7 24.1-23.8zM109.9 9.2c.1-3.5-2.9-6.4-6.6-6.3-3.7-.1-6.5 2.8-6.6 6.3 0 4 2.9 6.8 6.6 6.8s6.8-2.8 6.6-6.8zm5.7 58.9v-2.4l-2.1-.3c-3.3-.3-3.7-1.3-3.9-6.2V23.7c-4.8.3-10 1.1-17 3.6V30c.3-.2 1.6-.7 3-.6 2.8-.1 2.8 4.2 2.7 7.4v22.3c.1 5-.3 6-3.9 6.2l-1.8.3V68h23v.1zM88.2 27.9c-1.4-1.4-3.8-4.1-7.7-4.2-4.8 0-8.8 4.6-10.7 6.5.1-2.8-.4-4.8-.6-6.5-6.9 1.1-8.9 1.7-16.1 4.2v2.4c.7-.2 1.7-.6 3.3-.6 2.7 0 2.7 4.3 2.7 7.4v22.1c0 5-.4 6-3.9 6.2l-2.1.3v2.4h25v-2.4l-3.9-.6c-3.8-.4-3.8-1.6-3.9-8.3V33.9c1.3-1.5 2.4-1.9 3.9-1.8 1.3-.1 6.7 2.2 8.3 2.7 2.9-2.2 4.3-3.8 5.7-6.9zM54.8 22c0-1.4-.8-14-1.2-16.1H1.2C.8 7.9 0 20.6 0 22h3.3C5.8 11.9 6.9 9.5 17.6 9.5h3.6v45c.1 9.6.1 10.2-6 11l-2.4.3v2.4H42v-2.4l-2.4-.3c-6.1-.8-6.1-1.4-6-11v-45h3.6C47.9 9.5 49 12 51.5 22h3.3zm209.7 25.9c0 7.3-2 18.1-10.7 18.2-9.1-.1-12.5-10.9-12.5-20.9 0-7.8 2.3-17.8 11-17.9 9.5.1 12.3 10.6 12.2 20.6zm-54.8 14.6c-1 .7-3 1.6-5.4 1.5-7.6.1-15.8-7.2-15.8-20 0-9.6 4.8-16.6 13.1-16.7 4.5.1 6.3 1.7 8 3.3l.1 31.9zm-53-14.6c0 7.3-2.1 18.1-11 18.2-8.9-.1-12.3-10.9-12.2-20.9-.1-7.8 2.3-17.8 10.7-17.9 9.6.1 12.5 10.6 12.5 20.6zM639 68.1v-2.4c-3.7-.1-4.5-1-19.7-24.7 10.6-10.8 10.7-12.2 16.4-13.1l1.8-.3v-2.4h-20.9v2.4l3 .3c1.3.3 2.9.6 3 1.5 0 1.3-1 2.6-4.2 6.6l-3.3 3.6c-3.4 3.9-5.4 4.1-8.9 4.2V.3c-5 0-9.2.6-17 2.1v2.4c.3.1 1.4 0 2.7 0 3.1 0 3.1 3.6 3 11.9v42.6c.1 5-.4 6-3.9 6.2l-1.8.3v2.4h22.9v-2.4l-2.1-.3c-3.3-.3-3.7-1.3-3.9-6.2V47.4h1.2c3.9-.1 4 2.4 8.9 9.8 4.9 7.5 5.5 11 15.5 11h7.3v-.1zm-53.6 0v-2.4l-1.8-.3c-3.5-.3-3.9-1.3-3.9-6.2V40.7c-.1-12.9-5.8-16.9-14.3-17-8 0-12.5 3.4-14.9 5.7v-5.7c-4.9.3-9.9 1.1-17 3.6V30c.4-.2 1.6-.7 3-.6 2.9-.1 2.9 4.2 3 7.4v22.3c-.1 5-.6 6-3.9 6.2l-1.8.3V68h22.6v-2.4l-1.8-.3c-3.5-.3-4-1.3-3.9-6.2V32.9c1.4-1.7 3.8-3.7 7.7-3.6 9.8-.1 9.8 8.9 9.8 16.4v13.4c-.1 5-.5 6-3.9 6.2l-2.1.3V68h23.2v.1zm-54.8-.8l-.3-1.2h-.6c-6.1 0-6.1-7-6.3-13.7V40.8c.1-10.8-2-16.9-13.7-17-9.7 0-16.2 5.4-20.6 10.1.9 2.2 1.4 2.9 2.7 4.8h.9c1.3-2.9 4-9.4 11.3-9.2 6.6-.1 8.2 4.9 8 10.4v2.4c-7.7 1.9-24.3 5.2-24.4 17 .1 6.1 5.1 10.3 12.5 10.4 6.6-.1 10.4-3 13.1-4.8 1.5 2.2 3.2 4.7 9.2 4.8 4.2-.2 7-1.8 8.2-2.4zm-48.9-17c0-11.5-10.1-15.2-15.8-16.1v-.3c4.9-1.4 12.8-4.9 12.8-14.9 0-13.1-15.7-13.1-20.3-13.1h-28v2.4l2.1.3c4.6.6 4.6.6 4.5 11v34.5c.1 10.7.2 10.7-4.5 11.3l-2.1.3v2.4h24.4c14.2 0 26.9-3.9 26.9-17.8zm31 11.6c-.9.5-2.7 2.2-6 2.1-4.1.1-6.9-3.3-6.8-7.7 0-7.1 5.9-9.9 11.3-9.8.3-.1.6 0 .9 0v10.4c.1 1.6.4 4 .6 5zm-46.2-40.8c-.1 10.3-6.5 12.3-13.7 12.2h-3.6V10.1c1.7-.4 3.3-.6 5.1-.6 7.2 0 12.2 4.4 12.2 11.6zm3 30.7c0 7.4-3.8 12.8-12.5 12.8-2.5 0-5.2-.6-7.7-1.5V36.9h4.2c11.4 0 16 7.4 16 14.9zm-53.9-9.6c.1-11.5-4.8-22.6-11.3-29.2-4.1-4.1-7.9-6.7-13.4-9.2l-.6 1.2c2.6 1.5 4.8 3.2 7.4 5.7 7.2 7.1 11.9 19.2 11.9 29.2 0 1.4 0 3.4-.3 5.1-1.4-4.2-3.9-7.8-7.2-11-.9-1-2.2-2.4-3.3-3-.1 2.2-1 7.1-2.1 9.8 1.4 1.3 2.1 2.1 3.6 3.3 2.9 3.2 4.9 7.1 4.8 10.4.1 1.9-.8 3.9-2.4 5.4-1.4 1.5-4.5 2.7-7.7 2.7-3.6 0-9-2-11.9-4.2 5.8-5.7 9.3-12.1 11.6-20 .8-3.4 1.3-6.8 1.2-10.1.1-6.2-1.4-12.1-4.2-16.7C387.5 4.2 381.1.1 372.6 0c-9.9.1-19.2 5-26.2 12.2-8 8-12 17.9-11.9 28-.1 1.9 0 3.6.3 5.7h1.2c0-3.1.4-6 1.2-9.5 1.7-6.2 6-13.2 11.6-18.8 3.8-3.9 8.2-6.7 12.2-8.3-2.9 3.4-4.9 7.3-6.3 11.6-.2 1.3-.6 3.2-.6 4.5 1.9-1.1 6.6-2.8 9.5-3.3.7-4.3 2.3-9.1 5.7-12.2 1.5-1.7 3.4-2.7 5.7-2.7 3.7-.1 6.5 2.6 8.3 5.7 1.7 3 2.9 8.6 2.4 12.5-3.9-1.3-7.7-1.8-11.6-1.8-3.6 0-7.4.5-11.6 1.8-6.5 1.7-12.5 5.1-17 9.5-4.5 4.5-8.1 10.9-8 17.6 0 6.8 3.5 12.6 8 17.3 7.8 7.7 18.8 11.7 29.8 11.6 8.7.1 16.5-2.9 23.5-8l-.6-.9c-5.6 3-11.5 4.5-18.2 4.5-9.2 0-19.1-2.8-25.9-8 1.9.2 3.7.4 5.4.3 3.3.1 9.1-.7 11.9-2.4-1.7-1.2-5.5-4.5-7.4-6.9-2.9 1.2-6.3 2-9.5 2.1-2.9-.1-6.1-.7-8-3-1.3-1.3-2.1-3.1-2.1-5.1 0-3.9 2.2-7.2 4.8-9.8 1.9-2.1 4.5-3.9 6.6-4.8 2.1 8 5.8 14.4 11.6 20.3 7.1 6.9 16.4 10.9 24.7 11 6.1 0 11.4-1.8 15.8-6.3 4.7-4.9 7.8-13.4 7.7-22.2zm-31-6.5c-2 6.2-5.7 11.7-10.1 16.1-4.3-4.7-7.2-10.7-8.6-16.7 2.4-.6 5.1-.9 7.7-.9 3.7 0 7.4.5 11 1.5z"/></svg>