<svg xmlns="http://www.w3.org/2000/svg" viewBox="0 0 961.73 309.09"><title>Asset 2</title><path fill="none" stroke="#000" stroke-miterlimit="10" stroke-width="6.3" d="M0 305.69h179.17V3.15h277.51v302.79h505.05"/><path fill="none" stroke="#000" stroke-miterlimit="10" stroke-width="6.3" d="M456.68 190.16L391 124.48l-84.68 81.27"/><path d="M356.41 158.77c5.91 2 13.59-2.2 19.49-3.75a43.5 43.5 0 0 1 9.89-1.81 14.8 14.8 0 0 1 9.49 2.72c2.59 2 4.12 5.08 5.82 7.9s3.83 5.65 6.95 6.71c3.31 1.11 7 0 10-1.81s5.68-4.1 8.81-5.63" fill="none" stroke="#000" stroke-linecap="round" stroke-linejoin="round" stroke-width="6.3"/><path fill="none" stroke="#000" stroke-miterlimit="10" stroke-width="6.3" d="M179.49 136.5l62.92-64.01 99.29 99.3-35.38 33.96"/><path fill="none" stroke="#000" stroke-linecap="round" stroke-miterlimit="10" stroke-width="6.3" d="M199.33 265.67l83.45-83.45 123.73 123.72h80.28"/><path d="M237.18 227.82c-3.17 4.84 3 10.69 8.61 12.3s11.51-.73 16.36-3.88c5.35-3.47 10-8 15.36-11.42s11.86-5.88 18.09-4.5c5.44 1.2 9.83 5.06 14.61 7.92 4.14 2.5 8.6 5.29 13.44 5.29a14.86 14.86 0 0 0 7.34-1.44M201.08 114.54c-2.16 2.19-5.7 6.38-6.52 9.87a2.14 2.14 0 0 0 0 1.5c.39.7 1.35.79 2.16.76 13.87-.59 25.4-10.77 38.76-14.56 1.68-.48 3.63-.81 5.06.2s1.75 2.79 2 4.44c.58 3.35 1.24 6.69 2 10a4.18 4.18 0 0 0 1.27 2.59c1.1.81 2.65.36 3.88-.23 6.58-3.12 11.53-9.24 18.41-11.61a10.14 10.14 0 0 1 4.14-.65 23.94 23.94 0 0 1 3.61.85 16.64 16.64 0 0 0 9-.31" fill="none" stroke="#000" stroke-linecap="round" stroke-linejoin="round" stroke-width="6.3"/><circle cx="355.51" cy="64.31" r="35.22" fill="#ffd500" stroke="#000" stroke-miterlimit="10" stroke-width="6.3"/></svg>