<svg id="Layer_1" xmlns="http://www.w3.org/2000/svg" viewBox="0 0 477.2 155.8"><style>.st0{opacity:.1}.st1{fill:#ffe100}</style><path d="M175.6 0h1.7v155.8h-1.7z" class="st0"/><path class="st1" d="M273 112.8c-23.7 0-39.6-18.8-39.6-46.9S249.3 19 273 19c23.7 0 39.6 18.8 39.6 46.9s-15.9 46.9-39.6 46.9zm0-80.2c-16.1 0-26 12.8-26 33.3s10 33.3 26 33.3c16.1 0 26-12.8 26-33.3s-10-33.3-26-33.3z"/><ellipse class="st1" cx="273" cy="65.9" rx="12.1" ry="15.9"/><path d="M333.1 74.9c-1.8 2.8-3.7 4.1-7 4.1-4.6 0-7.9-3.2-7.9-7.9s3.4-7.9 8-7.9c3.3 0 5.8 1.7 6.8 4l-2.9 2c-.8-1.8-2.2-2.8-4-2.8-2.4 0-4.4 1.8-4.4 4.6s2 4.6 4.4 4.6c1.9 0 3.2-1 4.2-2.9l2.8 2.2zm12.1 3.8H342V73c0-1.3-.7-2.2-2-2.2s-2.3 1.1-2.3 2.8v5.2h-3.2V63.5h3.2v5.9c.9-1.1 2-1.8 3.7-1.8 2.3 0 3.9 1.4 3.9 3.7v7.4zm8.6 0c-.3-.3-.5-.8-.5-1.4-.7 1-1.8 1.7-3.3 1.7-2.4 0-3.8-1.5-3.8-3.4 0-2.2 1.9-3.2 4.2-3.6l2.7-.4v-.2c0-1-.5-1.6-1.7-1.6-1 0-1.6.4-1.6 1v.2l-2.9 1c-.1-.4-.2-.7-.2-1 0-2 2.1-3.3 4.7-3.3 3.4 0 4.9 1.5 4.9 4.1V76c0 1.2.2 1.9.7 2.7h-3.2zm-.7-4.8v-.2l-2.3.4c-.8.1-1.5.5-1.5 1.3 0 .6.5 1.1 1.3 1.1 1.6 0 2.5-1.3 2.5-2.6zm4.8-5.9h3.2v1.2c.8-.9 1.9-1.5 3.6-1.5 2.4 0 4.9 1.9 4.9 5.7s-2.6 5.7-5 5.7c-1.6 0-2.7-.6-3.5-1.4v5.5h-3.2V68zm3.1 5.3c0 1.6 1.2 2.7 2.7 2.7 1.5 0 2.7-1 2.7-2.7s-1.2-2.7-2.7-2.7c-1.5 0-2.7 1.1-2.7 2.7zm8.6-5.3h1.6v-2.9h3.2V68h2.2v2.5h-2.2v4.2c0 .9.5 1.4 1.2 1.4.4 0 .7-.1 1-.2l.3 2.7c-.6.2-1.2.4-2.2.4-1.7 0-3.6-.9-3.6-3.6v-4.9h-1.6V68zm10.4 6.1c.2 1.3 1.3 2.1 2.6 2.1 1.2 0 2-.5 2.7-1.7l2.3 1.3c-1 1.9-2.5 3.1-5.2 3.1-2.9 0-5.5-2.3-5.5-5.7s2.5-5.7 5.7-5.7 5.3 2.4 5.3 5.4V74H380zm.1-2.2h4.9c-.3-1.1-1.2-1.7-2.4-1.7s-2.1.6-2.5 1.7zm15.6-1c-.3-.1-.5-.1-.9-.1-1.6 0-2.6 1.3-2.6 3.1v4.9H389V68h3.2v1.4c.6-1.1 1.7-1.7 3-1.7.4 0 .7.1 1 .2l-.5 3zm-77.3 10.4h11.4v3.1l-7.5 9h7.9v3.1H318v-3l7.6-9.1h-7.2v-3.1z"/><path d="M333.2 91.9c.2 1.3 1.3 2.1 2.6 2.1 1.2 0 2-.5 2.7-1.7l2.3 1.3c-1 1.9-2.5 3.1-5.2 3.1-2.9 0-5.5-2.3-5.5-5.7s2.5-5.7 5.7-5.7 5.3 2.4 5.3 5.4v1.1h-7.9zm.1-2.3h4.9c-.3-1.1-1.2-1.7-2.4-1.7s-2.1.6-2.5 1.7zm15.6-1c-.3-.1-.5-.1-.9-.1-1.6 0-2.6 1.3-2.6 3.1v4.9h-3.2V85.7h3.2V87c.6-1.1 1.7-1.7 3-1.7.4 0 .7.1 1 .2l-.5 3.1zm6.1 8.1c-3 0-6-1.9-6-5.7 0-3.8 2.9-5.7 6-5.7 3 0 6 1.9 6 5.7 0 3.8-2.9 5.7-6 5.7zm2.7-5.6c0-1.6-1.3-2.6-2.7-2.6-1.4 0-2.7 1-2.7 2.6s1.3 2.6 2.7 2.6c1.4-.1 2.7-1 2.7-2.6zM317.3 102.1h6.9v1h-2.9v8.4h-1.1v-8.4h-2.9v-1zm13.3 9.4h-1v-4.3c0-1.1-.7-1.6-1.6-1.6-1 0-2 .8-2 2.2v3.7h-1v-9.3h1v3.9c.4-.8 1.3-1.3 2.3-1.3 1.2 0 2.4.7 2.4 2.3v4.4zm2-3.2c.1 1.4.9 2.4 2.3 2.4 1.2 0 1.8-.7 2.2-1.5l.8.5c-.6 1.2-1.5 1.9-3 1.9-1.8 0-3.3-1.5-3.3-3.5s1.5-3.5 3.3-3.5c2 0 3.2 1.4 3.2 3.3v.4h-5.5zm0-.8h4.4c-.1-1.3-1.1-1.9-2.1-1.9-1.2 0-2 .8-2.3 1.9zm9.8-5.4h2.6c2.8 0 4.8 1.7 4.8 4.7s-2 4.7-4.8 4.7h-2.6v-9.4zm6.2 4.7c0-2.5-1.5-3.7-3.7-3.7h-1.4v7.4h1.4c2.2 0 3.7-1.2 3.7-3.7zm2.3-4.4h1.3v1.3h-1.3v-1.3zm.1 2.5h1v6.6h-1v-6.6zm5.7.8c-.2-.1-.3-.1-.5-.1-.9 0-1.7.9-1.7 2.2v3.6h-1v-6.6h1v1.2c.4-.8 1-1.4 1.9-1.4.1 0 .3 0 .5.1l-.2 1zm1.2 2.6c.1 1.4.9 2.4 2.3 2.4 1.2 0 1.8-.7 2.2-1.5l.8.5c-.6 1.2-1.5 1.9-3 1.9-1.8 0-3.3-1.5-3.3-3.5s1.5-3.5 3.3-3.5c2 0 3.2 1.4 3.2 3.3v.4h-5.5zm.1-.8h4.4c-.1-1.3-1.1-1.9-2.1-1.9-1.3 0-2.1.8-2.3 1.9zm12.3 2.3c-.6 1.2-1.6 1.9-3 1.9-1.9 0-3.4-1.5-3.4-3.5s1.6-3.5 3.4-3.5c1.4 0 2.5.7 2.9 1.8l-.8.5c-.5-1.1-1.3-1.4-2.1-1.4-1.3 0-2.4 1-2.4 2.6s1 2.6 2.4 2.6c1.1 0 1.7-.6 2.2-1.5l.8.5zm.2-4.9h1.1v-1.8h1v1.8h1.5v.8h-1.5v4c0 .7.1 1.1.9 1.1.1 0 .4 0 .5-.1l.1.9c-.2.1-.5.1-.9.1-.9 0-1.7-.4-1.7-1.8v-4.2h-1.1v-.8zm7.4 6.8c-1.7 0-3.5-1.2-3.5-3.5s1.8-3.5 3.5-3.5 3.5 1.2 3.5 3.5c0 2.2-1.8 3.5-3.5 3.5zm2.4-3.5c0-1.5-1-2.6-2.4-2.6-1.3 0-2.4 1.1-2.4 2.6s1 2.6 2.4 2.6c1.4-.1 2.4-1.2 2.4-2.6zm5.4-2.5c-.2-.1-.3-.1-.5-.1-.9 0-1.7.9-1.7 2.2v3.6h-1v-6.6h1v1.2c.4-.8 1-1.4 1.9-1.4.1 0 .3 0 .5.1l-.2 1zm3.4 1.9c1.4.3 2.2.8 2.2 1.9 0 1.1-.9 2.1-2.5 2.1-1.5 0-2.4-.9-2.8-1.9l.9-.5c.3.9 1 1.5 1.9 1.5.9 0 1.5-.4 1.5-1.2 0-.7-.5-1-1.7-1.2-1.2-.2-2.2-.8-2.2-1.9 0-1.1 1.1-1.8 2.3-1.8 1.4 0 2.2.6 2.6 1.6l-.8.5c-.4-.9-1-1.2-1.8-1.2-.7 0-1.3.3-1.3.9-.1.7.6 1 1.7 1.2zm2.7-2.6l.8-1.5h-.5v-1.3h1.3v1.3l-1.3 1.7-.3-.2zm14 4.3c-.7 1.4-1.9 2.4-4 2.4-2.6 0-4.5-2.1-4.5-4.9 0-2.8 2.1-4.9 4.6-4.9 1.8 0 3.2.9 3.9 2.4l-.9.6c-.7-1.4-1.8-2-3.1-2-1.9 0-3.4 1.7-3.4 3.9s1.4 3.9 3.4 3.9c1.4 0 2.3-.6 3.1-2l.9.6zm1.2-7.2h1v9.3h-1v-9.3zm2.5.3h1.3v1.3h-1.3v-1.3zm.1 2.5h1v6.6h-1v-6.6zm11.4 6.6h-1v-4.7c0-.7-.4-1.2-1.2-1.2-.9 0-1.6.7-1.6 2.3v3.6h-1V107c0-.8-.4-1.3-1.2-1.3-.9 0-1.7.7-1.7 2.3v3.6h-1V105h1v1.1c.3-.6 1-1.2 2-1.2.8 0 1.5.4 1.8 1.3.5-.8 1.2-1.3 2.1-1.3 1.1 0 2 .7 2 1.8v4.8zm5.9 0c-.2-.2-.4-.6-.4-1.3-.4 1-1.3 1.5-2.3 1.5-1.3 0-2.2-.9-2.2-2 0-1.3 1-2 2.3-2.2l2.2-.4v-.3c0-.9-.6-1.3-1.6-1.3s-1.6.5-1.6 1v.2l-.9.3c-.1-.2-.1-.4-.1-.5 0-1 1-1.9 2.5-1.9 1.7 0 2.6.8 2.6 2.2v3c0 .8.1 1.1.4 1.7h-.9zm-.4-3.3v-.2l-2 .3c-.9.2-1.4.6-1.4 1.3 0 .7.5 1.1 1.3 1.1 1.4 0 2.1-1.2 2.1-2.5zm1.6-3.3h1.1v-1.8h1v1.8h1.5v.8h-1.5v4c0 .7.1 1.1.9 1.1.1 0 .4 0 .5-.1l.1.9c-.2.1-.5.1-.9.1-.9 0-1.7-.4-1.7-1.8v-4.2H428v-.8zm5 3.4c.1 1.4.9 2.4 2.3 2.4 1.2 0 1.8-.7 2.2-1.5l.8.5c-.6 1.2-1.5 1.9-3 1.9-1.8 0-3.3-1.5-3.3-3.5s1.5-3.5 3.3-3.5c2 0 3.2 1.4 3.2 3.3v.4h-5.5zm.1-.8h4.4c-.1-1.3-1.1-1.9-2.1-1.9-1.3 0-2.1.8-2.3 1.9zm9.8-5.4h6v1h-4.9v3.3h4.5v1h-4.5v4.1H443v-9.4zm9.7 9.6c-1.7 0-3.5-1.2-3.5-3.5s1.8-3.5 3.5-3.5 3.5 1.2 3.5 3.5c0 2.2-1.8 3.5-3.5 3.5zm2.4-3.5c0-1.5-1-2.6-2.4-2.6-1.3 0-2.4 1.1-2.4 2.6s1 2.6 2.4 2.6c1.4-.1 2.4-1.2 2.4-2.6zm5.4-2.5c-.2-.1-.3-.1-.5-.1-.9 0-1.7.9-1.7 2.2v3.6h-1v-6.6h1v1.2c.4-.8 1-1.4 1.9-1.4.1 0 .3 0 .5.1l-.2 1zm.8-.8h1v4.3c0 1 .7 1.6 1.6 1.6 1 0 1.9-.8 1.9-2.2v-3.7h1v6.6h-1v-1.2c-.4.8-1.2 1.3-2.2 1.3-1.2 0-2.3-.7-2.3-2.4v-4.3zm15.9 6.6h-1v-4.7c0-.7-.4-1.2-1.2-1.2-.9 0-1.6.7-1.6 2.3v3.6h-1V107c0-.8-.4-1.3-1.2-1.3-.9 0-1.7.7-1.7 2.3v3.6h-1V105h1v1.1c.3-.6 1-1.2 2-1.2.8 0 1.5.4 1.8 1.3.5-.8 1.2-1.3 2.1-1.3 1.1 0 2 .7 2 1.8v4.8zM13 83.5l5.3-17 5.5 17h5.3l7.7-24h-5.2l-5.2 17.7-5.2-17.7h-5.8l-5 17.7-5.2-17.7H0l7.7 24zm48.1-12.2c0-7.2-5-12.4-12.2-12.4-7.4 0-12.4 5.1-12.4 12.4 0 7.4 5 12.6 12.4 12.6 7.2 0 12.2-5.2 12.2-12.6zm-12.3 8.1c-4.5 0-7.6-3.4-7.6-8.2 0-4.5 3-7.6 7.6-7.6 4.4 0 7.4 3.2 7.4 7.6 0 4.8-3 8.2-7.4 8.2zm32.9-.1H68.3V59.5h-4.7v24h18.1zm2.3 4.2h4.7V73.3h12.6V69H88.7v-5.3h13.7v-4.2H84zm39-19.8v-4.2h-18.4v24h4.7V73.3h12.6V69h-12.6v-5.3zM13.7 86.3c-7.4 0-12.4 5.1-12.4 12.4 0 7.4 5 12.6 12.4 12.6 7.3 0 12.2-5.2 12.2-12.6.1-7.3-4.9-12.4-12.2-12.4zm0 20.4c-4.5 0-7.6-3.4-7.6-8.2 0-4.5 3-7.6 7.6-7.6 4.4 0 7.4 3.2 7.4 7.6 0 4.8-3 8.2-7.4 8.2zm19.5-19.9h-4.7v24h18.1v-4.1H33.2zm16.3 0h4.7v24h-4.7zm24.9 16.5L62.1 86.8h-5v24h4.7V94.3l12.3 16.5h5v-24h-4.7zm12.5-9.6c0-1.9 1.6-3 4.5-3 2.8 0 4.5 1.3 4.6 3.5h5.2c0-4.9-4-7.9-9.8-7.9-5.8 0-9.4 2.9-9.4 7.4 0 10.1 14.6 4.6 14.6 10 0 2-1.7 3.2-4.9 3.2s-5-1.6-5.1-4.3h-5.3c0 5.4 4.2 8.6 10.3 8.6 6.2 0 9.9-3.2 9.9-7.7 0-10.1-14.6-4.4-14.6-9.8z"/></svg>